<?xml version="1.0" encoding="iso-8859-1"?>
<!-- Generator: Adobe Illustrator 19.0.0, SVG Export Plug-In . SVG Version: 6.00 Build 0)  -->
<svg version="1.1" id="Capa_1" xmlns="http://www.w3.org/2000/svg" xmlns:xlink="http://www.w3.org/1999/xlink" x="0px" y="0px"
	 viewBox="0 0 347.2 347.2" style="enable-background:new 0 0 347.2 347.2;" xml:space="preserve">
<path style="fill:#F0E9E0;" d="M247.2,6.4H100C83.2,6.4,69.2,20,69.2,37.2v273.6c0,16.8,13.6,30.8,30.8,30.8h147.2
	c16.8,0,30.8-13.6,30.8-30.8v-274C277.6,20,264,6.4,247.2,6.4z"/>
<path style="fill:#F7F7F7;" d="M95.2,310.4V36.8C95.2,20,108.8,6,126,6h-25.6C83.6,6,69.6,19.6,69.6,36.8v273.6
	c0,16.8,13.6,30.8,30.8,30.8H126C108.8,340.8,95.2,327.2,95.2,310.4z"/>
<rect x="75.6" y="61.2" style="fill:#01A9BB;" width="196" height="208.8"/>
<rect x="75.6" y="61.2" style="fill:#27BDC1;" width="25.6" height="208.8"/>
<circle style="fill:#F8B72B;" cx="173.6" cy="166" r="46"/>
<path style="fill:#F7C869;" d="M142.4,166c0-22.8,16.8-41.6,38.4-45.2c-2.4-0.4-4.8-0.8-7.6-0.8c-25.2,0-46,20.4-46,46
	c0,25.2,20.4,46,46,46c2.4,0,5.2-0.4,7.6-0.8C159.2,207.6,142.4,188.8,142.4,166z"/>
<g>
	<path style="fill:#231F20;" d="M247.2,0H100C79.6,0,63.2,16.4,63.2,36.8v273.6c0,20.4,16.4,36.8,36.8,36.8h147.2
		c20.4,0,36.8-16.4,36.8-36.8V36.8C284,16.8,267.6,0,247.2,0z M75.6,61.2h196V270h-196V61.2z M100,12.4h147.2
		c13.6,0,24.4,10.8,24.4,24.4v12.4h-196V36.8C75.6,23.2,86.4,12.4,100,12.4z M247.2,334.8H100c-13.6,0-24.4-10.8-24.4-24.4v-28h196
		v28C271.6,324,260.8,334.8,247.2,334.8z"/>
	<circle style="fill:#231F20;" cx="173.6" cy="306.8" r="20"/>
	<path style="fill:#231F20;" d="M173.6,114c-28.8,0-52,23.2-52,52c0,28.8,23.2,52,52,52s52-23.2,52-52S202.4,114,173.6,114z
		 M173.6,206c-22,0-39.6-18-39.6-39.6c0-22,18-39.6,39.6-39.6c22,0,39.6,18,39.6,39.6S195.6,206,173.6,206z"/>
	<path style="fill:#231F20;" d="M189.2,147.6l-26.8,23.2l-8.8-12.4c-2-2.8-6-3.2-8.4-1.2c-2.8,2-3.2,6-1.2,8.4l12.8,18
		c1.2,1.2,2.4,2.4,4.4,2.4c0.4,0,0.4,0,0.8,0c1.6,0,2.8-0.4,4-1.6l31.6-27.6c2.4-2.4,2.8-6,0.4-8.8
		C195.6,145.6,192,145.2,189.2,147.6z"/>
</g>
<g>
</g>
<g>
</g>
<g>
</g>
<g>
</g>
<g>
</g>
<g>
</g>
<g>
</g>
<g>
</g>
<g>
</g>
<g>
</g>
<g>
</g>
<g>
</g>
<g>
</g>
<g>
</g>
<g>
</g>
</svg>
