<svg id="Capa_1" enable-background="new 0 0 512 512" height="512" viewBox="0 0 512 512" width="512" xmlns="http://www.w3.org/2000/svg"><g><g><path d="m0 0v88.576l77.984 19.747-19.579-108.323z" fill="#eef9ff"/><path d="m128.659.335-18.75 107.988 77.155-19.411v-88.577z" fill="#d6eefd"/></g><g><path d="m58.405 0v88.576l35.127 13.563 12.909-52.647-12.909-49.492z" fill="#d6eefd"/><path d="m93.532 0v102.139l1.276.493 33.851-14.056v-88.576z" fill="#bbddf0"/></g><g><path d="m0 88.576v56.563l57.79 49.941v316.92h35.742l21.138-216.473-21.138-206.951z" fill="#ffc31a"/><path d="m93.532 88.576v423.424h35.242v-316.873l58.29-49.941v-56.61z" fill="#ff9b00"/></g><g><g><path d="m340.228 403.747-128.197 16.627 21.639 91.626h106.734l23.244-47.709-23.244-60.522z" fill="#99f"/><path d="m473.64 420.374-133.236-16.605v108.231h111.597z" fill="#8080ff"/></g><g><path d="m198.243 361.989 13.788 58.385h128.373l23.244-29.192-23.244-29.193z" fill="#8080ff"/><path d="m487.429 361.989h-147.025v58.385h133.236z" fill="#66f"/></g><g><path d="m333.301 270.024c-14.751-.463-42.193 1.799-60.438 22.232-15.917 17.824-16.442 40.879-14.08 57.081l81.621 3.566 28.544-41.568-28.544-41.568c-2.923.247-5.38.307-7.103.257z" fill="#ffe673"/></g><path d="m390.239 244.616-12.655 11.585c-10.24 9.375-26.708 12.678-37.181 13.565v83.136l69.983 3.058c37.499-55.672-20.147-111.344-20.147-111.344z" fill="#ffc31a"/><g><path d="m173.671 343.442v30h166.733l14.554-15.427-14.554-14.573z" fill="#99f"/><path d="m340.404 343.442h171.596v30h-171.596z" fill="#8080ff"/></g></g></g></svg>