<?xml version="1.0" encoding="iso-8859-1"?>
<!-- Generator: Adobe Illustrator 16.0.0, SVG Export Plug-In . SVG Version: 6.00 Build 0)  -->
<!DOCTYPE svg PUBLIC "-//W3C//DTD SVG 1.1//EN" "http://www.w3.org/Graphics/SVG/1.1/DTD/svg11.dtd">
<svg version="1.1" id="Capa_1" xmlns="http://www.w3.org/2000/svg" xmlns:xlink="http://www.w3.org/1999/xlink" x="0px" y="0px"
	 width="31.351px" height="31.351px" viewBox="0 0 31.351 31.351" style="enable-background:new 0 0 31.351 31.351;"
	 xml:space="preserve">
<g>
	<g>
		<path d="M11.106,20.203c0.179-0.584,0.149-1.188-0.082-1.705c-0.223-0.493-0.607-0.848-1.081-0.992
			c-0.151-0.047-0.308-0.07-0.466-0.071c-0.882-0.007-1.708,0.673-2.008,1.654c-0.178,0.582-0.148,1.188,0.083,1.703
			c0.223,0.496,0.606,0.849,1.08,0.993c0.151,0.047,0.308,0.07,0.466,0.072C9.979,21.864,10.807,21.183,11.106,20.203z"/>
		<path d="M21.108,21.989c0.15,0.001,0.301-0.02,0.447-0.06c0.479-0.132,0.871-0.474,1.107-0.963
			c0.072-0.148,0.121-0.307,0.158-0.468c-0.892,0.073-2.517-0.225-3.746-0.491c0.016,0.09,0.025,0.181,0.051,0.27
			C19.403,21.278,20.217,21.98,21.108,21.989z"/>
		<path d="M27.387,12.028c0,0-0.827-9.415-7.447-11.264l-3.494,10.138c-0.268-0.549-0.611-1.243-0.994-2.011
			c1.741-3.396,4.106-7.955,4.106-7.955l0.236-0.209c-0.122-0.031-0.243-0.067-0.37-0.094c-3.676-0.771-6.464-0.242-8.301,0.446
			c0.82,1.624,5.541,10.98,5.68,11.416c0.921,1.914,2.558,3.11,3.612,3.726c0.482-1.346,0.757-3.199,0.508-5.748
			c-0.178-1.037-0.622-6.96,0.443-7.996c2.844,2.34,2.547,6.93,2.547,7.137c0,0.132,2.399,2.873,2.341,3.287
			c0.144,0.777-1.066,0.978-1.481,1.511c0.829,1.422-1.303,1.955-1.303,1.955s2.072,0.918,0.178,1.953
			c0.541,1.128,0.631,1.454,0.145,1.792c-0.021,0.438-0.123,0.862-0.31,1.25c-0.352,0.729-0.95,1.242-1.685,1.444
			c-0.227,0.063-0.463,0.094-0.698,0.093c-1.295-0.011-2.468-0.989-2.853-2.38c-0.014-0.054-0.024-0.108-0.037-0.165l-0.187-0.589
			c-0.349-0.086-0.565-0.143-0.565-0.143s0.18-0.055,0.457-0.205l-2.279-7.214l-1.471-0.744L10.8,1.207
			C9.304,1.819,8.53,2.5,8.53,2.5S7.138-0.055,5.686,0.001C6.708,0.745,7.619,2.566,7.63,2.6c0.011,0.033-2.136-2.299-3.565-1.966
			C5.73,1.159,6.585,2.722,6.585,2.722S4.398,1.115,2.699,1.489C4.19,1.928,5.698,3.01,5.698,3.01S3.11,1.959,1.7,2.922
			c1.514-0.044,3.032,0.444,3.032,0.444s-3.25-0.089-3.72,1.088c1.388-0.496,3.32-0.311,3.32-0.311s-3.65,0.688-3.776,2.021
			c1.073-0.829,3.01-1.155,3.01-1.155s-2.721,1.688-2.91,2.932C1.836,6.52,3.777,5.542,3.777,5.542s-1.422,4.161-1.289,4.31
			c0.133,0.147,0.607,0.43,0.711,1.021c0.104,0.593-2.709,3.865-2.399,4.397c0.311,0.532,1.732,0.845,1.732,0.845
			s-0.562,1.272-0.355,1.599s0.488,0.312,0.488,0.312s-0.385,0.089-0.222,0.443c0.163,0.355,0.93,0.854,1.066,0.979
			c-1.069,2.995,0.078,3.186,4.46,3.049c-0.544-0.272-0.98-0.73-1.249-1.329c-0.322-0.719-0.366-1.551-0.123-2.343
			c0.351-1.146,1.242-1.992,2.277-2.23c0.223-0.084,3.305-1.271,4.769-4.104c0.022-0.062,0.141-0.312,0.332-0.69l0.848,0.429
			l-0.004,0.002l-2.833,8.244c0,0-0.001-0.007-0.006-0.02c-0.002,0.006-0.003,0.011-0.005,0.018
			c-0.289,0.946-0.949,1.69-1.755,2.054c1.839,0.063,3.372,0.077,3.372,0.077l2.288,0.111c0,0,0.979,5.12-2.065,7.019
			c4.109-0.243,4.198-6.131,4.198-6.131s0.089,4.665-1.488,6.53c2.599-0.777,2.464-5.687,2.464-5.687s1.645,6.131-4.375,6.863
			c9.996,0.688,10.083-7.353,10.083-7.353s0.754,0.911,2.109,0.755c-2.177-1.776-1.755-6.663-1.755-6.663s0.399,5.819,2.577,5.931
			c-0.273-0.328-0.48-0.818-0.639-1.399c3.612-0.606,1.926-6.219,1.926-6.219s1.488,0.532,1.467,2.776
			C32.206,17.536,27.387,12.028,27.387,12.028z M26.991,22.57c-0.697-2.585-0.403-6.967-0.403-6.967S29.804,18.909,26.991,22.57z"/>
		<circle cx="15.012" cy="10.837" r="0.48"/>
	</g>
</g>
<g>
</g>
<g>
</g>
<g>
</g>
<g>
</g>
<g>
</g>
<g>
</g>
<g>
</g>
<g>
</g>
<g>
</g>
<g>
</g>
<g>
</g>
<g>
</g>
<g>
</g>
<g>
</g>
<g>
</g>
</svg>
