<svg height="512" viewBox="0 0 512 512" width="512" xmlns="http://www.w3.org/2000/svg"><g id="flat"><path d="m381.054 152-25.371-63.426a22 22 0 0 1 8.223-26.474l.568-.378a102 102 0 0 1 113.159 0l.568.378a22 22 0 0 1 8.223 26.476l-25.37 63.424z" fill="#ffb3b3"/><path d="m413.045 160a8 8 0 0 1 -7.836-6.433l-8-40a8 8 0 1 1 15.689-3.138l8 40a8 8 0 0 1 -6.275 9.414 8.118 8.118 0 0 1 -1.578.157z" fill="#faa6b2"/><path d="m429.062 160a8.126 8.126 0 0 1 -1.578-.157 8 8 0 0 1 -6.275-9.414l8-40a8 8 0 1 1 15.689 3.138l-8 40a8 8 0 0 1 -7.836 6.433z" fill="#faa6b2"/><circle cx="144" cy="368" fill="#0bafea" r="104"/><path d="m239.68 408.81a103.734 103.734 0 0 1 -8.02 15.19h-175.32a103.734 103.734 0 0 1 -8.02-15.19z" fill="#0276b4"/><path d="m421.054 488a24 24 0 0 1 -24-24v-168h48v168a24 24 0 0 1 -24 24z" fill="#683b0d"/><path d="m397.05 296h48v16h-48z" fill="#683b0d"/><path d="m445.054 296h-48l-3.449-17.243a646.348 646.348 0 0 1 -12.551-126.757h80a646.272 646.272 0 0 1 -12.554 126.757z" fill="#eaeae8"/><path d="m453.054 224h-24a8 8 0 0 1 0-16h24a8 8 0 0 1 0 16z" fill="#fbfdff"/><path d="m296 392h64v96h-64z" fill="#ea9d2d"/><path d="m296 360h64v32h-64z" fill="#fbb540"/><path d="m352 360h-48v-90.126a10 10 0 0 1 13.162-9.487l15.692 5.231a28 28 0 0 1 19.146 26.563z" fill="#d32b39"/><path d="m239.68 408.81a103.734 103.734 0 0 1 -8.02 15.19h-175.32a103.734 103.734 0 0 1 -8.02-15.19z" fill="#0276b4"/><g fill="#eaeae8"><circle cx="144" cy="368" r="72"/><path d="m185.97 309.5-88.88 113.12a72.054 72.054 0 0 1 -19.67-27.18l74.27-99.03a71.544 71.544 0 0 1 34.28 13.09z"/><path d="m214.45 353.09-59.05 75.16a8 8 0 1 1 -12.58-9.88l65.31-83.12a70.882 70.882 0 0 1 6.32 17.84z"/></g><path d="m24 424h240a0 0 0 0 1 0 0v4a60 60 0 0 1 -60 60h-120a60 60 0 0 1 -60-60v-4a0 0 0 0 1 0 0z" fill="#0bafea"/><path d="m185.97 309.5-88.88 113.12a72.054 72.054 0 0 1 -19.67-27.18l74.27-99.03a71.544 71.544 0 0 1 34.28 13.09z" fill="#fbfdff"/><path d="m214.45 353.09-59.05 75.16a7.993 7.993 0 0 1 -11.23 1.35c-3.48-2.73-10.04-.081-7.31-3.551l71.27-90.8a70.882 70.882 0 0 1 6.32 17.841z" fill="#fbfdff"/><path d="m280 96a50.6 50.6 0 0 1 -32 32l12.82 8.547a50.6 50.6 0 0 1 17.189 19.471l1.991 3.982 1.991-3.982a50.6 50.6 0 0 1 17.189-19.471l12.82-8.547a50.6 50.6 0 0 1 -32-32z" fill="#fbb540"/><path d="m192 144a50.6 50.6 0 0 1 -32 32l12.82 8.547a50.6 50.6 0 0 1 17.189 19.471l1.991 3.982 1.991-3.982a50.6 50.6 0 0 1 17.189-19.471l12.82-8.547a50.6 50.6 0 0 1 -32-32z" fill="#fbb540"/><path d="m224 24a50.6 50.6 0 0 1 -32 32l12.82 8.547a50.6 50.6 0 0 1 17.189 19.471l1.991 3.982 1.991-3.982a50.6 50.6 0 0 1 17.189-19.471l12.82-8.547a50.6 50.6 0 0 1 -32-32z" fill="#fbb540"/><rect fill="#0276b4" height="32" rx="16" width="80" x="104" y="424"/><path d="m304 344h48v16h-48z" fill="#961b20"/><path d="m397.05 296h48v16h-48z" fill="#533222"/></g></svg>