<svg height="512" viewBox="0 0 64 64" width="512" xmlns="http://www.w3.org/2000/svg"><path d="m27 17-8.446-8.446a3.009 3.009 0 1 0 -4.237-1.237 2.961 2.961 0 0 0 -1.317-.317 3 3 0 1 0 2.554 4.554l8.446 8.446z" fill="#f4f4e6"/><path d="m40 13 4.446-4.446a3.009 3.009 0 1 1 4.237-1.237 2.961 2.961 0 0 1 1.317-.317 3 3 0 1 1 -2.554 4.554l-4.446 4.446z" fill="#f4f4e6"/><path d="m51 27-.47 4-1.88 16-1.65 14h-30l-1.65-14-1.88-16-.47-4z" fill="#e1462b"/><path d="m26 58h-5a1 1 0 0 1 -.99-.858l-1-7 1.98-.284.877 6.142h4.133z" fill="#fcf05a"/><path d="m28 56h2v2h-2z" fill="#fcf05a"/><path d="m50.53 31-1.88 16h-33.3l-1.88-16z" fill="#f98c96"/><g fill="#f4f4e6"><path d="m25 47h-5l-2-16h5z"/><path d="m39 47h5l2-16h-5z"/><path d="m30 47h4l2-16h-8z"/></g><path d="m44.185 20.009a6 6 0 1 0 -11.114-3.888 5.028 5.028 0 0 0 -1.071-.121 4.949 4.949 0 0 0 -3 1.025 4.986 4.986 0 0 0 -9 2.975 7 7 0 0 0 -7 7h38a7 7 0 0 0 -6.815-6.991z" fill="#d3843d"/><path d="m39 22h-2a1 1 0 0 0 -2 0h-2a3 3 0 0 1 6 0z" fill="#f9bb4b"/><path d="m33 24h-2a1 1 0 0 0 -2 0h-2a3 3 0 0 1 6 0z" fill="#f9bb4b"/><path d="m38 14h2v2h-2z" fill="#f9bb4b"/></svg>