<svg height="511pt" viewBox="-46 0 511 511.99767" width="511pt" xmlns="http://www.w3.org/2000/svg"><path d="m87.824219 388.90625v53.648438c0 10.59375 8.589843 19.183593 19.183593 19.183593s19.183594-8.589843 19.183594-19.183593v-133.660157l46.179688 31.46875v64.601563c0 10.59375 8.589844 19.179687 19.183594 19.179687s19.179687-8.585937 19.179687-19.179687v-38.457032l97.902344 66.710938v49.328125c0 10.597656 8.589843 19.183594 19.183593 19.183594s19.179688-8.589844 19.179688-19.183594v-23.183594l62.636719 42.675781v-423.609374c-145.476563 0-273.820313 73.335937-350.09375 185.050781l28.28125 19.269531v26.148438" fill="#ffe192"/><path d="m409.636719 78.429688v-48.355469c0-11.414063-9.515625-20.539063-20.921875-20.054688-73.054688 3.097657-144.605469 22.394531-209.410156 56.585938-64.792969 34.183593-121.070313 82.328125-164.800782 140.835937-6.84375 9.152344-4.667968 22.167969 4.777344 28.601563l40.265625 27.4375c76.269531-111.714844 204.613281-185.050781 350.089844-185.050781zm0 0" fill="#ff6e37"/><g fill="#ff5a5a"><path d="m226.542969 227.589844c-9.683594-22.507813-35.777344-32.902344-58.285157-23.21875-22.507812 9.683594-32.902343 35.777344-23.21875 58.285156 9.679688 22.507812 35.777344 32.902344 58.285157 23.21875 22.507812-9.679688 32.902343-35.777344 23.21875-58.285156zm0 0"/><path d="m374.675781 248.085938c-9.679687-22.507813-35.777343-32.902344-58.285156-23.21875-22.507813 9.683593-32.902344 35.777343-23.21875 58.285156 9.683594 22.507812 35.777344 32.90625 58.285156 23.222656 22.507813-9.683594 32.902344-35.78125 23.21875-58.289062zm0 0"/><path d="m399.757812 350.613281c-22.503906 9.683594-32.902343 35.777344-23.21875 58.285157 6.136719 14.265624 18.867188 23.65625 33.097657 26.160156v-87.390625c-3.328125.585937-6.640625 1.550781-9.878907 2.945312zm0 0"/><path d="m318.578125 375.507812c-9.683594-22.503906-35.777344-32.902343-58.285156-23.21875-13.398438 5.765626-22.5 17.34375-25.636719 30.515626l68.492188 46.671874c16.984374-11.777343 23.914062-34.25 15.429687-53.96875zm0 0"/><path d="m339.917969 84.152344c-23.941407 3.964844-47.203125 9.9375-69.609375 17.738281-4.179688 10.535156-4.351563 22.664063.484375 33.894531 9.683593 22.507813 35.777343 32.90625 58.285156 23.222656 22.507813-9.683593 32.902344-35.78125 23.21875-58.289062-2.863281-6.652344-7.164063-12.234375-12.378906-16.566406zm0 0"/></g><path d="m410.371094 8.363281c-5.972656-5.726562-13.8125-8.683593-22.078125-8.3359372-74.152344 3.1484372-148.035157 23.1093752-213.65625 57.7343752-65.609375 34.617187-123.753907 84.304687-168.144531 143.691406-4.957032 6.628906-6.9375 14.78125-5.574219 22.949219 1.367187 8.171875 5.886719 15.242187 12.730469 19.90625l40.265624 27.4375s.003907.003906.003907.003906l23.90625 16.289062v20.863282c0 5.523437 4.476562 10 10 10 5.523437 0 10-4.476563 10-10v-26.148438c0-3.308594-1.636719-6.402344-4.367188-8.265625l-19.898437-13.558593c8.820312-12.277344 18.3125-24.042969 28.402344-35.300782 10.371093-11.574218 21.417968-22.597656 33.078124-32.882812 11.222657-9.898438 22.910157-19.25 35.113282-27.917969 12.679687-9.003906 25.867187-17.238281 39.453125-24.804687 13.609375-7.585938 27.726562-14.328126 42.132812-20.265626 1.804688-.742187 3.617188-1.476562 5.433594-2.199218-.097656 7.53125 1.371094 15.058594 4.433594 22.179687 5.738281 13.339844 16.328125 23.648438 29.820312 29.019531 6.511719 2.597657 13.324219 3.890626 20.128907 3.890626 7.292968 0 14.578124-1.488282 21.476562-4.453126 13.339844-5.742187 23.644531-16.332031 29.019531-29.820312 5.375-13.492188 5.171875-28.265625-.566406-41.605469-.765625-1.785156-1.636719-3.519531-2.585937-5.210937 13.519531-1.671875 27.121093-2.667969 40.738281-2.996094v251.40625c-16.238281 5.570312-29.007813 18.683594-34.195313 35.050781-5.742187 18.121094-1.347656 38.421875 11.316406 52.582031 6.175782 6.90625 14.117188 12.152344 22.878907 15.152344v40.371094l-47-32.027344c-3.066407-2.085937-7.03125-2.3125-10.308594-.578125-3.273437 1.734375-5.324219 5.136719-5.324219 8.84375v23.183594c0 5.066406-4.121094 9.183594-9.183594 9.183594s-9.183593-4.121094-9.183593-9.183594v-49.328125c0-1.226562-.226563-2.421875-.644531-3.535156 14.082031-15.480469 18.320312-38.261719 9.773437-58.125-11.84375-27.535156-43.886719-40.300782-71.425781-28.453125-11.386719 4.898437-20.671875 13.601562-26.4375 24.359375l-13.535156-9.222656c-3.0625-2.085938-7.027344-2.308594-10.304688-.578126-3.277344 1.734376-5.328125 5.136719-5.328125 8.839844v38.460938c0 5.0625-4.117187 9.179687-9.179687 9.179687s-9.183594-4.121093-9.183594-9.179687v-64.601563c0-3.308593-1.636719-6.402343-4.367188-8.265625l-46.183594-31.464844c-3.058593-2.085937-7.027343-2.3125-10.304687-.578124-3.277344 1.730468-5.324219 5.136718-5.324219 8.839843v133.660157c0 5.066406-4.121094 9.183593-9.183594 9.183593s-9.179687-4.121093-9.179687-9.183593v-53.648438c0-5.523438-4.480469-10-10.003906-10-5.523438 0-10 4.476562-10 10v53.648438c0 16.09375 13.09375 29.183593 29.183593 29.183593 16.089844 0 29.183594-13.089843 29.183594-29.183593v-114.742188l26.179688 17.835938v59.316406c0 16.089844 13.089844 29.179687 29.183594 29.179687 16.089843 0 29.183593-13.089843 29.183593-29.179687v-19.542969l8.28125 5.644531c.003907 0 .003907.003906.007813.003906l68.492187 46.671876 1.117188.761718v44.042969c0 16.089844 13.089843 29.183594 29.183593 29.183594 16.089844 0 29.183594-13.09375 29.183594-29.183594v-4.273437l47.003906 32.03125c6.523438 4.445312 15.632813-.40625 15.632813-8.265626v-471.960937c-.003906-8.277344-3.292969-15.988281-9.269531-21.714844zm-163.832032 370.4375c3.492188-7.738281 9.703126-13.882812 17.703126-17.324219 17.410156-7.488281 37.660156.578126 45.152343 17.984376 5.539063 12.882812 2.585938 27.707031-6.871093 37.488281l-37-25.210938zm-225.890624-157.6875c-.457032-2.738281.207031-5.464843 1.863281-7.6875 42.625-57.023437 98.457031-104.734375 161.457031-137.976562 63.019531-33.25 133.960938-52.417969 205.167969-55.4375.148437-.007813.296875-.011719.441406-.011719 2.601563 0 5.058594.984375 6.953125 2.800781 2 1.921875 3.101562 4.503907 3.101562 7.273438v38.46875c-15.988281.363281-31.960937 1.628906-47.808593 3.753906-4.519531.609375-9.046875 1.246094-13.542969 1.988281-24.179688 4.003906-48.15625 10.113282-71.261719 18.160156-16.347656 5.691407-32.339843 12.539063-47.914062 20.082032-15.804688 7.648437-31.144531 16.394531-45.84375 25.996094-14.457031 9.445312-28.34375 19.703124-41.617188 30.746093-13.390625 11.144531-26.023437 23.171875-37.992187 35.824219-11.75 12.425781-22.6875 25.640625-32.859375 39.378906-1.273438 1.71875-2.535157 3.445313-3.78125 5.179688l-32.101563-21.875c-2.289062-1.558594-3.804687-3.925782-4.261718-6.664063zm322.820312-90.144531c-3.398438 8.527344-9.910156 15.222656-18.34375 18.851562-8.433594 3.625-17.769531 3.753907-26.296875.355469-8.527344-3.394531-15.222656-9.910156-18.851563-18.34375-3.019531-7.023437-3.609374-14.679687-1.757812-21.96875 15.003906-5.03125 30.316406-9.261719 45.8125-12.480469 4.234375-.878906 8.472656-1.71875 12.726562-2.480468 2.65625 2.851562 4.785157 6.121094 6.351563 9.769531 3.628906 8.433594 3.753906 17.769531.359375 26.296875zm42.257812 273.976562c-3.628906-8.429687-3.753906-17.769531-.359374-26.296874 2.828124-7.097657 7.816406-12.921876 14.269531-16.769532v58.972656c-6.109375-3.652343-11.007813-9.160156-13.910157-15.90625zm0 0"/><path d="m165.671875 295.625c6.511719 2.59375 13.324219 3.886719 20.128906 3.886719 7.292969 0 14.578125-1.484375 21.476563-4.453125 27.535156-11.847656 40.300781-43.890625 28.453125-71.425782-5.738281-13.339843-16.328125-23.648437-29.820313-29.019531-13.488281-5.375-28.265625-5.175781-41.605468.566407-13.339844 5.738281-23.644532 16.328124-29.019532 29.820312-5.375 13.488281-5.171875 28.265625.566406 41.605469 5.738282 13.339843 16.328126 23.644531 29.820313 29.019531zm-11.804687-63.222656c3.394531-8.527344 9.910156-15.222656 18.34375-18.851563 4.359374-1.875 8.964843-2.816406 13.574218-2.816406 4.300782 0 8.605469.820313 12.722656 2.460937 8.527344 3.394532 15.222657 9.910157 18.851563 18.339844 7.488281 17.40625-.582031 37.660156-17.988281 45.148438-8.429688 3.628906-17.769532 3.753906-26.296875.359375-8.527344-3.398438-15.222657-9.914063-18.847657-18.34375-3.628906-8.433594-3.757812-17.773438-.359374-26.296875zm0 0"/><path d="m313.804688 316.117188c6.511718 2.597656 13.324218 3.890624 20.128906 3.890624 7.292968 0 14.578125-1.488281 21.476562-4.457031 13.339844-5.738281 23.644532-16.328125 29.019532-29.816406 5.375-13.492187 5.175781-28.265625-.566407-41.609375-5.738281-13.335938-16.328125-23.644531-29.816406-29.019531-13.492187-5.375-28.269531-5.171875-41.605469.566406-13.339844 5.738281-23.648437 16.328125-29.023437 29.820313-5.371094 13.492187-5.171875 28.265624.566406 41.605468s16.328125 23.648438 29.820313 29.019532zm-11.804688-63.222657c3.394531-8.527343 9.910156-15.21875 18.34375-18.847656 4.359375-1.875 8.964844-2.816406 13.574219-2.816406 4.300781 0 8.605469.816406 12.722656 2.457031 8.527344 3.398438 15.222656 9.914062 18.851563 18.34375 3.625 8.433594 3.753906 17.773438.355468 26.300781-3.398437 8.523438-9.910156 15.21875-18.34375 18.847657-8.429687 3.625-17.769531 3.753906-26.296875.355468-8.527343-3.394531-15.222656-9.910156-18.851562-18.339844-3.625-8.433593-3.75-17.773437-.355469-26.300781zm0 0"/><path d="m87.832031 358.910156c4.230469 0 8.082031-2.777344 9.453125-6.765625 1.375-3.996093.007813-8.613281-3.367187-11.179687-3.238281-2.460938-7.730469-2.707032-11.226563-.632813-3.617187 2.144531-5.503906 6.492188-4.648437 10.605469.957031 4.582031 5.101562 7.972656 9.789062 7.972656zm0 0"/></svg>