<svg id="Capa_1" enable-background="new 0 0 512 512" height="512" viewBox="0 0 512 512" width="512" xmlns="http://www.w3.org/2000/svg"><path d="m381.26 190.339v30.305h41.417c19.526 0 35.356 15.829 35.356 35.356 0 19.526-15.829 35.356-35.356 35.356h-41.417v30.305h41.417c36.263 0 65.66-29.397 65.66-65.661 0-36.263-29.397-65.661-65.66-65.661z" fill="#e3dfe2"/><path d="m477.389 219.448c1.316 5.184 2.02 10.611 2.02 16.204 0 36.263-29.397 65.661-65.66 65.661h-32.325v20.347h41.417c36.263 0 65.661-29.397 65.661-65.661-.002-13.53-4.098-26.102-11.113-36.551z" fill="#d5ced5"/><path d="m239.837 464.094h195.972l20.203-40.407h-216.175-216.174l20.203 40.407z" fill="#fad59a"/><path d="m425.87 423.687-9.33 18.66c-1.711 3.422-5.209 5.584-9.035 5.584h-167.505s-147.747 0-204.053 0l8.081 16.163h195.972 195.972l20.203-40.407z" fill="#f9c36e"/><path d="m239.837 464.094h-154.554l20.203 40.406h134.351 134.352l20.203-40.406z" fill="#fad59a"/><path d="m364.25 464.093-20.203 40.407h30.305l20.203-40.406c0-.001-20.751-.001-30.305-.001z" fill="#f9c36e"/><path d="m239.837 423.687h72.796c39.579 0 73.333-28.665 79.745-67.72l33.329-203.003h-185.87-185.87l33.329 203.003c6.412 39.056 40.167 67.72 79.745 67.72z" fill="#e3dfe2"/><path d="m389.565 152.963-33.329 203.003c-6.412 39.056-40.167 67.72-79.745 67.72h36.305c39.579 0 73.333-28.665 79.745-67.72l33.329-203.003z" fill="#d5ced5"/><path d="m239.837 276.203s2.143-17.857 13.572-29.286c7.389-7.389 14.529-11.731 20.313-14.261-16.635-10.32-43.025-4.457-62.456 14.975-21.697 21.697-26.494 52.078-10.714 67.858 1.647 1.647 3.462 3.057 5.401 4.26 5.784-2.529 12.924-6.871 20.313-14.261 11.429-11.427 13.571-29.285 13.571-29.285z" fill="#da8659"/><path d="m268.409 304.775c21.697-21.697 26.494-52.078 10.714-67.858-1.647-1.647-3.462-3.057-5.401-4.26-5.784 2.529-12.924 6.871-20.313 14.261-11.429 11.429-13.572 29.286-13.572 29.286s-2.143 17.857-13.572 29.286c-7.389 7.389-14.529 11.731-20.313 14.261 16.636 10.319 43.025 4.456 62.457-14.976z" fill="#c56e37"/><path d="m399.78 357.181 4.6-28.021h18.296c40.341 0 73.16-32.82 73.16-73.161 0-38.425-29.783-70.004-67.474-72.918l4.745-28.904c.356-2.172-.26-4.392-1.685-6.07s-3.516-2.645-5.717-2.645h-300.122c-4.143 0-7.5 3.358-7.5 7.5s3.357 7.5 7.5 7.5h291.292l-31.897 194.288c-5.844 35.598-36.27 61.436-72.345 61.436h-145.591c-36.075 0-66.501-25.837-72.345-61.436l-31.897-194.287h27.7c4.143 0 7.5-3.358 7.5-7.5s-3.357-7.5-7.5-7.5h-36.532c-2.201 0-4.292.967-5.717 2.645s-2.041 3.897-1.685 6.07l33.328 203.003c4.089 24.904 18.177 45.826 37.773 59.005h-94.004c-2.6 0-5.014 1.346-6.38 3.557s-1.491 4.972-.328 7.297l20.203 40.406c1.271 2.541 3.867 4.146 6.708 4.146h36.781l18.13 36.261c1.271 2.541 3.867 4.146 6.708 4.146h268.704c2.841 0 5.438-1.605 6.708-4.146l18.13-36.261h36.781c2.841 0 5.438-1.605 6.708-4.146l20.203-40.406c1.163-2.325 1.038-5.086-.328-7.297s-3.78-3.557-6.38-3.557h-94.005c19.597-13.178 33.685-34.1 37.774-59.005zm81.057-101.181c0 32.07-26.091 58.161-58.16 58.161h-15.833l2.513-15.305h13.321c23.631 0 42.855-19.225 42.855-42.855 0-23.38-18.822-42.435-42.108-42.836l2.5-15.229c30.564 1.69 54.912 27.085 54.912 58.064zm-59.872-27.855h1.712c15.359 0 27.855 12.496 27.855 27.855s-12.496 27.855-27.855 27.855h-10.858zm22.912 203.042-12.704 25.406h-275.59c-4.143 0-7.5 3.358-7.5 7.5s3.357 7.5 7.5 7.5h226.674l-12.703 25.407h-259.433l-12.704-25.407h23.098c4.143 0 7.5-3.358 7.5-7.5s-3.357-7.5-7.5-7.5h-72.013l-12.703-25.406z"/><path d="m202 326.124c6.683 4.146 14.52 6.138 22.804 6.138 16.392 0 34.529-7.806 48.908-22.185 11.605-11.606 19.247-25.912 21.516-40.282 2.407-15.249-1.429-28.81-10.802-38.183-1.996-1.996-4.267-3.789-6.749-5.33-.001 0-.002-.001-.003-.001-19.907-12.347-50.066-5.601-71.713 16.045-11.605 11.606-19.247 25.912-21.516 40.282-2.407 15.249 1.429 28.81 10.802 38.183 1.997 1.997 4.268 3.79 6.749 5.33.002.002.003.003.004.003zm78.412-58.667c-1.778 11.263-7.925 22.633-17.307 32.015-11.574 11.575-26.28 17.963-38.802 17.793 2.483-1.969 4.911-4.117 7.266-6.472 13.112-13.112 15.614-32.862 15.712-33.675.02-.154 2.045-15.511 11.432-24.897 4.528-4.529 9.303-8.145 14.233-10.823.301.268.593.541.874.822 5.89 5.891 8.232 14.853 6.592 25.237zm-81.149 17.492c1.778-11.263 7.925-22.633 17.307-32.015 11.575-11.575 26.28-17.963 38.802-17.792-2.482 1.969-4.91 4.117-7.265 6.472-13.112 13.111-15.616 32.861-15.716 33.695-.019.153-2.095 15.543-11.429 24.876-4.527 4.528-9.302 8.144-14.233 10.822-.301-.268-.593-.542-.874-.822-5.89-5.89-8.232-14.852-6.592-25.236z"/><path d="m228.297 118.618c0 4.142 3.357 7.5 7.5 7.5s7.5-3.358 7.5-7.5c0-7.695 1.507-11.149 3.415-15.521 2.187-5.013 4.666-10.695 4.666-21.52s-2.479-16.507-4.666-21.52c-1.908-4.373-3.415-7.826-3.415-15.521 0-7.694 1.507-11.147 3.414-15.519 2.188-5.012 4.667-10.693 4.667-21.518 0-4.142-3.357-7.5-7.5-7.5s-7.5 3.358-7.5 7.5c0 7.694-1.507 11.147-3.414 15.519-2.188 5.012-4.667 10.693-4.667 21.518s2.479 16.507 4.666 21.52c1.908 4.373 3.415 7.826 3.415 15.521s-1.507 11.149-3.415 15.521c-2.187 5.013-4.666 10.694-4.666 21.52z"/><path d="m299.008 118.618c0 4.142 3.357 7.5 7.5 7.5s7.5-3.358 7.5-7.5c0-4.443 1.103-6.234 2.929-9.201 2.296-3.731 5.153-8.375 5.153-17.064s-2.857-13.333-5.153-17.063c-1.826-2.968-2.929-4.759-2.929-9.202 0-4.442 1.103-6.233 2.928-9.2 2.297-3.73 5.154-8.374 5.154-17.062 0-4.142-3.357-7.5-7.5-7.5s-7.5 3.358-7.5 7.5c0 4.442-1.103 6.233-2.928 9.2-2.297 3.73-5.154 8.374-5.154 17.062 0 8.689 2.857 13.333 5.153 17.063 1.826 2.968 2.929 4.759 2.929 9.202s-1.103 6.234-2.929 9.202c-2.296 3.731-5.153 8.374-5.153 17.063z"/><path d="m157.585 118.618c0 4.142 3.357 7.5 7.5 7.5s7.5-3.358 7.5-7.5c0-4.443 1.103-6.234 2.929-9.201 2.296-3.731 5.153-8.375 5.153-17.064s-2.857-13.333-5.153-17.063c-1.826-2.968-2.929-4.759-2.929-9.202 0-4.442 1.103-6.233 2.928-9.2 2.297-3.73 5.154-8.374 5.154-17.062 0-4.142-3.357-7.5-7.5-7.5s-7.5 3.358-7.5 7.5c0 4.442-1.103 6.233-2.928 9.2-2.297 3.73-5.154 8.374-5.154 17.062 0 8.689 2.857 13.333 5.153 17.063 1.826 2.968 2.929 4.759 2.929 9.202s-1.103 6.234-2.929 9.202c-2.296 3.731-5.153 8.374-5.153 17.063z"/></svg>