<?xml version="1.0" encoding="iso-8859-1"?>
<!-- Generator: Adobe Illustrator 18.0.0, SVG Export Plug-In . SVG Version: 6.00 Build 0)  -->
<!DOCTYPE svg PUBLIC "-//W3C//DTD SVG 1.1//EN" "http://www.w3.org/Graphics/SVG/1.1/DTD/svg11.dtd">
<svg version="1.1" id="Capa_1" xmlns="http://www.w3.org/2000/svg" xmlns:xlink="http://www.w3.org/1999/xlink" x="0px" y="0px"
	 viewBox="0 0 330.754 330.754" style="enable-background:new 0 0 330.754 330.754;" xml:space="preserve">
<g>
	<path style="fill:#EF8829;" d="M93.119,193.979c-5.194-3.871-9.297-6.929-18.1-6.929s-12.906,3.058-18.1,6.929
		c-2.666,1.987-5.637,4.184-9.345,6.007c0.709,0.094,1.427,0.158,2.162,0.158h53.04C98.922,198.291,95.86,196.022,93.119,193.979z"
		/>
	<path style="fill:#EF8829;" d="M183.481,193.979c-5.194-3.871-9.297-6.929-18.098-6.929c-8.801,0-12.903,3.058-18.097,6.929
		c-2.741,2.043-5.802,4.312-9.655,6.165h55.505C189.283,198.291,186.221,196.022,183.481,193.979z"/>
	<path style="fill:#EF8829;" d="M255.742,187.05c-8.801,0-12.904,3.058-18.097,6.929c-2.741,2.043-5.802,4.312-9.655,6.165h53.028
		c0.731,0,1.448-0.065,2.154-0.158c-3.704-1.822-6.669-4.022-9.334-6.008C268.645,190.108,264.543,187.05,255.742,187.05z"/>
	<path style="fill:#84BD93;" d="M281.018,166.777H64.77c-8.373,0-15.292,6.48-16.333,14.573c-0.168,0.124-0.338,0.351-0.503,0.474
		c5.923-4.414,13.295-9.858,27.084-9.858s21.161,5.519,27.085,9.934c5.194,3.871,9.297,6.942,18.1,6.942
		c8.801,0,12.903-3.052,18.097-6.923c5.923-4.415,13.294-9.906,27.082-9.906c13.79,0,21.16,5.496,27.084,9.911
		c5.193,3.871,9.295,6.93,18.097,6.93c8.801,0,12.903-3.057,18.096-6.928c5.924-4.415,13.294-9.909,27.083-9.909
		c13.788,0,21.159,5.495,27.082,9.909c4.295,3.201,7.85,5.839,13.924,6.66c0.488-1.555,0.753-3.41,0.753-5.125
		C297.501,174.372,290.106,166.777,281.018,166.777z"/>
	<g>
		<path style="fill:#CE593F;" d="M292.964,216.151c0.311,0.122,0.61,0.268,0.91,0.412
			C293.572,216.419,293.276,216.274,292.964,216.151z"/>
		<path style="fill:#CE593F;" d="M295.166,217.266c0.302,0.188,0.599,0.383,0.885,0.593
			C295.764,217.648,295.47,217.454,295.166,217.266z"/>
		<path style="fill:#CE593F;" d="M298.782,220.533c0.23,0.296,0.481,0.576,0.686,0.89
			C299.262,221.108,299.013,220.829,298.782,220.533z"/>
		<path style="fill:#CE593F;" d="M300.355,223.055c0.238,0.5,0.429,1.021,0.606,1.552
			C300.783,224.075,300.594,223.555,300.355,223.055z"/>
		<path style="fill:#CE593F;" d="M290.549,215.44c0.28,0.054,0.544,0.145,0.818,0.215
			C291.093,215.584,290.829,215.493,290.549,215.44z"/>
		<path style="fill:#CE593F;" d="M297.925,219.494c-0.256-0.269-0.533-0.51-0.81-0.758
			C297.39,218.984,297.67,219.226,297.925,219.494z"/>
		<path style="fill:#CE593F;" d="M29.504,232.339c-0.071-0.274-0.162-0.54-0.217-0.82C29.342,231.8,29.433,232.064,29.504,232.339z"
			/>
		<path style="fill:#CE593F;" d="M38.46,241.932c-0.543-0.182-1.077-0.379-1.588-0.625C37.385,241.553,37.916,241.75,38.46,241.932z
			"/>
		<path style="fill:#CE593F;" d="M35.273,240.438c-0.317-0.207-0.598-0.459-0.897-0.691C34.675,239.98,34.956,240.23,35.273,240.438
			z"/>
		<path style="fill:#CE593F;" d="M301.275,224.904c-1.055-0.26-2.152-1.127-3.286-1.127H52.809c-7.587,0-13.76,6.884-13.76,14.47
			c0,1.134,0.155,2.627,0.416,3.682c1.069,0.268,2.171,0.848,3.322,0.848h245.181c7.587,0,13.76-6.569,13.76-14.156
			C301.727,227.47,301.542,225.973,301.275,224.904z"/>
		<path style="fill:#CE593F;" d="M32.583,238.082c0.249,0.278,0.49,0.556,0.76,0.813C33.074,238.64,32.831,238.358,32.583,238.082z"
			/>
		<path style="fill:#CE593F;" d="M30.413,234.846c-0.145-0.301-0.291-0.601-0.414-0.914
			C30.122,234.246,30.268,234.543,30.413,234.846z"/>
		<path style="fill:#CE593F;" d="M31.708,237.022c-0.211-0.288-0.407-0.586-0.596-0.889
			C31.302,236.438,31.496,236.734,31.708,237.022z"/>
	</g>
	<path style="fill:#FDD44B;" d="M298.687,257.777H47.101c-15.847,0-17.033,3.841-17.033,10.564c0,11.581,7.64,20.436,17.033,20.436
		h251.585c9.391,0,17.033-8.855,17.033-20.436C315.719,261.618,314.533,257.777,298.687,257.777z"/>
	<g>
		<path style="fill:#FDD44B;" d="M21.737,144.704c0.142,0.148,0.275,0.305,0.42,0.449C22.011,145.009,21.879,144.852,21.737,144.704
			z"/>
		<path style="fill:#FDD44B;" d="M277.745,70.461c0.499,0.327,0.978,0.66,1.467,0.99C278.723,71.121,278.244,70.787,277.745,70.461z
			"/>
		<path style="fill:#FDD44B;" d="M15.625,133.32c-0.057-0.254-0.11-0.509-0.158-0.765C15.515,132.811,15.568,133.066,15.625,133.32z
			"/>
		<path style="fill:#FDD44B;" d="M15.234,131.037c-0.029-0.232-0.064-0.463-0.085-0.697
			C15.17,130.575,15.206,130.805,15.234,131.037z"/>
		<path style="fill:#FDD44B;" d="M296.143,85.362c-0.373-0.379-0.726-0.764-1.109-1.141
			C295.417,84.597,295.77,84.982,296.143,85.362z"/>
		<path style="fill:#FDD44B;" d="M298.247,87.557c0.467,0.508,0.909,1.023,1.357,1.535
			C299.155,88.579,298.713,88.065,298.247,87.557z"/>
		<path style="fill:#FDD44B;" d="M286.268,76.574c0.541,0.424,1.082,0.848,1.608,1.276C287.35,77.422,286.809,76.998,286.268,76.574
			z"/>
		<path style="fill:#FDD44B;" d="M16.197,135.451c-0.074-0.227-0.135-0.46-0.202-0.691
			C16.062,134.991,16.124,135.223,16.197,135.451z"/>
		<path style="fill:#FDD44B;" d="M290.265,79.863c0.468,0.405,0.95,0.805,1.407,1.214C291.215,80.668,290.733,80.268,290.265,79.863
			z"/>
		<path style="fill:#FDD44B;" d="M282.118,73.461c0.556,0.398,1.102,0.8,1.645,1.203C283.219,74.261,282.674,73.859,282.118,73.461z
			"/>
		<path style="fill:#FDD44B;" d="M26.098,148.303c-0.261-0.168-0.519-0.337-0.772-0.515
			C25.579,147.966,25.838,148.135,26.098,148.303z"/>
		<path style="fill:#FDD44B;" d="M16.943,137.475c-0.037-0.088-0.066-0.18-0.102-0.268
			C16.877,137.295,16.906,137.387,16.943,137.475z"/>
		<path style="fill:#FDD44B;" d="M29.867,150.3c-0.25-0.104-0.489-0.227-0.735-0.339C29.378,150.073,29.618,150.196,29.867,150.3z"
			/>
		<path style="fill:#FDD44B;" d="M300.57,90.225c-3.804-2.93-7.935-5.748-12.404-8.429c-28.665-17.199-66.933-26.67-107.755-26.67
			c-40.824,0-79.093,9.472-107.757,26.67c-27.462,16.477-42.586,37.973-42.586,60.528c0,3.045,0.574,5.273,1.611,7.956
			c2.337,0.759,4.823,0.496,7.409,0.496h252.576c13.263,0,24.054-10.108,24.054-23.373
			C315.719,114.146,310.456,101.947,300.57,90.225z M85.442,120.778c-1.393,1.393-3.338,2.194-5.312,2.194
			c-1.974,0-3.909-0.801-5.312-2.194c-1.403-1.404-2.205-3.338-2.205-5.323c0-1.974,0.802-3.908,2.205-5.312
			c1.403-1.404,3.338-2.205,5.312-2.205c1.975,0,3.919,0.801,5.312,2.205c1.403,1.403,2.205,3.338,2.205,5.312
			C87.647,117.44,86.845,119.374,85.442,120.778z M130.294,82.891c-1.393,1.394-3.328,2.196-5.312,2.196
			c-1.975,0-3.909-0.801-5.312-2.196c-1.403-1.402-2.204-3.337-2.204-5.321c0-1.974,0.801-3.919,2.204-5.312
			c1.394-1.404,3.338-2.205,5.312-2.205c1.984,0,3.919,0.802,5.312,2.205c1.403,1.393,2.205,3.338,2.205,5.312
			C132.499,79.554,131.697,81.488,130.294,82.891z M170.696,120.778c-1.404,1.393-3.348,2.194-5.323,2.194
			c-1.974,0-3.908-0.801-5.312-2.194c-1.403-1.404-2.205-3.338-2.205-5.323c0-1.974,0.802-3.908,2.205-5.312
			c1.403-1.404,3.338-2.205,5.312-2.205c1.975,0,3.919,0.801,5.323,2.205c1.394,1.403,2.194,3.338,2.194,5.312
			C172.89,117.44,172.09,119.374,170.696,120.778z M211.078,82.891c-1.393,1.394-3.327,2.196-5.312,2.196
			c-1.975,0-3.909-0.801-5.313-2.196c-1.403-1.402-2.204-3.337-2.204-5.321c0-1.974,0.801-3.919,2.204-5.312
			c1.403-1.404,3.338-2.205,5.313-2.205c1.985,0,3.919,0.802,5.312,2.205c1.403,1.393,2.205,3.338,2.205,5.312
			C213.283,79.554,212.481,81.488,211.078,82.891z M255.93,120.778c-1.393,1.393-3.327,2.194-5.312,2.194
			c-1.975,0-3.909-0.801-5.313-2.194c-1.402-1.404-2.204-3.338-2.204-5.323c0-1.974,0.802-3.908,2.204-5.312
			c1.404-1.404,3.338-2.205,5.313-2.205c1.985,0,3.919,0.801,5.312,2.205c1.402,1.403,2.205,3.338,2.205,5.312
			C258.135,117.44,257.332,119.374,255.93,120.778z"/>
		<path style="fill:#FDD44B;" d="M27.944,149.387c-0.276-0.145-0.545-0.301-0.815-0.456
			C27.399,149.086,27.668,149.242,27.944,149.387z"/>
		<path style="fill:#FDD44B;" d="M18.219,139.999c-0.12-0.209-0.246-0.413-0.359-0.625
			C17.973,139.587,18.099,139.791,18.219,139.999z"/>
		<path style="fill:#FDD44B;" d="M19.418,141.89c-0.16-0.226-0.317-0.455-0.468-0.687C19.102,141.435,19.259,141.663,19.418,141.89z
			"/>
		<path style="fill:#FDD44B;" d="M24.301,147.021c-0.217-0.17-0.44-0.334-0.651-0.511C23.862,146.688,24.083,146.851,24.301,147.021
			z"/>
		<path style="fill:#FDD44B;" d="M20.727,143.593c-0.177-0.21-0.345-0.427-0.515-0.643C20.382,143.166,20.55,143.383,20.727,143.593
			z"/>
	</g>
	<path style="fill:#3F2D20;" d="M80.13,107.938c-1.975,0-3.909,0.802-5.312,2.205c-1.403,1.404-2.205,3.338-2.205,5.312
		c0,1.985,0.801,3.919,2.205,5.323c1.403,1.393,3.338,2.194,5.312,2.194c1.974,0,3.919-0.801,5.312-2.194
		c1.403-1.404,2.205-3.338,2.205-5.323c0-1.974-0.802-3.908-2.205-5.312C84.048,108.74,82.104,107.938,80.13,107.938z"/>
	<path style="fill:#3F2D20;" d="M165.373,107.938c-1.974,0-3.908,0.802-5.311,2.205c-1.404,1.404-2.205,3.338-2.205,5.312
		c0,1.985,0.802,3.919,2.205,5.323c1.403,1.393,3.338,2.194,5.311,2.194c1.975,0,3.919-0.801,5.323-2.194
		c1.394-1.404,2.195-3.338,2.195-5.323c0-1.974-0.801-3.908-2.195-5.312C169.292,108.74,167.348,107.938,165.373,107.938z"/>
	<path style="fill:#3F2D20;" d="M250.618,107.938c-1.975,0-3.909,0.802-5.313,2.205c-1.402,1.404-2.204,3.338-2.204,5.312
		c0,1.985,0.802,3.919,2.204,5.323c1.404,1.393,3.338,2.194,5.313,2.194c1.985,0,3.919-0.801,5.312-2.194
		c1.403-1.404,2.205-3.338,2.205-5.323c0-1.974-0.802-3.908-2.205-5.312C254.537,108.74,252.603,107.938,250.618,107.938z"/>
	<path style="fill:#3F2D20;" d="M124.982,70.052c-1.975,0-3.919,0.801-5.312,2.205c-1.403,1.393-2.205,3.338-2.205,5.312
		c0,1.985,0.802,3.919,2.205,5.322c1.403,1.394,3.338,2.195,5.312,2.195c1.984,0,3.919-0.801,5.312-2.195
		c1.403-1.403,2.205-3.337,2.205-5.322c0-1.974-0.802-3.919-2.205-5.312C128.9,70.854,126.966,70.052,124.982,70.052z"/>
	<path style="fill:#3F2D20;" d="M205.766,70.052c-1.975,0-3.909,0.801-5.313,2.205c-1.402,1.393-2.204,3.338-2.204,5.312
		c0,1.985,0.802,3.919,2.204,5.322c1.404,1.394,3.338,2.195,5.313,2.195c1.985,0,3.919-0.801,5.312-2.195
		c1.403-1.403,2.205-3.337,2.205-5.322c0-1.974-0.803-3.919-2.205-5.312C209.685,70.854,207.751,70.052,205.766,70.052z"/>
	<path style="fill:#3F2D20;" d="M312.417,244.104c2.746-4.409,4.344-9.602,4.344-15.167c0-9.906-5.031-18.66-12.669-23.842
		c5.233-5.628,8.444-13.16,8.444-21.433c0-7.227-2.45-13.888-6.557-19.209c14.492-5.726,24.775-19.862,24.775-36.364
		c0-28.044-17.717-54.118-49.886-73.42c-30.967-18.58-71.983-28.813-115.49-28.813c-43.509,0-84.525,10.232-115.492,28.813
		C17.716,73.969,0,100.043,0,128.088c0,16.502,10.283,30.639,24.774,36.364c-4.108,5.321-6.556,11.982-6.556,19.209
		c0,8.274,3.215,15.803,8.448,21.43c-7.642,5.183-12.674,13.937-12.674,23.845c0,5.566,1.598,10.759,4.344,15.167
		C9.359,246.423,0,252.569,0,268.861c0,19.872,14.385,36.037,32.067,36.037h266.619c17.682,0,32.067-16.166,32.067-36.037
		C330.754,252.567,321.394,246.423,312.417,244.104z M298.686,289.864H32.067c-9.392,0-17.033-9.422-17.033-21.003
		c0-6.723,1.186-11.131,17.033-11.131h266.619c15.847,0,17.033,4.407,17.033,11.131
		C315.719,280.442,308.078,289.864,298.686,289.864z M281.018,200.144H227.99c3.852-1.854,6.914-4.123,9.655-6.165
		c5.193-3.871,9.296-6.929,18.097-6.929c8.801,0,12.903,3.058,18.097,6.929c2.664,1.986,5.63,4.185,9.334,6.008
		C282.466,200.08,281.749,200.144,281.018,200.144z M137.631,200.144c3.853-1.854,6.914-4.123,9.655-6.165
		c5.193-3.871,9.296-6.929,18.097-6.929c8.801,0,12.904,3.058,18.098,6.929c2.74,2.043,5.802,4.312,9.655,6.165H137.631z
		 M49.736,200.144c-0.735,0-1.453-0.065-2.162-0.158c3.708-1.823,6.679-4.02,9.345-6.007c5.194-3.871,9.297-6.929,18.1-6.929
		s12.906,3.058,18.1,6.929c2.741,2.043,5.803,4.312,9.656,6.165H49.736z M296.748,188.585c-6.074-0.82-9.629-3.459-13.924-6.66
		c-5.923-4.414-13.294-9.909-27.082-9.909c-13.788,0-21.159,5.494-27.082,9.909c-5.194,3.871-9.296,6.929-18.097,6.929
		c-8.801,0-12.903-3.058-18.097-6.929c-5.924-4.415-13.294-9.909-27.083-9.909c-13.788,0-21.159,5.494-27.082,9.909
		c-5.194,3.871-9.296,6.929-18.097,6.929c-8.803,0-12.906-3.058-18.1-6.929c-5.924-4.415-13.295-9.909-27.085-9.909
		c-13.789,0-21.161,5.494-27.085,9.908c-4.295,3.202-7.852,5.842-13.93,6.661c-0.488-1.555-0.753-3.209-0.753-4.924
		c0-9.088,7.395-16.482,16.484-16.482h231.282c9.088,0,16.483,7.394,16.483,16.482C297.501,185.375,297.236,187.03,296.748,188.585z
		 M291.665,152.144H39.089c-13.264,0-24.055-10.792-24.055-24.057c0-22.555,15.124-44.051,42.586-60.528
		c28.664-17.198,66.933-26.67,107.757-26.67c40.822,0,79.09,9.472,107.755,26.67c27.463,16.477,42.587,37.973,42.587,60.528
		C315.719,141.352,304.928,152.144,291.665,152.144z M42.786,215.179h245.18c7.588,0,13.76,6.171,13.76,13.758
		c0,7.588-6.172,13.76-13.76,13.76H42.786c-7.587,0-13.76-6.172-13.76-13.76C29.027,221.35,35.199,215.179,42.786,215.179z"/>
</g>
<g>
</g>
<g>
</g>
<g>
</g>
<g>
</g>
<g>
</g>
<g>
</g>
<g>
</g>
<g>
</g>
<g>
</g>
<g>
</g>
<g>
</g>
<g>
</g>
<g>
</g>
<g>
</g>
<g>
</g>
</svg>
