<svg height="512pt" viewBox="0 0 512 512" width="512pt" xmlns="http://www.w3.org/2000/svg"><path d="m432 0h-352c-44.160156.0546875-79.9453125 35.839844-80 80v352c.0546875 44.160156 35.839844 79.945312 80 80h352c44.160156-.054688 79.945312-35.839844 80-80v-352c-.054688-44.160156-35.839844-79.9453125-80-80zm48 432c0 26.507812-21.492188 48-48 48h-352c-26.507812 0-48-21.492188-48-48v-352c0-26.507812 21.492188-48 48-48h352c26.507812 0 48 21.492188 48 48zm0 0"/><path d="m208 80h-96c-17.671875 0-32 14.328125-32 32v96c0 17.671875 14.328125 32 32 32h96c17.671875 0 32-14.328125 32-32v-96c0-17.671875-14.328125-32-32-32zm-96 128v-96h96v96zm0 0"/><path d="m400 80h-96c-17.671875 0-32 14.328125-32 32v96c0 17.671875 14.328125 32 32 32h96c17.671875 0 32-14.328125 32-32v-96c0-17.671875-14.328125-32-32-32zm-96 128v-96h96v96zm0 0"/><path d="m400 272h-96c-17.671875 0-32 14.328125-32 32v96c0 17.671875 14.328125 32 32 32h96c17.671875 0 32-14.328125 32-32v-96c0-17.671875-14.328125-32-32-32zm-96 128v-96h96v96zm0 0"/><path d="m208 272h-96c-17.671875 0-32 14.328125-32 32v96c0 17.671875 14.328125 32 32 32h96c17.671875 0 32-14.328125 32-32v-96c0-17.671875-14.328125-32-32-32zm-96 128v-96h96v96zm0 0"/></svg>