<?xml version='1.0' encoding='utf-8'?>
<!DOCTYPE svg PUBLIC '-//W3C//DTD SVG 1.1//EN' 'http://www.w3.org/Graphics/SVG/1.1/DTD/svg11.dtd'>
<svg version="1.1" xmlns="http://www.w3.org/2000/svg" viewBox="0 0 512 512" xmlns:xlink="http://www.w3.org/1999/xlink" enable-background="new 0 0 512 512">
  <g>
    <g>
      <path d="m485.7,198.5c-10.7-13.4-25.3-20.8-41.1-20.8h-36.1c-3.4-92.6-70.5-166.7-152.5-166.7-82,0-149.1,74.1-152.5,166.7h-36.1c-15.8,0-30.4,7.4-41.1,20.8-13.5,16.8-18.4,40.2-13.3,62.7l43.3,190.8c6.5,28.8 28.9,49 54.4,49h290.5c25.5,0 47.9-20.1 54.4-49l43.4-190.8c5.1-22.5 0.2-45.9-13.3-62.7zm-229.7-146.7c59.6-1.42109e-14 108.4,55.8 111.6,125.9h-223.2c3.2-70 52-125.9 111.6-125.9zm203.2,200.3l-43.3,190.9c-2.2,9.8-8.5,17.2-14.6,17.2h-290.6c-6.1,0-12.4-7.4-14.6-17.2l-43.3-190.9c-2.3-10.1-3.7-33.6 14.6-33.6h377.2c19.7,0 16.9,23.5 14.6,33.6z"/>
      <path d="m154.7,259.1c-11.3,0-20.4,9.1-20.4,20.4v127.5c0,11.3 9.1,20.4 20.4,20.4 11.3,0 20.4-9.1 20.4-20.4v-127.5c0.1-11.2-9.1-20.4-20.4-20.4z"/>
      <path d="m253.6,259.1c-11.3,0-20.4,9.1-20.4,20.4v127.5c0,11.3 9.1,20.4 20.4,20.4 11.3,0 20.4-9.1 20.4-20.4v-127.5c0-11.2-9.2-20.4-20.4-20.4z"/>
      <path d="m352.4,259.1c-11.3,0-20.4,9.1-20.4,20.4v127.5c0,11.3 9.1,20.4 20.4,20.4 11.3,0 20.4-9.1 20.4-20.4v-127.5c5.68434e-14-11.2-9.1-20.4-20.4-20.4z"/>
    </g>
  </g>
</svg>
