<?xml version="1.0" encoding="iso-8859-1"?>
<!-- Generator: Adobe Illustrator 18.1.1, SVG Export Plug-In . SVG Version: 6.00 Build 0)  -->
<svg version="1.1" id="Capa_1" xmlns="http://www.w3.org/2000/svg" xmlns:xlink="http://www.w3.org/1999/xlink" x="0px" y="0px"
	 viewBox="0 0 40.911 40.911" style="enable-background:new 0 0 40.911 40.911;" xml:space="preserve">
<g>
	<path style="fill:#010002;" d="M5.866,10.106l7.068,2.377c0.582,0.255,3.346,1.266,8.247,0.051
		c6.191-1.536,19.595-4.196,19.73-4.224l-0.499-2.519c-0.005,0.001-0.042,0.008-0.089,0.018L27.548,4.008
		c-1.405-0.198-3.673-0.14-5.066,0.131L5.403,7.452c-2.222-0.115-4.335,1.25-5.043,3.463c-0.408,1.277-0.294,2.638,0.32,3.827
		c0.314,0.608,0.742,1.133,1.253,1.559c-0.769,0.6-1.373,1.426-1.692,2.422c-0.407,1.277-0.293,2.638,0.32,3.828
		c0.333,0.644,0.797,1.187,1.347,1.622c-0.757,0.598-1.352,1.42-1.668,2.405c-0.407,1.277-0.293,2.637,0.32,3.827
		c0.615,1.191,1.656,2.071,2.932,2.479l12.313,3.937c0.676,0.216,1.784,0.264,2.476,0.104l21.615-4.952c0,0-0.129-0.56-0.287-1.251
		c-0.158-0.691-0.847-1.124-1.539-0.965l-19.678,4.506c-0.691,0.159-1.799,0.111-2.476-0.104L4.275,30.438
		c-0.623-0.198-1.132-0.63-1.431-1.21c-0.3-0.58-0.356-1.244-0.156-1.866c0.411-1.287,1.792-1.992,3.079-1.589
		c0.003-0.012,7.123,2.263,10.039,3.192c0.676,0.216,1.784,0.264,2.476,0.104l21.615-4.951c0,0-0.129-0.561-0.287-1.252
		c-0.158-0.691-0.847-1.124-1.539-0.965l-19.678,4.507c-0.691,0.158-1.799,0.11-2.476-0.104L4.275,22.582
		c-0.623-0.198-1.132-0.63-1.431-1.21c-0.3-0.58-0.356-1.244-0.156-1.866c0.411-1.287,1.792-1.993,3.079-1.589
		c0.001-0.004,7.219,2.303,10.158,3.241c0.675,0.216,1.784,0.264,2.475,0.104l21.615-4.952c0,0-0.129-0.559-0.287-1.252
		c-0.159-0.69-0.848-1.124-1.539-0.964l-19.678,4.505c-0.691,0.16-1.799,0.112-2.476-0.104L4.393,14.774
		c-0.623-0.199-1.132-0.63-1.431-1.211c-0.3-0.58-0.356-1.244-0.156-1.866C3.217,10.412,4.597,9.696,5.866,10.106z"/>
</g>
<g>
</g>
<g>
</g>
<g>
</g>
<g>
</g>
<g>
</g>
<g>
</g>
<g>
</g>
<g>
</g>
<g>
</g>
<g>
</g>
<g>
</g>
<g>
</g>
<g>
</g>
<g>
</g>
<g>
</g>
</svg>
