<?xml version="1.0" encoding="iso-8859-1"?>
<!-- Generator: Adobe Illustrator 19.0.0, SVG Export Plug-In . SVG Version: 6.00 Build 0)  -->
<svg version="1.1" id="Capa_1" xmlns="http://www.w3.org/2000/svg" xmlns:xlink="http://www.w3.org/1999/xlink" x="0px" y="0px"
	 viewBox="0 0 512 512" style="enable-background:new 0 0 512 512;" xml:space="preserve">
<g>
	<g>
		<path d="M469.51,317c7.14-7.97,11.49-18.49,11.49-30c0-24.81-20.19-45-45-45h-87.34c8.65-26.25,12.34-61.08,12.34-76.01V151
			c0-33.08-26.92-60-60-60h-15c-6.88,0-12.88,4.68-14.55,11.36l-8.17,32.69c-11.45,45.78-47.8,96.29-85.42,105.47
			C171.27,223.84,155,212,136,212H46c-8.28,0-15,6.72-15,15v270c0,8.28,6.72,15,15,15h90c17.89,0,33.37-10.49,40.62-25.65
			l51.54,17.18c16.85,5.62,34.41,8.47,52.18,8.47H406c24.81,0,45-20.19,45-45c0-5.85-1.12-11.45-3.16-16.58
			C466.92,445.21,481,427.72,481,407c0-11.51-4.35-22.03-11.49-30c7.14-7.97,11.49-18.49,11.49-30S476.65,324.97,469.51,317z
			 M151,467c0,8.27-6.73,15-15,15H61V242h75c8.27,0,15,6.73,15,15V467z M406,332h30c8.27,0,15,6.73,15,15c0,8.27-6.73,15-15,15h-30
			c-8.28,0-15,6.72-15,15c0,8.28,6.72,15,15,15h30c8.27,0,15,6.73,15,15c0,8.27-6.73,15-15,15h-30c-8.28,0-15,6.72-15,15
			c0,8.28,6.72,15,15,15c8.27,0,15,6.73,15,15c0,8.27-6.73,15-15,15H280.34c-14.54,0-28.91-2.33-42.7-6.93L181,456.19V270.58
			c23.53-4.47,46.56-19.37,67.35-43.76c20.3-23.82,36.76-55.4,44.03-84.49l5.33-21.33H301c16.54,0,30,13.46,30,30v14.99
			c0,20.14-6.3,58.77-14.36,76.01H286c-8.28,0-15,6.72-15,15c0,8.28,6.72,15,15,15h150c8.27,0,15,6.73,15,15c0,8.27-6.73,15-15,15
			h-30c-8.28,0-15,6.72-15,15C391,325.28,397.72,332,406,332z"/>
	</g>
</g>
<g>
	<g>
		<circle cx="106" cy="437" r="15"/>
	</g>
</g>
<g>
	<g>
		<path d="M316,0c-8.284,0-15,6.716-15,15v31c0,8.284,6.716,15,15,15s15-6.716,15-15V15C331,6.716,324.284,0,316,0z"/>
	</g>
</g>
<g>
	<g>
		<path d="M252.36,66.148l-21.213-21.213c-5.857-5.858-15.355-5.858-21.213,0c-5.858,5.858-5.858,15.355,0,21.213l21.213,21.213
			c5.857,5.857,15.356,5.858,21.213,0C258.218,81.503,258.218,72.006,252.36,66.148z"/>
	</g>
</g>
<g>
	<g>
		<path d="M422.066,44.935c-5.857-5.858-15.355-5.858-21.213,0L379.64,66.147c-5.858,5.858-5.858,15.355,0,21.213
			c5.857,5.858,15.355,5.859,21.213,0.001l21.213-21.213C427.924,60.29,427.924,50.793,422.066,44.935z"/>
	</g>
</g>
<g>
</g>
<g>
</g>
<g>
</g>
<g>
</g>
<g>
</g>
<g>
</g>
<g>
</g>
<g>
</g>
<g>
</g>
<g>
</g>
<g>
</g>
<g>
</g>
<g>
</g>
<g>
</g>
<g>
</g>
</svg>
