<?xml version="1.0" encoding="iso-8859-1"?>
<!-- Generator: Adobe Illustrator 19.0.0, SVG Export Plug-In . SVG Version: 6.00 Build 0)  -->
<svg version="1.1" id="Layer_1" xmlns="http://www.w3.org/2000/svg" xmlns:xlink="http://www.w3.org/1999/xlink" x="0px" y="0px"
	 viewBox="0 0 512 512" style="enable-background:new 0 0 512 512;" xml:space="preserve">
<g>
	<g>
		<g>
			<path d="M17.067,256C17.067,124.254,124.245,17.067,256,17.067c73.958,0,143.164,34.825,188.22,93.867h-51.686
				c-4.719,0-8.533,3.823-8.533,8.533s3.814,8.533,8.533,8.533H460.8c0.264,0,0.495-0.128,0.751-0.154
				c0.572-0.043,1.109-0.171,1.664-0.333c0.572-0.171,1.084-0.375,1.596-0.649c0.23-0.119,0.486-0.137,0.708-0.29
				c0.239-0.154,0.367-0.401,0.58-0.58c0.461-0.367,0.862-0.768,1.229-1.22c0.341-0.427,0.64-0.853,0.888-1.323
				c0.256-0.478,0.452-0.956,0.606-1.476c0.179-0.563,0.299-1.109,0.341-1.707c0.034-0.273,0.171-0.521,0.171-0.802V51.2
				c0-4.71-3.814-8.533-8.533-8.533c-4.719,0-8.533,3.823-8.533,8.533v42.513C403.959,34.662,332.373,0,256,0
				C114.842,0,0,114.842,0,256c0,27.162,4.224,53.879,12.553,79.411c1.169,3.61,4.523,5.897,8.115,5.897
				c0.87,0,1.766-0.145,2.645-0.427c4.48-1.468,6.929-6.281,5.47-10.76C21.009,306.295,17.067,281.361,17.067,256z"/>
			<path d="M227.174,426.035c1.05,0.427,2.142,0.631,3.226,0.631c2.807,0,5.53-1.399,7.151-3.874l128-196.267
				c1.852-2.833,1.843-6.494-0.009-9.327c-1.86-2.833-5.222-4.326-8.542-3.746l-90.505,15.078l23.501-133.18
				c0.717-4.053-1.553-8.038-5.41-9.481c-3.831-1.425-8.183,0.077-10.3,3.601l-128,213.333c-1.724,2.859-1.613,6.443,0.265,9.199
				c1.869,2.748,5.18,4.156,8.448,3.61l90.206-15.027l-23.177,115.874C221.235,420.471,223.386,424.491,227.174,426.035z
				 M170.428,295.748l94.746-157.926l-17.57,99.627c-0.486,2.731,0.384,5.521,2.33,7.492c1.954,1.971,4.736,2.876,7.467,2.406
				l83.243-13.867l-93.184,142.874l16.905-84.548c0.555-2.748-0.282-5.589-2.227-7.612c-1.63-1.673-3.84-2.594-6.135-2.594
				c-0.469,0-0.93,0.034-1.399,0.119L170.428,295.748z"/>
			<path d="M498.961,175.13c-1.493-4.471-6.306-6.895-10.803-5.393c-4.463,1.485-6.886,6.315-5.402,10.786
				c8.081,24.252,12.177,49.647,12.177,75.477c0,131.746-107.179,238.933-238.933,238.933c-73.941,0-143.147-34.816-188.22-93.867
				h51.686c4.719,0,8.533-3.823,8.533-8.533c0-4.71-3.814-8.533-8.533-8.533H51.2c-0.256,0-0.486,0.128-0.734,0.154
				c-0.58,0.043-1.135,0.171-1.707,0.341c-0.555,0.171-1.067,0.367-1.57,0.631c-0.222,0.128-0.478,0.145-0.708,0.299
				c-0.239,0.154-0.367,0.401-0.58,0.58c-0.461,0.367-0.862,0.768-1.229,1.22c-0.341,0.427-0.64,0.853-0.887,1.323
				c-0.256,0.478-0.452,0.956-0.606,1.485c-0.179,0.555-0.299,1.101-0.35,1.69c-0.026,0.282-0.162,0.521-0.162,0.811V460.8
				c0,4.71,3.814,8.533,8.533,8.533s8.533-3.823,8.533-8.533v-42.53C108.049,477.338,179.635,512,256,512
				c141.158,0,256-114.842,256-256C512,228.335,507.605,201.122,498.961,175.13z"/>
		</g>
	</g>
</g>
<g>
</g>
<g>
</g>
<g>
</g>
<g>
</g>
<g>
</g>
<g>
</g>
<g>
</g>
<g>
</g>
<g>
</g>
<g>
</g>
<g>
</g>
<g>
</g>
<g>
</g>
<g>
</g>
<g>
</g>
</svg>
