<?xml version="1.0" encoding="iso-8859-1"?>
<!-- Generator: Adobe Illustrator 18.0.0, SVG Export Plug-In . SVG Version: 6.00 Build 0)  -->
<!DOCTYPE svg PUBLIC "-//W3C//DTD SVG 1.1//EN" "http://www.w3.org/Graphics/SVG/1.1/DTD/svg11.dtd">
<svg version="1.1" id="Capa_1" xmlns="http://www.w3.org/2000/svg" xmlns:xlink="http://www.w3.org/1999/xlink" x="0px" y="0px"
	 viewBox="0 0 329.039 329.039" style="enable-background:new 0 0 329.039 329.039;" xml:space="preserve">
<g>
	<g>
		<path d="M328.307,226.785c-0.743-0.744-1.874-0.944-2.826-0.497c-22.006,10.286-46.545,15.723-70.963,15.723
			c-44.739,0-86.799-17.422-118.433-49.056C86.413,143.283,73.017,67.17,102.751,3.558c0.446-0.953,0.247-2.083-0.497-2.826
			c-0.744-0.744-1.874-0.942-2.826-0.497C81.267,8.724,64.814,20.274,50.525,34.563C17.943,67.144,0,110.463,0,156.539
			c0,46.076,17.943,89.395,50.524,121.975c32.58,32.582,75.899,50.525,121.976,50.525c46.076,0,89.395-17.943,121.976-50.525
			c14.29-14.289,25.839-30.743,34.328-48.903C329.249,228.658,329.051,227.529,328.307,226.785z"/>
	</g>
	<g>
		<path d="M167.174,159.365c0,0.64,0.244,1.28,0.732,1.768c0.976,0.977,2.56,0.977,3.535,0
			c12.417-12.417,24.907-18.713,37.123-18.713c12.216,0,24.706,6.296,37.123,18.713c0.488,0.488,1.128,0.732,1.768,0.732
			c0.003,0,0.007,0,0.011,0c1.391,0.045,2.509-1.116,2.509-2.5c0-0.785-0.362-1.486-0.928-1.944
			c-24.802-24.918-24.744-49.15,0.176-74.07c0.488-0.488,0.732-1.128,0.732-1.768c0-0.64-0.244-1.28-0.732-1.768
			c-0.976-0.977-2.56-0.977-3.535,0c-12.417,12.416-24.907,18.713-37.123,18.713c-12.216,0-24.706-6.296-37.123-18.713
			c-0.976-0.977-2.56-0.977-3.535,0c-0.488,0.488-0.732,1.128-0.732,1.768c0,0.64,0.244,1.28,0.732,1.768
			c24.979,24.98,24.979,49.266,0,74.247C167.419,158.085,167.174,158.725,167.174,159.365z"/>
	</g>
</g>
<g>
</g>
<g>
</g>
<g>
</g>
<g>
</g>
<g>
</g>
<g>
</g>
<g>
</g>
<g>
</g>
<g>
</g>
<g>
</g>
<g>
</g>
<g>
</g>
<g>
</g>
<g>
</g>
<g>
</g>
</svg>
