<?xml version="1.0" encoding="iso-8859-1"?>
<!-- Generator: Adobe Illustrator 19.0.0, SVG Export Plug-In . SVG Version: 6.00 Build 0)  -->
<svg version="1.1" id="Capa_1" xmlns="http://www.w3.org/2000/svg" xmlns:xlink="http://www.w3.org/1999/xlink" x="0px" y="0px"
	 viewBox="0 0 474.199 474.199" style="enable-background:new 0 0 474.199 474.199;" xml:space="preserve">
<g>
	<g>
		<path d="M471.952,187.434c-5.925-14.918-22.822-22.208-37.74-16.283c-0.767,0.305-1.522,0.642-2.26,1.011L410.4,182.954
			l-44-58.656c-0.544-0.725-1.206-1.353-1.96-1.856l-48-32c-0.964-0.643-2.056-1.069-3.2-1.248l-104-16
			c-2.514-0.387-5.062,0.445-6.864,2.24l-59.64,59.416c-10.016,9.979-10.047,26.188-0.068,36.204
			c0.023,0.023,0.045,0.046,0.068,0.068c9.553,9.489,24.811,9.992,34.968,1.152l48.328-42.288l42.88,12.256l-35.888,78.856
			l-55.056,78.648l-65.44,58.888c-11.918,10.237-13.281,28.198-3.044,40.116c10.237,11.918,28.198,13.281,40.116,3.044l72.096-59.04
			l43.096-43.096l54.656,41l-12.16,84.864c-1.139,7.936,1.226,15.976,6.48,22.032c5.397,6.173,13.233,9.663,21.432,9.544
			c13.583,0.019,25.257-9.632,27.792-22.976l20.912-111.552c0.52-2.779-0.466-5.625-2.592-7.488l-59.92-52.384l25.504-70.128
			l47.088,53.816c2.304,2.63,6.049,3.46,9.248,2.048l54.016-23.888C471.449,218.255,477.991,201.745,471.952,187.434z
			 M450.776,209.898l-48.632,21.504l-52.128-59.576c-2.911-3.324-7.965-3.658-11.289-0.747c-1.014,0.888-1.786,2.017-2.247,3.283
			l-32,88c-1.128,3.102-0.235,6.578,2.248,8.752l60.568,53L347.2,431.178c-1.199,5.922-6.497,10.114-12.536,9.92
			c-6.442-0.002-11.663-5.225-11.661-11.667c0-0.55,0.039-1.1,0.117-1.645l12.8-89.552c0.415-2.893-0.781-5.783-3.12-7.536l-64-48
			c-3.185-2.388-7.641-2.071-10.456,0.744l-47.408,47.464l-71.504,58.504c-5.287,4.381-13.124,3.646-17.505-1.641
			c-4.273-5.157-3.693-12.773,1.313-17.223l66.112-59.504c0.452-0.405,0.854-0.861,1.2-1.36l56-80
			c0.283-0.4,0.526-0.826,0.728-1.272l40-88c1.828-4.023,0.049-8.765-3.974-10.593c-0.358-0.163-0.728-0.299-1.106-0.407l-56-16
			c-2.613-0.757-5.431-0.127-7.472,1.672l-51.6,45.152c-3.879,3.625-9.963,3.419-13.588-0.46c-3.625-3.879-3.419-9.963,0.46-13.588
			l56.8-56.568l98.248,15.12l45.352,30.256l47.2,62.904c2.318,3.094,6.517,4.087,9.976,2.36l27.528-13.8
			c3.238-1.63,7.012-1.824,10.4-0.536c3.626,1.416,6.459,4.334,7.768,8C459.762,200.128,456.89,207.191,450.776,209.898z"/>
	</g>
</g>
<g>
	<g>
		<rect x="48" y="65.098" width="104" height="16"/>
	</g>
</g>
<g>
	<g>
		<rect x="16" y="65.098" width="16" height="16"/>
	</g>
</g>
<g>
	<g>
		<rect x="80" y="129.098" width="16" height="16"/>
	</g>
</g>
<g>
	<g>
		<rect y="129.098" width="64" height="16"/>
	</g>
</g>
<g>
	<g>
		<rect x="40" y="193.098" width="80" height="16"/>
	</g>
</g>
<g>
	<g>
		<rect x="16" y="257.098" width="136" height="16"/>
	</g>
</g>
<g>
	<g>
		<rect x="32" y="321.098" width="64" height="16"/>
	</g>
</g>
<g>
	<g>
		<rect y="321.098" width="16" height="16"/>
	</g>
</g>
<g>
	<g>
		<rect x="16" y="385.098" width="56" height="16"/>
	</g>
</g>
<g>
	<g>
		<path d="M400,17.098h-36c-24.301,0-44,19.699-44,44s19.699,44,44,44s44-19.699,44-44v-36C408,20.68,404.418,17.098,400,17.098z
			 M392,61.098c0.06,15.402-12.376,27.937-27.778,27.997c-8.637,0.034-16.802-3.936-22.11-10.749
			C355.429,65.182,373.279,57.613,392,57.194V61.098z M392,41.194c-20.491,0.373-40.228,7.795-55.888,21.016
			c0-0.376-0.112-0.728-0.112-1.112c0-15.464,12.536-28,28-28h28V41.194z"/>
	</g>
</g>
<g>
</g>
<g>
</g>
<g>
</g>
<g>
</g>
<g>
</g>
<g>
</g>
<g>
</g>
<g>
</g>
<g>
</g>
<g>
</g>
<g>
</g>
<g>
</g>
<g>
</g>
<g>
</g>
<g>
</g>
</svg>
