<svg height="512pt" viewBox="-53 0 512 512.00001" width="512pt" xmlns="http://www.w3.org/2000/svg"><path d="m375 37.367188c0-.023438 0-29.867188 0-29.867188 0-2.410156-1.160156-4.675781-3.117188-6.085938-1.953124-1.4062495-4.46875-1.792968-6.757812-1.027343l-45 15c-3.0625 1.019531-5.125 3.886719-5.125 7.113281v30.128906 39.464844l-9.875 3.289062c-3.929688 1.3125-6.050781 5.558594-4.742188 9.488282 1.050782 3.144531 3.976563 5.128906 7.113282 5.128906.789062 0 1.585937-.125 2.375-.386719l15-5c3.0625-1.019531 5.128906-3.886719 5.128906-7.113281v-39.59375l30-10v29.1875l-9.875 3.289062c-3.929688 1.3125-6.050781 5.558594-4.742188 9.488282 1.3125 3.929687 5.558594 6.050781 9.488282 4.742187l15-5c3.0625-1.019531 5.128906-3.886719 5.128906-7.113281zm-45 4.726562v-14.1875l30-10v14.1875zm0 0"/><path d="m397.5 45c-4.144531 0-7.5 3.355469-7.5 7.5v54.59375l-9.875 3.289062c-3.929688 1.3125-6.050781 5.558594-4.742188 9.488282 1.046876 3.144531 3.976563 5.128906 7.113282 5.128906.789062 0 1.585937-.125 2.375-.386719l15-5c3.0625-1.019531 5.128906-3.886719 5.128906-7.113281v-60c0-4.140625-3.359375-7.5-7.5-7.5zm0 0"/><path d="m90 150h105c16.542969 0 30-13.457031 30-30 0-7.738281-2.941406-15.082031-8.285156-20.6875l-36.203125-38.015625c-.148438-.15625-.304688-.296875-.460938-.4375-9.542969-9.773437-22.847656-15.859375-37.550781-15.859375-14.941406 0-39.003906 17.335938-39.570312 17.929688l-34.644532 36.382812c-5.34375 5.605469-8.285156 12.953125-8.285156 20.6875 0 16.542969 13.457031 30 30 30zm15.695312-45.339844c25.027344-2.054687 47.914063-13.496094 64.605469-32.300781 6.023438 6.65625 9.699219 15.476563 9.699219 25.140625 0 20.675781-16.824219 37.5-37.5 37.5-18.230469 0-33.453125-13.078125-36.804688-30.339844zm104.304688 15.339844c0 8.269531-6.730469 15-15 15h-15.808594c9.578125-9.375 15.585938-22.375 15.789063-36.757812l10.875 11.417968c2.671875 2.800782 4.144531 6.472656 4.144531 10.339844zm-51.855469-56.566406c-13.714843 14.933594-32.140625 24.144531-52.296875 26.144531 3.648438-16.882813 18.691406-29.578125 36.652344-29.578125 5.582031 0 10.878906 1.234375 15.644531 3.433594zm-79 46.222656c3.09375-3.25 6.902344-7.25 10.875-11.421875.199219 14.386719 6.207031 27.386719 15.789063 36.765625h-15.808594c-8.269531 0-15-6.730469-15-15 0-3.867188 1.472656-7.539062 4.144531-10.34375zm0 0"/><path d="m300.972656 378.878906-24.871094-8.289062v-78.089844c0-12.40625-10.09375-22.5-22.5-22.5h-58.601562v-70.285156c50.269531-3.84375 90-45.976563 90-97.214844 0-4.144531-3.359375-7.5-7.5-7.5-4.144531 0-7.5 3.355469-7.5 7.5 0 43.34375-33.605469 78.960938-76.125 82.226562-3.363281-11.386718-13.910156-19.726562-26.375-19.726562h-50c-12.464844 0-23.011719 8.339844-26.375 19.726562-42.519531-3.265624-76.125-38.882812-76.125-82.226562 0-4.144531-3.355469-7.5-7.5-7.5s-7.5 3.355469-7.5 7.5c0 51.238281 39.730469 93.371094 90 97.214844v201.316406c0 9.773438 6.269531 18.113281 15 21.207031v66.855469l-24.871094 8.289062c-3.929687 1.308594-6.054687 5.558594-4.746094 9.488282 1.050782 3.140625 3.976563 5.128906 7.117188 5.128906.785156 0 1.585938-.125 2.371094-.386719l30-10c3.0625-1.019531 5.128906-3.886719 5.128906-7.113281v-72.261719c8.726562-3.09375 15-11.433593 15-21.207031v-56.570312c2.472656.359374 4.976562.539062 7.5.539062 20.386719 0 38.824219-11.855469 47.4375-30h63.664062c2.628907 0 5.152344-.460938 7.5-1.292969v62.289063c0 3.226562 2.066407 6.09375 5.128907 7.113281l30 10c.785156.261719 1.585937.386719 2.371093.386719 3.140626 0 6.066407-1.988282 7.117188-5.128906 1.308594-3.929688-.816406-8.175782-4.746094-9.488282zm-195.972656-108.878906v-30h75v30zm12.5-90h50c6.890625 0 12.5 5.605469 12.5 12.5v32.5h-75v-32.5c0-6.894531 5.605469-12.5 12.5-12.5zm136.101562 120h-68.671874c-3.179688 0-6.011719 2-7.074219 5-5.285157 14.953125-19.492188 25-35.355469 25-4.273438 0-8.480469-.722656-12.5-2.144531-2.292969-.808594-4.839844-.457031-6.828125.945312-1.988281 1.40625-3.171875 3.691407-3.171875 6.125v66.105469c0 4.132812-3.363281 7.5-7.5 7.5s-7.5-3.367188-7.5-7.5v-116.03125h148.601562c4.136719 0 7.5 3.363281 7.5 7.5s-3.363281 7.5-7.5 7.5zm0 0"/></svg>