<?xml version="1.0" encoding="iso-8859-1"?>
<!-- Generator: Adobe Illustrator 19.0.0, SVG Export Plug-In . SVG Version: 6.00 Build 0)  -->
<svg version="1.1" id="Layer_1" xmlns="http://www.w3.org/2000/svg" xmlns:xlink="http://www.w3.org/1999/xlink" x="0px" y="0px"
	 viewBox="0 0 512 512" style="enable-background:new 0 0 512 512;" xml:space="preserve">
<g>
	<g>
		<path d="M416.16,259.618c0-2.648-1.053-5.188-2.925-7.06l-89.868-89.868c-1.29-1.29-2.852-2.11-4.495-2.547
			c1.422-18.379-6.878-39.884-11.253-49.742c11.538-11.722,18.673-27.789,18.673-45.496C326.292,29.117,297.175,0,261.388,0
			c-35.787,0-64.904,29.117-64.904,64.904c0,16.424,6.145,31.432,16.24,42.876c-13.2,10.285-40.752,32.421-63.241,54.909
			c-33.032,33.028-23.252,114.675-22.818,118.137c0.429,3.432,2.604,6.402,5.753,7.84c3.145,1.448,6.811,1.151,9.693-0.77
			l29.956-19.971c2.292-1.526,4.431-3.939,4.889-6.655c0.078-0.463,5.708-39.537,30.671-62.15v97.889l-59.438,107.921
			c-19.278,38.556-42.815,81.74-48.344,87.274c-4.978,4.978-4.66,10.551-2.567,14.105c1.76,2.994,3.272,5.69,11.472,5.69
			c9.059,0,26.166-3.296,60.559-13.12c2.919-0.834,5.286-2.955,6.452-5.758c0.479-1.148,46.424-111.094,75.578-153.336
			c12.898,8.172,27.639,15.653,42.579,19.388c34.159,8.537,52.347,63.696,52.347,100.196c0,41.262,10.856,49.97,19.968,49.97h29.956
			c5.514,0,9.985-4.515,9.985-10.029c0-20.406-0.531-123.269-11.038-144.283c-9.717-19.429-55.641-51.756-69.746-61.371
			c-2.577-14.535-4.933-29.773-6.862-44.343c20.56,12.636,52.061,30.278,67.676,30.278
			C415.818,279.591,416.16,260.432,416.16,259.618z M261.388,19.971c24.778,0,44.934,20.156,44.934,44.934
			c0,24.778-20.156,44.934-44.934,44.934c-24.778,0-44.934-20.156-44.934-44.934C216.454,40.126,236.61,19.971,261.388,19.971z
			 M159.189,480.976c-11.672,3.242-24.222,6.411-34.017,8.532c14.461-24.276,35.153-65.358,40.136-75.329l53.788-98.612
			c4.192,3.66,9.583,8.136,15.836,12.846C207.568,368.116,168.312,459.404,159.189,480.976z M377.272,363.981
			c5.753,11.503,8.552,77.958,8.893,125.388h-16.231c-1.302-2.496-3.701-11.004-3.701-30c0-42.629-20.357-107.911-66.895-119.549
			c-30.848-7.708-64.252-35.59-71.741-44.536V179.735c0-3.462-2.373-6.675-5.313-8.494c-2.945-1.819-6.916-1.98-10.007-0.439
			c-37.815,18.908-51.309,67.786-54.59,82.803l-12.442,8.249c-1.156-26.47,1.002-67.654,18.393-85.046
			c23.694-23.694,54.172-47.724,64.882-55.983c9.651,5.698,20.881,8.982,32.877,8.982c10.7,0,20.788-2.618,29.695-7.223
			c5.394,13.396,11.03,33.243,6.3,42.698c-10.644,21.292,4.27,109.526,9.092,136.059c0.482,2.667,2.032,5.044,4.284,6.546
			C333.079,322.765,370.86,351.159,377.272,363.981z M315.53,223.772c-1.82-18.142-2.589-33.448-1.776-42.453l77.93,77.929
			c-1.424,0.219-3.223,0.371-5.48,0.371C375.107,259.618,339.504,239.417,315.53,223.772z"/>
	</g>
</g>
<g>
</g>
<g>
</g>
<g>
</g>
<g>
</g>
<g>
</g>
<g>
</g>
<g>
</g>
<g>
</g>
<g>
</g>
<g>
</g>
<g>
</g>
<g>
</g>
<g>
</g>
<g>
</g>
<g>
</g>
</svg>
