<?xml version="1.0" encoding="iso-8859-1"?>
<!-- Generator: Adobe Illustrator 19.0.0, SVG Export Plug-In . SVG Version: 6.00 Build 0)  -->
<svg version="1.1" id="Capa_1" xmlns="http://www.w3.org/2000/svg" xmlns:xlink="http://www.w3.org/1999/xlink" x="0px" y="0px"
	 viewBox="0 0 313.2 313.2" style="enable-background:new 0 0 313.2 313.2;" xml:space="preserve">
<g>
	<g>
		<g>
			<path style="fill:#231F20;" d="M213.6,180l-12.4-22.8l-30.8,83.6c-0.8,2-2.4,4-4.8,4.8c-4,1.6-8.8-0.8-10.4-4.8l-38-97.6
				l-20.4,36.4c-1.2,2.8-4,4.8-7.6,4.8h-36v122.4c0,1.6,0.8,3.2,1.6,4.4c1.2,1.2,2.8,2,4.4,2H254c1.6,0,3.2-0.8,4.4-1.6
				c1.2-1.2,1.6-2.4,1.6-4.4V184.4h-39.2C218,184.4,215.2,182.8,213.6,180z"/>
			<path style="fill:#231F20;" d="M258.4,50c-1.2-1.2-2.4-1.6-4.4-1.6h-26v4.4c0,6-2.4,11.6-6.4,16c-4,4-9.6,6.4-16,6.4h-97.2
				c-6,0-11.6-2.4-16-6.4c-4-4-6.4-9.6-6.4-16v-4.4H59.6c-1.6,0-2.8,0.4-4,1.6l-0.4,0.4c-1.2,1.2-1.6,2.4-1.6,4.4v113.6h31.2
				l26.4-48.4c2-4,7.2-5.2,11.2-3.2c1.6,0.8,2.8,2.4,3.6,4l36.4,94l29.6-80c1.6-4.4,6.4-6.4,10.4-4.8c2,0.8,3.6,2.4,4.8,4.4l18.4,34
				H260v-114C260,52.8,259.2,51.2,258.4,50z"/>
			<path style="fill:#231F20;" d="M108.4,58.8H206c1.6,0,3.2-0.8,4.4-1.6c1.2-1.2,1.6-2.4,1.6-4.4V27.2c0-1.6-0.8-3.2-1.6-4.4
				c-1.2-1.2-2.4-1.6-4.4-1.6h-28c-4.4,0-8.4-3.6-8.4-8.4c0-3.6-1.6-6.8-3.6-9.2c-2.4-2.4-5.6-3.6-9.2-3.6c-3.6,0-6.8,1.6-9.2,3.6
				c-2.4,2.4-3.6,5.6-3.6,9.2c0,4.4-3.6,8.4-8.4,8.4h-28c-1.6,0-3.2,0.8-4.4,1.6c-1.2,1.2-1.6,2.4-1.6,4.4v25.6
				c0.8,2,1.2,3.2,2.4,4.4C105.2,58.4,106.4,58.8,108.4,58.8z"/>
		</g>
	</g>
</g>
<g>
</g>
<g>
</g>
<g>
</g>
<g>
</g>
<g>
</g>
<g>
</g>
<g>
</g>
<g>
</g>
<g>
</g>
<g>
</g>
<g>
</g>
<g>
</g>
<g>
</g>
<g>
</g>
<g>
</g>
</svg>
