<?xml version="1.0" encoding="iso-8859-1"?>
<!-- Generator: Adobe Illustrator 16.0.0, SVG Export Plug-In . SVG Version: 6.00 Build 0)  -->
<!DOCTYPE svg PUBLIC "-//W3C//DTD SVG 1.1//EN" "http://www.w3.org/Graphics/SVG/1.1/DTD/svg11.dtd">
<svg version="1.1" id="Capa_1" xmlns="http://www.w3.org/2000/svg" xmlns:xlink="http://www.w3.org/1999/xlink" x="0px" y="0px"
	 width="108.002px" height="108.002px" viewBox="0 0 108.002 108.002" style="enable-background:new 0 0 108.002 108.002;"
	 xml:space="preserve">
<g>
	<g>
		<path d="M55.219,47.097c10.301,0,18.678-8.378,18.678-18.678S65.52,9.745,55.219,9.745c-10.299,0-18.678,8.377-18.678,18.677
			S44.919,47.097,55.219,47.097z"/>
		<path d="M0,79.58C0,89.88,8.377,98.257,18.677,98.257S37.355,89.88,37.355,79.58c0-10.3-8.378-18.679-18.678-18.679
			S0,69.28,0,79.58z"/>
		<path d="M89.324,98.255c10.3,0,18.678-8.377,18.678-18.678c0-10.3-8.378-18.677-18.678-18.677S70.646,69.28,70.646,79.58
			C70.646,89.88,79.024,98.255,89.324,98.255z"/>
	</g>
</g>
<g>
</g>
<g>
</g>
<g>
</g>
<g>
</g>
<g>
</g>
<g>
</g>
<g>
</g>
<g>
</g>
<g>
</g>
<g>
</g>
<g>
</g>
<g>
</g>
<g>
</g>
<g>
</g>
<g>
</g>
</svg>
