<?xml version="1.0" encoding="iso-8859-1"?>
<!-- Generator: Adobe Illustrator 19.0.0, SVG Export Plug-In . SVG Version: 6.00 Build 0)  -->
<svg version="1.1" id="Capa_1" xmlns="http://www.w3.org/2000/svg" xmlns:xlink="http://www.w3.org/1999/xlink" x="0px" y="0px"
	 viewBox="0 0 512.001 512.001" style="enable-background:new 0 0 512.001 512.001;" xml:space="preserve">
<g>
	<g>
		<path d="M498.112,419.272c-5.093-2.141-10.955,0.248-13.096,5.34c-14.051,33.395-46.539,54.973-82.767,54.973
			c-43.468,0-79.812-31.062-88.015-72.153c0.007-0.158,0.024-0.313,0.024-0.473c0-4.405-0.578-8.676-1.653-12.748
			c-0.07-1.451-0.108-2.91-0.108-4.377c0-37.54,23.17-69.765,55.958-83.14l24.168,85.85c1.242,4.41,5.254,7.293,9.621,7.293
			c0.897,0,1.809-0.122,2.715-0.377c5.316-1.497,8.413-7.02,6.916-12.336l-24.169-85.857c4.735-0.775,9.592-1.184,14.543-1.184
			c35.711,0,68.017,21.153,82.303,53.891c2.209,5.062,8.102,7.374,13.165,5.165c5.062-2.209,7.375-8.103,5.166-13.165
			c-17.468-40.027-56.969-65.891-100.634-65.891c-6.826,0-13.507,0.632-19.992,1.831l-0.857-3.045
			c-2.893-10.277-5.052-20.733-6.476-31.288c0-0.004-0.001-0.008-0.001-0.012c-0.824-6.11-1.405-12.252-1.731-18.414
			c0.91,4.586,4.956,8.043,9.809,8.043h13.663c18.916,0,34.306-15.39,34.306-34.306s-15.39-34.306-34.306-34.306h-29.997
			l-76.693-67.96c3.979,1.155,8.178,1.787,12.524,1.787c24.813,0,45-20.187,45-45s-20.187-45-45-45s-45,20.187-45,45
			c0,8.455,2.347,16.369,6.419,23.134c-7.155-3.259-14.983-4.987-23.081-4.987c-14.887,0-28.882,5.798-39.409,16.324l-81.882,81.881
			c-0.022,0.022-0.039,0.048-0.061,0.07c-0.263,0.268-0.513,0.553-0.748,0.854c-0.027,0.035-0.057,0.067-0.083,0.102
			c-0.01,0.013-0.021,0.024-0.03,0.037c-5.199,6.915-8.168,15.198-8.797,24.132H90.173c-5.523,0-10,4.478-10,10v12.237
			c0,20.822,16.94,37.763,37.763,37.763h11.856l-5.128,22.143c-4.879-0.666-9.856-1.018-14.914-1.018
			C49.234,280.082,0,329.317,0,389.833c0,37.05,18.457,69.868,46.657,89.751H10c-5.523,0-10,4.478-10,10c0,5.522,4.477,10,10,10
			h99.751c54.26,0,99.442-39.583,108.207-91.387c0.611,4.937,4.813,8.761,9.915,8.761h68.02
			c6.553,25.68,22.185,47.765,43.262,62.626h-63.488c-5.523,0-10,4.478-10,10c0,5.522,4.477,10,10,10H402.25
			c44.298,0,84.021-26.384,101.202-67.217C505.593,427.277,503.202,421.415,498.112,419.272z M372.873,188.585h23.79
			c7.888-0.001,14.306,6.416,14.306,14.305c0,7.888-6.417,14.306-14.306,14.306H383c-5.174,0-9.43,3.929-9.947,8.966
			c-0.12-3.015-0.18-6.031-0.18-9.052V188.585z M353.842,238.957H253.618c-1.602-1.911-3.283-3.767-5.062-5.547l-31.516-31.517
			l41.521-41.521l94.599,68.524C353.32,232.255,353.546,235.611,353.842,238.957z M339.085,258.957l-61.276,55.508l-5.839-36.281
			c-0.011-0.07-0.023-0.14-0.036-0.21c-1.208-6.609-3.183-12.977-5.853-19.017H339.085z M302.498,32.411c13.785,0,25,11.215,25,25
			c0,13.785-11.215,25-25,25c-13.785,0-25-11.215-25-25C277.498,43.626,288.712,32.411,302.498,32.411z M215.569,106.025
			c6.749-6.75,15.722-10.467,25.267-10.467s18.518,3.717,25.269,10.468l86.769,77.059v20.908l-89.487-64.82
			c-1.761-1.275-3.817-1.901-5.863-1.901c-2.577,0-5.138,0.992-7.074,2.929l-50.504,50.505l-33.373-9.214l-20.743-5.727
			L215.569,106.025z M117.936,238.958c-9.794-0.001-17.763-7.969-17.763-17.763v-2.237h12.003c2.223,7.37,5.844,14.194,10.525,20
			H117.936z M109.751,479.584C60.262,479.584,20,439.323,20,389.833s40.262-89.751,89.751-89.751c3.51,0,6.972,0.209,10.379,0.604
			l-20.121,86.892c-0.688,2.97,0.017,6.092,1.914,8.479c1.897,2.387,4.779,3.777,7.828,3.777h89.191
			C193.953,444.633,155.86,479.584,109.751,479.584z M122.331,379.833l17.283-74.636c31.833,11.265,55.471,40.006,59.328,74.636
			H122.331z M144.151,285.61l6.139-26.514l47.929,27.676l15.739,68.609C203.063,322.513,177.026,296.488,144.151,285.61z
			 M216.738,278.054c-0.621-2.707-2.34-5.034-4.746-6.424l-64.738-37.382c-8.26-4.77-14.706-14.173-16.821-24.541
			c-1.271-6.229-0.893-12.128,1.036-17.159l29.122,8.04l37.102,10.243l36.722,36.722c9.283,9.282,15.446,21.008,17.827,33.916
			l12.15,75.493c-0.045,0-0.088-0.003-0.133-0.003h-29.42v-0.001L216.738,278.054z M237.873,396.958v-20h26.385
			c13.038,0,24.159,8.359,28.287,20H237.873z M294.803,367.414c-2.898-2.244-6.045-4.177-9.397-5.749l-3.806-23.649l76.677-69.458
			c1.12,5.279,2.407,10.525,3.872,15.729l0.86,3.054C328.591,300.563,302.467,330.64,294.803,367.414z"/>
	</g>
</g>
<g>
	<g>
		<path d="M502,379.833c-5.523,0-10,4.478-10,10l-0.001,0.469c-0.016,5.522,4.448,10.013,9.971,10.029c0.01,0,0.02,0,0.03,0
			c5.509,0,9.983-4.458,10-9.971l0.001-0.527C512,384.311,507.523,379.833,502,379.833z"/>
	</g>
</g>
<g>
	<g>
		<path d="M243.4,482.517c-1.86-1.87-4.43-2.93-7.07-2.93c-2.63,0-5.21,1.06-7.07,2.93c-1.86,1.86-2.93,4.431-2.93,7.07
			c0,2.63,1.07,5.21,2.93,7.07c1.86,1.859,4.44,2.93,7.07,2.93s5.21-1.07,7.07-2.93c1.87-1.86,2.93-4.44,2.93-7.07
			C246.33,486.947,245.27,484.377,243.4,482.517z"/>
	</g>
</g>
<g>
</g>
<g>
</g>
<g>
</g>
<g>
</g>
<g>
</g>
<g>
</g>
<g>
</g>
<g>
</g>
<g>
</g>
<g>
</g>
<g>
</g>
<g>
</g>
<g>
</g>
<g>
</g>
<g>
</g>
</svg>
