<svg height="512pt" viewBox="0 -57 512 512" width="512pt" xmlns="http://www.w3.org/2000/svg"><path d="m504.5 264.042969c-23.238281 0-34.589844-5.144531-46.613281-10.589844-3.777344-1.710937-8.21875-.035156-9.925781 3.738281-1.710938 3.773438-.035157 8.21875 3.734374 9.929688 12.945313 5.859375 26.328126 11.921875 52.804688 11.921875 4.144531 0 7.5-3.355469 7.5-7.5 0-4.140625-3.355469-7.5-7.5-7.5zm0 0"/><path d="m7.5 241.527344c-4.144531 0-7.5 3.359375-7.5 7.503906 0 4.140625 3.355469 7.5 7.5 7.5 18.183594 0 29.109375 3.046875 39.914062 7.621094 2.246094.953125 4.394532 1.925781 6.671876 2.957031 12.941406 5.867187 26.328124 11.933594 52.808593 11.933594 26.472657 0 39.855469-6.0625 52.796875-11.925781 10.378906-4.703126 20.179688-9.144532 37.476563-10.296876.003906 0 .007812 0 .011719-.003906 2.976562-.191406 6.042968-.285156 9.113281-.285156 8.457031 0 15.824219.671875 22.527343 2.0625 9.628907 1.984375 16.644532 5.160156 24.074219 8.527344 12.941407 5.859375 26.324219 11.921875 52.792969 11.921875 11.765625 0 22.039062-1.230469 31.421875-3.761719.003906 0 .007813 0 .011719-.003906 8.367187-2.269532 14.972656-5.261719 21.359375-8.15625 12.023437-5.449219 23.378906-10.589844 46.613281-10.589844 4.816406 0 9.378906.226562 13.5625.671875 4.128906.4375 7.816406-2.539063 8.257812-6.660156.441407-4.117188-2.542968-7.816407-6.660156-8.253907-4.714844-.503906-9.8125-.761718-15.160156-.761718-19.679688 0-32.125 3.351562-42.535156 7.480468 5.460937-13.1875 5.234375-28.574218-1.789063-42.050781 11.222657-5.050781 22.566407-9.5625 44.320313-9.5625 23.234375 0 34.589844 5.144531 46.609375 10.589844 12.945312 5.863281 26.324219 11.925781 52.792969 11.925781 4.140624 0 7.5-3.355468 7.5-7.5 0-4.140625-3.359376-7.5-7.5-7.5-23.226563 0-34.582032-5.144531-46.601563-10.589844-12.941406-5.863281-26.328125-11.925781-52.800781-11.925781-25.863282 0-39.238282 5.789063-51.910156 11.53125-14.402344-21.703125-43.472657-28.761719-66.316407-15.566406l-27.710937 15.996094c-.027344-.015625-.058594-.027344-.089844-.042969-9.53125-4.320312-19.359375-8.753906-34.539062-10.78125l14.476562-47.636719c.617188-2.03125 2.105469-3.636719 4.085938-4.40625l108.304687-42.132812c2.082031-.421875 4.265625-.152344 6.1875.773437l45.636719 21.972656c.246094.121094.5.226563.761718.316407 7.492188 2.640625 15.515626-.003907 19.964844-6.578125 4.453125-6.578125 3.929688-15.015625-1.304687-20.992188l-32.117188-36.675781c-5.632812-6.433594-14.066406-9.785156-22.566406-8.972656-.179687.015625-.355469.039062-.535156.070312l-166.691407 28.179688c-12.007812 1.230469-22.570312 8.785156-27.613281 19.773437l-21.804687 47.445313c-1.730469 3.765625-.082032 8.21875 3.683594 9.949219 3.765624 1.730468 8.21875.082031 9.945312-3.683594l21.804688-47.449219c2.859374-6.226563 8.867187-10.488281 15.675781-11.128906.1875-.015625.371093-.039063.550781-.070313l166.652344-28.175781c3.621094-.269531 7.203125 1.195313 9.613281 3.945313l32.117187 36.671874c.746094.855469.804688 1.761719.167969 2.699219-.574219.851563-1.335937 1.164063-2.277343.929688l-45.152344-21.742188c-5.191406-2.5-11.125-3.113281-16.710938-1.726562-.308594.074219-.613281.171875-.914062.289062l-108.816406 42.332031c-6.296876 2.449219-11.035157 7.558594-13 14.023438l-33.660157 110.769531c-.234375.023438-.457031.058594-.6875.085938-16.484375 1.875-26.804687 6.535156-36.800781 11.0625-12.023438 5.449219-23.375 10.589843-46.605469 10.589843-19.949219 0-31.140625-3.789062-41.515625-8.3125l56.332032-35.179687c6.097656-3.8125 10.90625-9.277344 13.90625-15.808594l11.492187-25.003906c1.730469-3.765625.082031-8.21875-3.683594-9.949219-3.765625-1.730468-8.21875-.082031-9.949219 3.683594l-11.492187 25.007812c-1.023437 2.230469-2.417969 4.246094-4.097656 5.988282-3.4375.289062-7.113281.445312-10.996094.445312-23.226563 0-34.578125-5.144531-46.597656-10.589844-12.941407-5.863281-26.324219-11.925781-52.792969-11.925781-4.144531 0-7.5 3.355469-7.5 7.5 0 4.140625 3.355469 7.5 7.5 7.5 23.230469 0 34.582031 5.144531 46.601562 10.589844 10.863282 4.921875 22.046876 9.984375 41.015626 11.480469l-46.457032 29.019531c-9.957031-3.800781-22.242187-6.957031-41.160156-6.957031zm286.867188-50.175782c16.589843-9.585937 37.886718-3.875 47.476562 12.722657l1.789062 3.097656c.003907.007813.011719.019531.015626.027344l3.089843 5.347656c9.582031 16.597656 3.875 37.902344-12.722656 47.492187l-1.703125.984376c-7.855469 2.023437-16.570312 3.019531-26.625 3.019531-23.230469 0-34.582031-5.144531-46.605469-10.585938-6.511719-2.953125-13.214843-5.980469-21.734375-8.253906-.019531-.003906-.039062-.015625-.0625-.019531-.265625-12.523438 6.332032-24.535156 17.375-30.914063zm-51.128907 12.460938c-12.566406 8.949219-20.257812 23.335938-20.90625 38.578125-4.828125-.550781-9.941406-.835937-15.433593-.855469l13.199218-43.429687c9.550782 1.042969 16.691406 3.160156 23.140625 5.707031zm0 0"/><path d="m504.496094 323.183594c-23.230469 0-34.585938-5.144532-46.605469-10.585938-12.945313-5.863281-26.328125-11.925781-52.796875-11.925781-26.472656 0-39.855469 6.0625-52.796875 11.925781-12.019531 5.445313-23.375 10.585938-46.605469 10.585938-23.230468 0-34.585937-5.144532-46.605468-10.585938-12.941407-5.863281-26.324219-11.925781-52.792969-11.925781-22.105469 0-35.285157 4.332031-46.234375 9.011719-3.808594 1.628906-5.578125 6.035156-3.949219 9.84375s6.03125 5.578125 9.847656 3.949218c8.832031-3.777343 19.960938-7.804687 40.335938-7.804687 23.230469 0 34.582031 5.144531 46.605469 10.589844 12.941406 5.859375 26.324218 11.921875 52.792968 11.921875s39.855469-6.0625 52.796875-11.921875c12.019531-5.445313 23.375-10.589844 46.605469-10.589844s34.585938 5.144531 46.605469 10.589844c12.945312 5.859375 26.328125 11.921875 52.796875 11.921875 4.144531 0 7.5-3.355469 7.5-7.5 0-4.140625-3.355469-7.5-7.5-7.5zm0 0"/><path d="m128.347656 321.339844c-6.433594 1.242187-13.449218 1.84375-21.449218 1.84375-23.226563 0-34.582032-5.144532-46.601563-10.585938-12.941406-5.863281-26.324219-11.925781-52.792969-11.925781-4.144531 0-7.49999975 3.359375-7.49999975 7.5s3.35546875 7.5 7.49999975 7.5c23.230469 0 34.582032 5.144531 46.601563 10.589844 12.941406 5.859375 26.324219 11.921875 52.792969 11.921875 8.964843 0 16.910156-.691406 24.289062-2.113282 4.066406-.785156 6.730469-4.71875 5.945312-8.785156-.785156-4.066406-4.714843-6.726562-8.785156-5.945312zm0 0"/><path d="m504.496094 382.320312c-23.230469 0-34.585938-5.140624-46.605469-10.585937-12.945313-5.863281-26.328125-11.925781-52.796875-11.925781-26.472656 0-39.855469 6.0625-52.796875 11.925781-12.019531 5.445313-23.375 10.585937-46.605469 10.585937-23.230468 0-34.585937-5.140624-46.605468-10.585937-12.941407-5.863281-26.324219-11.925781-52.792969-11.925781s-39.851563 6.0625-52.792969 11.925781c-12.019531 5.445313-23.371094 10.585937-46.601562 10.585937-23.230469 0-34.582032-5.140624-46.605469-10.585937-12.941407-5.863281-26.324219-11.925781-52.792969-11.925781-4.144531 0-7.5 3.359375-7.5 7.5 0 4.144531 3.355469 7.5 7.5 7.5 23.230469 0 34.582031 5.144531 46.605469 10.589844 12.941406 5.863281 26.324219 11.925781 52.792969 11.925781s39.851562-6.0625 52.792968-11.925781c12.019532-5.445313 23.371094-10.589844 46.601563-10.589844s34.582031 5.144531 46.605469 10.589844c12.941406 5.863281 26.324218 11.925781 52.792968 11.925781s39.851563-6.0625 52.796875-11.925781c12.019531-5.445313 23.375-10.589844 46.605469-10.589844s34.585938 5.144531 46.605469 10.589844c12.941406 5.863281 26.324219 11.925781 52.796875 11.925781 4.144531 0 7.5-3.359375 7.5-7.5 0-4.144531-3.355469-7.503907-7.5-7.503907zm0 0"/><path d="m462.128906 114.769531c-2.867187.554688-5.328125 2.335938-6.753906 4.890625-3.988281 7.144532-8.363281 17.457032-6.566406 26.023438 1.058594 5.042968 4.019531 9.375 8.332031 12.191406 3.175781 2.074219 6.804687 3.144531 10.511719 3.144531 1.332031 0 2.671875-.136719 4.003906-.417969 10.414062-2.1875 17.105469-12.433593 14.921875-22.847656-1.304687-6.203125-6.8125-13.261718-16.375-20.976562-2.269531-1.832032-5.214844-2.5625-8.074219-2.007813zm9.765625 26.066407c.484375 2.320312-1.003906 4.601562-3.320312 5.085937-1.121094.234375-2.269531.019531-3.230469-.605469-.960938-.628906-1.617188-1.59375-1.855469-2.714844-.367187-1.753906.234375-5.257812 2.164063-9.875 4.09375 3.941407 5.980468 6.871094 6.242187 8.109376zm0 0"/><path d="m60.644531 112.664062c1.679688 1.171876 3.652344 1.78125 5.652344 1.78125.855469 0 1.71875-.109374 2.5625-.335937 7.902344-2.113281 18.355469-6.152344 23.25-13.40625 5.953125-8.816406 3.621094-20.832031-5.195313-26.789063-4.273437-2.882812-9.414062-3.929687-14.472656-2.949218-5.058594.984375-9.433594 3.875-12.316406 8.148437-3.546875 5.253907-4.777344 14.121094-3.660156 26.355469.265625 2.902344 1.789062 5.527344 4.179687 7.195312zm11.914063-25.15625c.640625-.953124 1.613281-1.597656 2.738281-1.816406.277344-.050781.554687-.078125.828125-.078125.847656 0 1.675781.25 2.394531.734375 1.960938 1.328125 2.480469 4 1.15625 5.964844-1 1.484375-3.9375 3.492188-8.59375 5.320312-.019531-5.683593.765625-9.078124 1.476563-10.125zm0 0"/><path d="m153.992188 46.867188c-16.644532 15.519531-31.472657 32.984374-44.074219 51.910156-13.382813 20.105468-24.257813 41.851562-32.320313 64.640625-1.382812 3.90625.664063 8.191406 4.570313 9.574219.828125.292968 1.671875.429687 2.5.429687 3.089843 0 5.984375-1.921875 7.070312-5 7.652344-21.621094 17.96875-42.257813 30.667969-61.332031 11.957031-17.957032 26.023438-34.527344 41.816406-49.25 3.03125-2.824219 3.195313-7.570313.371094-10.601563-2.824219-3.027343-7.570312-3.195312-10.601562-.371093zm0 0"/><path d="m112.347656 53.175781c1.78125 0 3.566406-.632812 5-1.910156 10.425782-9.328125 27.949219-21.742187 52.195313-27.90625 15.28125-3.886719 31.023437-4.792969 46.792969-2.699219 4.117187.550782 7.878906-2.339844 8.421874-6.445312.546876-4.109375-2.339843-7.878906-6.445312-8.425782-17.671875-2.347656-35.324219-1.328124-52.464844 3.03125-21.523437 5.472657-41.753906 16.28125-58.503906 31.261719-3.085938 2.761719-3.351562 7.503907-.589844 10.589844 1.484375 1.660156 3.535156 2.503906 5.59375 2.503906zm0 0"/><path d="m365.632812 14.980469c12.832032.972656 32.015626 4.992187 50.523438 18.605469 23.683594 17.414062 32.933594 40.808593 36.335938 53.203124.917968 3.328126 3.9375 5.515626 7.230468 5.515626.65625 0 1.328125-.085938 1.992188-.269532 3.996094-1.097656 6.34375-5.226562 5.246094-9.21875-3.921876-14.269531-14.582032-41.214844-41.917969-61.316406-21.371094-15.714844-43.484375-20.355469-58.273438-21.4765625-4.140625-.3164065-7.734375 2.7773435-8.046875 6.9101565-.316406 4.128906 2.78125 7.730468 6.910156 8.046875zm0 0"/></svg>