<?xml version="1.0" encoding="iso-8859-1"?>
<!-- Generator: Adobe Illustrator 19.0.0, SVG Export Plug-In . SVG Version: 6.00 Build 0)  -->
<svg version="1.1" id="Layer_1" xmlns="http://www.w3.org/2000/svg" xmlns:xlink="http://www.w3.org/1999/xlink" x="0px" y="0px"
	 viewBox="0 0 512 512" style="enable-background:new 0 0 512 512;" xml:space="preserve">
<g>
	<g>
		<path d="M256,0C115.39,0,0,115.39,0,256s115.39,256,256,256s256-115.39,256-256S396.61,0,256,0z M97.108,368.954
			C73.48,335.805,61,296.737,61,256c0-107.52,87.48-195,195-195c40.737,0,79.805,12.48,112.954,36.108
			c0.691,0.494,1.307,1.047,1.886,1.625L98.733,370.841C98.155,370.261,97.602,369.645,97.108,368.954z M256,451
			c-40.737,0-79.805-12.48-112.954-36.108c-0.691-0.494-1.307-1.047-1.886-1.625l272.105-272.105
			c0.581,0.58,1.135,1.197,1.626,1.885C438.52,176.195,451,215.263,451,256C451,363.52,363.52,451,256,451z"/>
	</g>
</g>
<g>
</g>
<g>
</g>
<g>
</g>
<g>
</g>
<g>
</g>
<g>
</g>
<g>
</g>
<g>
</g>
<g>
</g>
<g>
</g>
<g>
</g>
<g>
</g>
<g>
</g>
<g>
</g>
<g>
</g>
</svg>
