<?xml version="1.0"?>
<svg xmlns="http://www.w3.org/2000/svg" xmlns:xlink="http://www.w3.org/1999/xlink" version="1.1"
    id="Capa_1" x="0px" y="0px" viewBox="0 0 405.333 405.333"
    style="enable-background:new 0 0 405.333 405.333;" xml:space="preserve" width="512px"
    height="512px" class=""><g><g>
	<g>
		<path
            d="M373.333,266.88c-25.003,0-49.493-3.904-72.704-11.563c-11.328-3.904-24.192-0.896-31.637,6.699l-46.016,34.752    c-52.8-28.181-86.592-61.952-114.389-114.368l33.813-44.928c8.512-8.512,11.563-20.971,7.915-32.64    C142.592,81.472,138.667,56.96,138.667,32c0-17.643-14.357-32-32-32H32C14.357,0,0,14.357,0,32    c0,205.845,167.488,373.333,373.333,373.333c17.643,0,32-14.357,32-32V298.88C405.333,281.237,390.976,266.88,373.333,266.88z"
            data-original="#000000" class="active-path" data-old_color="#000000" fill="#E43649" />
	</g>
</g></g> </svg>