<?xml version="1.0" encoding="iso-8859-1"?>
<!-- Generator: Adobe Illustrator 18.0.0, SVG Export Plug-In . SVG Version: 6.00 Build 0)  -->
<!DOCTYPE svg PUBLIC "-//W3C//DTD SVG 1.1//EN" "http://www.w3.org/Graphics/SVG/1.1/DTD/svg11.dtd">
<svg version="1.1" id="Capa_1" xmlns="http://www.w3.org/2000/svg" xmlns:xlink="http://www.w3.org/1999/xlink" x="0px" y="0px"
	 viewBox="0 0 390 390" style="enable-background:new 0 0 390 390;" xml:space="preserve">
<g>
	<path d="M366.129,101.589c1.26-26.353-3.643-46.74-14.683-60.857c-10.969-14.036-27.461-21.455-47.689-21.455
		c-3.314,0-12.326,0.211-18.134,3.104C258.529,8.1,227.695,0,195,0C87.476,0,0,87.476,0,195c0,33.822,8.661,65.656,23.872,93.412
		c-1.259,26.352,3.641,46.738,14.68,60.856c10.972,14.037,27.465,21.593,47.694,21.455c4.924-0.033,15.749-1.789,18.136-3.103
		C131.473,381.901,162.306,390,195,390c107.524,0,195-87.476,195-195C390,161.179,381.339,129.345,366.129,101.589z M304.943,39.155
		c13.884,0,24.033,4.354,31.037,13.312c12.044,15.4,13.699,44.788,4.79,84.988l-1.979,8.93l26.239,13.042l-84.689,44.582
		l-15.561-94.434l28.516,14.18l5.865-7.582c6.156-7.95,13.9-18.603,19.217-30.452c4.903-10.929,5.57-20.535,1.98-28.562
		c-3.552-7.94-11.051-13.877-22.298-17.657C300.43,39.27,302.738,39.155,304.943,39.155z M134.234,243.55
		c-2.917-4.419-3.422-10.015-1.347-14.888c2.075-4.874,6.455-8.395,11.665-9.359l11.939-2.221c6.11-1.136,12.321,1.415,15.87,6.523
		c4.49,6.449,12.089,9.726,22.588,9.726c16.165,0,16.165-6.433,16.165-8.541c0-3.067-1.15-5.295-3.617-7.012
		c-2.518-1.759-7.11-3.321-13.64-4.648c-26.269-5.355-43.184-12.302-50.299-20.657c-7.219-8.468-10.728-17.938-10.728-28.95
		c0-11.96,3.948-22.716,11.734-31.986c7.538-8.975,19.057-14.796,34.235-17.336V95.988c0-8.739,7.081-15.819,15.815-15.819
		c8.738,0,15.819,7.08,15.819,15.819v18.544c13.582,2.599,24.185,8.087,32.244,16.704c3.713,3.975,5.126,9.574,3.74,14.832
		c-1.389,5.263-5.377,9.439-10.569,11.064l-8.194,2.563c-5.938,1.86-12.427,0.058-16.556-4.599
		c-4.121-4.647-10.237-7.007-18.18-7.007c-6.396,0-14.021,1.523-14.021,8.783c0,2.049,0.788,3.902,2.276,5.359
		c1.559,1.522,6.106,3.132,13.519,4.786c17.104,3.742,29.611,7.153,37.093,10.136c7.585,3.024,13.981,8.205,19.009,15.404
		c5.025,7.184,7.578,15.8,7.578,25.6c0,13.719-4.949,25.379-14.714,34.654c-8.336,7.918-19.498,13.199-33.225,15.751v25.448
		c0,8.739-7.081,15.819-15.819,15.819c-8.734,0-15.815-7.08-15.815-15.819v-24.6C158.764,266.699,143.765,258.015,134.234,243.55z
		 M85.054,350.845c-13.879,0-24.032-4.359-31.041-13.316c-12.036-15.4-13.688-44.788-4.784-84.989l1.976-8.921L24.97,230.567
		l84.688-44.573l15.562,94.427l-28.516-14.18l-5.869,7.581c-6.156,7.958-13.9,18.605-19.212,30.449
		c-4.908,10.932-5.571,20.543-1.985,28.564c3.553,7.94,11.056,13.882,22.3,17.657C89.568,350.726,87.259,350.845,85.054,350.845z"/>
</g>
<g>
</g>
<g>
</g>
<g>
</g>
<g>
</g>
<g>
</g>
<g>
</g>
<g>
</g>
<g>
</g>
<g>
</g>
<g>
</g>
<g>
</g>
<g>
</g>
<g>
</g>
<g>
</g>
<g>
</g>
</svg>
