<svg id="Capa_1" enable-background="new 0 0 512 512" height="512" viewBox="0 0 512 512" width="512" xmlns="http://www.w3.org/2000/svg"><path d="m150.471 488.876c-21.808-13.672-40.067-32.783-52.804-55.267-13.188-23.28-20.159-49.771-20.159-76.609v-151h30v151c0 21.665 5.623 43.043 16.262 61.823 10.29 18.165 25.034 33.6 42.637 44.635z" fill="#ff8e8e"/><path d="m277.492 512h-46.983v-30h46.983c34.284 0 66.314-13.021 90.19-36.664 23.737-23.505 36.81-54.877 36.81-88.336h30c0 41.528-16.23 80.471-45.701 109.653-29.531 29.243-69.058 45.347-111.299 45.347z" fill="#ff8e8e"/><path d="m434.492 256.333h-30v-101.333c0-68.925-56.075-125-125-125v-30c85.467 0 155 69.533 155 155z" fill="#c50048"/><path d="m107.508 155h-30c0-85.467 69.533-155 155-155v30c-68.925 0-125 56.075-125 125z" fill="#ff8e8e"/><path d="m279.492 452v-30c35.841 0 65-29.159 65-65v-133.333h30v133.333c0 52.383-42.617 95-95 95z" fill="#c50048"/><path d="m232.508 452c-52.383 0-95-42.617-95-95v-201.251c0-52.383 42.617-95 95-95h46.983c52.383 0 95 42.617 95 95h-30c0-35.841-29.159-65-65-65h-46.983c-35.841 0-65 29.159-65 65v201.251c0 35.841 29.159 65 65 65z" fill="#ff8e8e"/><path d="m259.492 392h-6.983c-30.327 0-55-24.673-55-55v-81h30v81c0 13.785 11.215 25 25 25h6.983c13.785 0 25-11.215 25-25v-76.667h30v76.667c0 30.327-24.673 55-55 55z" fill="#ff8e8e"/><path d="m314.492 236.333h-30v-60.585c0-13.785-11.215-25-25-25h-6.983c-13.785 0-25 11.215-25 25v39.918h-30v-39.918c0-30.327 24.673-55 55-55h6.983c30.327 0 55 24.673 55 55z" fill="#ff8e8e"/><g fill="#c50048"><path d="m404.492 357c0 33.459-13.073 64.832-36.81 88.336-23.876 23.643-55.906 36.664-90.19 36.664h-21.492v30h21.492c42.242 0 81.769-16.104 111.299-45.347 29.471-29.183 45.701-68.125 45.701-109.653z"/><path d="m284.492 260.333v76.667c0 13.785-11.215 25-25 25h-3.492v30h3.492c30.327 0 55-24.673 55-55v-76.667z"/><path d="m259.492 120.749h-3.492v30h3.492c13.785 0 25 11.215 25 25v60.585h30v-60.585c0-30.328-24.673-55-55-55z"/><path d="m279.492 60.749h-23.492v30h23.492c35.841 0 65 29.159 65 65h30c0-52.384-42.617-95-95-95z"/></g></svg>