<?xml version="1.0" encoding="iso-8859-1"?>
<!-- Generator: Adobe Illustrator 19.0.0, SVG Export Plug-In . SVG Version: 6.00 Build 0)  -->
<svg version="1.1" id="Capa_1" xmlns="http://www.w3.org/2000/svg" xmlns:xlink="http://www.w3.org/1999/xlink" x="0px" y="0px"
	 viewBox="0 0 511.998 511.998" style="enable-background:new 0 0 511.998 511.998;" xml:space="preserve">
<linearGradient id="SVGID_1_" gradientUnits="userSpaceOnUse" x1="228.382" y1="110.8574" x2="321.162" y2="-43.7726" gradientTransform="matrix(1.0667 0 0 -1.0667 3.267 557.5334)">
	<stop  offset="0" style="stop-color:#FFC200"/>
	<stop  offset="0.268" style="stop-color:#FFBB00"/>
	<stop  offset="0.659" style="stop-color:#FFA801"/>
	<stop  offset="1" style="stop-color:#FF9102"/>
</linearGradient>
<circle style="fill:url(#SVGID_1_);" cx="255.995" cy="454.485" r="57.513"/>
<linearGradient id="SVGID_2_" gradientUnits="userSpaceOnUse" x1="320.4345" y1="26.8998" x2="197.0945" y2="150.2398" gradientTransform="matrix(1.0667 0 0 -1.0667 3.267 557.5334)">
	<stop  offset="0" style="stop-color:#FFC200;stop-opacity:0"/>
	<stop  offset="0.203" style="stop-color:#FFBB00;stop-opacity:0.203"/>
	<stop  offset="0.499" style="stop-color:#FFA700;stop-opacity:0.499"/>
	<stop  offset="0.852" style="stop-color:#FF8800;stop-opacity:0.852"/>
	<stop  offset="1" style="stop-color:#FF7800"/>
</linearGradient>
<path style="fill:url(#SVGID_2_);" d="M255.995,396.975c-29.957,0-54.554,22.907-57.255,52.158l62.609,62.61
	c29.251-2.702,52.158-27.298,52.158-57.255C313.507,422.724,287.758,396.975,255.995,396.975z"/>
<linearGradient id="SVGID_3_" gradientUnits="userSpaceOnUse" x1="182.8628" y1="237.0479" x2="414.4429" y2="-148.9121" gradientTransform="matrix(1.0667 0 0 -1.0667 3.267 557.5334)">
	<stop  offset="0" style="stop-color:#FFC200"/>
	<stop  offset="0.268" style="stop-color:#FFBB00"/>
	<stop  offset="0.659" style="stop-color:#FFA801"/>
	<stop  offset="1" style="stop-color:#FF9102"/>
</linearGradient>
<path style="fill:url(#SVGID_3_);" d="M444.458,354.192H67.532c-25.743,0-46.611,20.868-46.611,46.612
	c0,25.743,20.868,46.612,46.611,46.612h376.926c25.743,0,46.612-20.869,46.612-46.612
	C491.069,375.06,470.201,354.192,444.458,354.192z"/>
<linearGradient id="SVGID_4_" gradientUnits="userSpaceOnUse" x1="182.14" y1="328.1452" x2="393.4199" y2="129.1352" gradientTransform="matrix(1.0667 0 0 -1.0667 3.267 557.5334)">
	<stop  offset="0" style="stop-color:#FFC200"/>
	<stop  offset="0.268" style="stop-color:#FFBB00"/>
	<stop  offset="0.659" style="stop-color:#FFA801"/>
	<stop  offset="1" style="stop-color:#FF9102"/>
</linearGradient>
<path style="fill:url(#SVGID_4_);" d="M417.478,319.025v-93.437c0-75.566-51.902-138.983-121.996-156.602
	c3.998-6.803,6.313-14.729,6.313-23.187C301.794,20.508,281.286,0,255.995,0s-45.799,20.508-45.799,45.799
	c0,8.459,2.315,16.384,6.313,23.187C146.413,86.605,94.525,150.023,94.525,225.588v93.437c0,20.227-16.398,36.626-36.625,36.626
	h396.19C433.862,355.651,417.478,339.252,417.478,319.025z M255.995,64.106c-10.114,0-18.32-8.192-18.32-18.306
	c0-10.128,8.206-18.32,18.32-18.32s18.32,8.192,18.32,18.32C274.315,55.914,266.109,64.106,255.995,64.106z"/>
<linearGradient id="SVGID_5_" gradientUnits="userSpaceOnUse" x1="433.7985" y1="142.993" x2="-2.9415" y2="97.923" gradientTransform="matrix(1.0667 0 0 -1.0667 3.267 557.5334)">
	<stop  offset="0" style="stop-color:#FFC200;stop-opacity:0"/>
	<stop  offset="0.203" style="stop-color:#FFBB00;stop-opacity:0.203"/>
	<stop  offset="0.499" style="stop-color:#FFA700;stop-opacity:0.499"/>
	<stop  offset="0.852" style="stop-color:#FF8800;stop-opacity:0.852"/>
	<stop  offset="1" style="stop-color:#FF7800"/>
</linearGradient>
<path style="fill:url(#SVGID_5_);" d="M21.5,410.067c3.519,22.257,22.786,39.277,46.032,37.172h376.926
	c23.247,2.105,42.513-14.915,46.032-37.172H21.5z"/>
<linearGradient id="SVGID_6_" gradientUnits="userSpaceOnUse" x1="433.6726" y1="215.738" x2="356.0627" y2="293.348" gradientTransform="matrix(1.0667 0 0 -1.0667 3.267 557.5334)">
	<stop  offset="0" style="stop-color:#FFC200;stop-opacity:0"/>
	<stop  offset="0.203" style="stop-color:#FFBB00;stop-opacity:0.203"/>
	<stop  offset="0.499" style="stop-color:#FFA700;stop-opacity:0.499"/>
	<stop  offset="0.852" style="stop-color:#FF8800;stop-opacity:0.852"/>
	<stop  offset="1" style="stop-color:#FF7800"/>
</linearGradient>
<path style="fill:url(#SVGID_6_);" d="M417.478,252.114v53.852l-71.708-71.708l0.261-0.015c3.686-0.203,7.289,0.953,10.276,3.122
	c13.62,9.888,30.373,15.717,48.49,15.717C409.118,253.083,413.34,252.746,417.478,252.114z"/>
<linearGradient id="SVGID_7_" gradientUnits="userSpaceOnUse" x1="342.7278" y1="443.2198" x2="409.7978" y2="283.4499" gradientTransform="matrix(1.0667 0 0 -1.0667 3.267 557.5334)">
	<stop  offset="0" style="stop-color:#D63305"/>
	<stop  offset="0.366" style="stop-color:#CF3004"/>
	<stop  offset="0.899" style="stop-color:#BC2602"/>
	<stop  offset="1" style="stop-color:#B72401"/>
</linearGradient>
<circle style="fill:url(#SVGID_7_);" cx="404.805" cy="170.432" r="86.272"/>
<path style="fill:#FFFFFF;" d="M385.346,135.879c0-2.798,1.13-5.006,3.391-6.62l16.793-16.146c1.183-1.183,2.637-1.776,4.359-1.776
	c1.938,0,3.685,0.512,5.248,1.534c1.559,1.024,2.341,2.397,2.341,4.117v106.891c0,1.723-0.863,3.095-2.583,4.117
	c-1.723,1.024-3.714,1.534-5.974,1.534c-2.369,0-4.387-0.51-6.055-1.534c-1.67-1.022-2.502-2.395-2.502-4.117v-89.775l-5.651,7.105
	c-1.077,1.077-2.26,1.614-3.552,1.614c-1.615,0-2.988-0.726-4.117-2.179C385.911,139.189,385.346,137.602,385.346,135.879z"/>
<g>
</g>
<g>
</g>
<g>
</g>
<g>
</g>
<g>
</g>
<g>
</g>
<g>
</g>
<g>
</g>
<g>
</g>
<g>
</g>
<g>
</g>
<g>
</g>
<g>
</g>
<g>
</g>
<g>
</g>
</svg>
