<?xml version="1.0"?>
<svg xmlns="http://www.w3.org/2000/svg" xmlns:xlink="http://www.w3.org/1999/xlink" version="1.1" id="Layer_1" x="0px" y="0px" viewBox="0 0 507.169 507.169" style="enable-background:new 0 0 507.169 507.169;" xml:space="preserve" width="512px" height="512px"><g><g>
	<g>
		<path d="M253.476,358.88c-24.24,0-43.96,19.656-43.96,43.804c0,24.156,19.72,43.82,43.96,43.82    c24.248,0,43.968-19.664,43.968-43.82C297.444,378.536,277.72,358.88,253.476,358.88z" data-original="#000000" class="active-path" data-old_color="#000000" fill="#5104D7"/>
	</g>
</g><g>
	<g>
		<path d="M360.732,299.197c-28.62-28.604-66.716-44.364-107.256-44.364c-40.384,0-78.376,15.656-106.988,44.08    c-11.556,11.5-11.576,30.236-0.048,41.756c5.6,5.608,13.056,8.688,20.992,8.688c7.9,0,15.328-3.064,20.92-8.624    c17.412-17.304,40.54-26.836,65.124-26.836c24.676,0,47.868,9.592,65.292,27c5.6,5.592,13.052,8.68,20.98,8.68    c7.908,0,15.332-3.064,20.928-8.624C372.248,329.452,372.268,310.725,360.732,299.197z" data-original="#000000" class="active-path" data-old_color="#000000" fill="#5104D7"/>
	</g>
</g><g>
	<g>
		<path d="M498.512,161.872C433.08,96.601,346.052,60.665,253.476,60.665c-92.452,0-179.392,35.852-244.804,100.968    c-11.556,11.5-11.564,30.236-0.016,41.756c5.596,5.58,13.04,8.648,20.96,8.648c7.916,0,15.352-3.056,20.948-8.632    c54.22-53.968,126.28-83.696,202.912-83.696c76.744,0,148.876,29.788,203.108,83.9c5.596,5.584,13.052,8.664,20.968,8.664    c7.912,0,15.348-3.072,20.94-8.64C510.052,192.124,510.064,173.381,498.512,161.872z" data-original="#000000" class="active-path" data-old_color="#000000" fill="#5104D7"/>
	</g>
</g><g>
	<g>
		<path d="M427.876,232.256C381.3,185.788,319.364,160.2,253.476,160.2c-65.768,0-127.612,25.508-174.148,71.812    c-5.604,5.572-8.688,12.984-8.7,20.876c0,7.884,3.072,15.304,8.668,20.884c5.596,5.584,13.044,8.664,20.964,8.664    c7.908,0,15.344-3.072,20.948-8.632c35.352-35.172,82.328-54.548,132.268-54.548c50.044,0,97.084,19.444,132.46,54.736    c5.604,5.592,13.048,8.672,20.972,8.672c7.912,0,15.352-3.072,20.94-8.64c5.596-5.572,8.688-12.984,8.692-20.876    C436.548,245.256,433.468,237.844,427.876,232.256z" data-original="#000000" class="active-path" data-old_color="#000000" fill="#5104D7"/>
	</g>
</g></g> </svg>