<?xml version="1.0" encoding="iso-8859-1"?>
<!-- Generator: Adobe Illustrator 17.1.0, SVG Export Plug-In . SVG Version: 6.00 Build 0)  -->
<!DOCTYPE svg PUBLIC "-//W3C//DTD SVG 1.1//EN" "http://www.w3.org/Graphics/SVG/1.1/DTD/svg11.dtd">
<svg version="1.1" id="Capa_1" xmlns="http://www.w3.org/2000/svg" xmlns:xlink="http://www.w3.org/1999/xlink" x="0px" y="0px"
	 viewBox="0 0 325.603 325.603" style="enable-background:new 0 0 325.603 325.603;" xml:space="preserve">
<g>
	<path d="M325.556,173.989c-1.013-17.711-32.962-25.66-64.652-25.66c-10.755,0-21.536,0.919-31.131,2.82V48.208
		c0-0.292-0.018-0.579-0.048-0.862c-1.014-17.712-32.961-25.66-64.651-25.66c-31.69,0-63.638,7.948-64.651,25.66
		c-0.03,0.283-0.048,0.57-0.048,0.862v69.76c-10.661-2.58-23.185-3.821-35.676-3.821c-31.69,0-63.638,7.948-64.65,25.659
		C0.018,140.088,0,140.376,0,140.668v136.729c0,18.321,32.496,26.522,64.701,26.522c32.204,0,64.698-8.201,64.698-26.522v-1.393
		c10.664,2.578,23.187,3.817,35.675,3.817c10.754,0,21.533-0.92,31.131-2.82v0.396c0,18.321,32.495,26.522,64.699,26.522
		s64.699-8.201,64.699-26.522V174.851C325.603,174.559,325.586,174.272,325.556,173.989z M229.773,167.537
		c7.811-1.835,18.188-3.208,31.131-3.208c29.235,0,45.4,7.001,48.412,10.522c-3.013,3.521-19.177,10.523-48.411,10.523
		c-12.943,0-23.319-1.373-31.132-3.209c-8.093-1.901-13.43-4.297-16-6.18c-0.553-0.405-0.983-0.787-1.279-1.134
		c0.297-0.347,0.727-0.729,1.279-1.134C216.343,171.834,221.68,169.438,229.773,167.537z M165.073,37.685
		c29.234,0,45.398,7.001,48.411,10.522c-3.013,3.521-19.177,10.522-48.41,10.522c-29.234,0-45.399-7.001-48.412-10.522
		C119.675,44.686,135.839,37.685,165.073,37.685z M116.374,66.64c12.462,5.506,30.626,8.09,48.7,8.09s36.237-2.584,48.698-8.09
		v15.358c-2.074,3.361-18.337,10.913-48.698,10.913c-30.362,0-46.626-7.552-48.7-10.913V66.64z M116.374,100.822
		c12.462,5.506,30.626,8.09,48.7,8.09s36.237-2.584,48.698-8.09v15.359c-2.074,3.361-18.337,10.911-48.698,10.911
		c-30.362,0-46.626-7.55-48.7-10.911V100.822z M64.698,130.146c15.636,0,27.53,2.003,35.676,4.405
		c7.085,2.088,11.336,4.479,12.737,6.116c-1.401,1.638-5.652,4.029-12.737,6.118c-8.146,2.401-20.038,4.404-35.673,4.404
		c-29.236,0-45.401-7.001-48.413-10.522C19.301,137.147,35.465,130.146,64.698,130.146z M16,159.1
		c12.462,5.506,30.626,8.09,48.701,8.09c12.485,0,25.012-1.234,35.673-3.813c4.772-1.153,9.173-2.575,13.025-4.277v15.36
		c-1.006,1.63-5.358,4.244-13.025,6.506c-8.146,2.402-20.033,4.407-35.673,4.407c-30.363,0-46.627-7.552-48.701-10.913V159.1z
		 M16,193.284c12.462,5.506,30.626,8.09,48.701,8.09c12.485,0,25.012-1.234,35.673-3.813c4.772-1.153,9.173-2.575,13.025-4.277
		v15.357c-1.006,1.63-5.358,4.244-13.025,6.506c-8.146,2.402-20.033,4.407-35.673,4.407c-30.363,0-46.627-7.552-48.701-10.913
		V193.284z M16,227.464c12.462,5.506,30.626,8.09,48.701,8.09c12.485,0,25.012-1.234,35.673-3.813
		c4.772-1.153,9.173-2.575,13.025-4.277v15.359c-1.005,1.631-5.357,4.244-13.025,6.506c-8.146,2.402-20.033,4.407-35.673,4.407
		c-30.364,0-46.628-7.551-48.701-10.913V227.464z M113.399,277.007c-2.083,3.363-18.347,10.911-48.698,10.911
		c-30.354,0-46.618-7.548-48.701-10.911v-15.36c12.462,5.506,30.626,8.09,48.701,8.09c14.496,0,29.041-1.667,40.664-5.165
		c2.869-0.864,5.566-1.835,8.034-2.925v8.645V277.007z M196.205,260.61c-7.813,1.836-18.186,3.211-31.131,3.211
		c-15.64,0-27.528-2.005-35.675-4.408v-17.585c10.662,2.578,23.189,3.813,35.675,3.813c10.756,0,21.533-0.923,31.131-2.824V260.61z
		 M196.205,226.43c-7.813,1.835-18.186,3.21-31.131,3.21c-15.641,0-27.529-2.005-35.675-4.407v-17.589
		c10.662,2.578,23.189,3.813,35.675,3.813c10.756,0,21.533-0.923,31.131-2.824V226.43z M196.205,174.851v17.396
		c-7.813,1.836-18.186,3.21-31.131,3.21c-15.641,0-27.529-2.005-35.675-4.407v-17.586c10.662,2.578,23.189,3.813,35.675,3.813
		c10.764,0,21.55-0.925,31.153-2.829C196.221,174.582,196.205,174.714,196.205,174.851z M165.074,161.276
		c-15.641,0-27.529-2.005-35.675-4.407v-16.201c0-0.292-0.018-0.579-0.048-0.862c-0.011-0.188-0.045-0.368-0.063-0.554
		c10.687,2.597,23.256,3.841,35.785,3.841c18.074,0,36.237-2.584,48.698-8.089v15.359
		C211.698,153.724,195.436,161.276,165.074,161.276z M309.603,277.007c-2.083,3.363-18.347,10.911-48.699,10.911
		s-46.617-7.548-48.699-10.91v-4.618v-10.743c3.452,1.525,7.354,2.818,11.557,3.902c10.973,2.829,24.075,4.188,37.143,4.188
		c18.074,0,36.238-2.584,48.699-8.09V277.007z M309.603,242.824c-2.073,3.362-18.337,10.913-48.699,10.913
		c-12.946,0-23.319-1.374-31.132-3.21c-8.094-1.901-13.432-4.297-16-6.18c-0.767-0.563-1.294-1.08-1.567-1.523v-4.622v-10.737
		c5.046,2.229,11.036,3.972,17.567,5.266c9.599,1.901,20.376,2.824,31.132,2.824c18.074,0,36.238-2.584,48.699-8.09V242.824z
		 M309.603,208.641c-2.074,3.361-18.338,10.913-48.699,10.913c-12.946,0-23.319-1.375-31.132-3.21
		c-8.094-1.902-13.432-4.298-16-6.181c-0.767-0.561-1.294-1.079-1.567-1.522v-4.622v-10.735c5.046,2.229,11.036,3.972,17.567,5.266
		c9.599,1.901,20.376,2.824,31.132,2.824c18.074,0,36.238-2.584,48.699-8.09V208.641z"/>
</g>
<g>
</g>
<g>
</g>
<g>
</g>
<g>
</g>
<g>
</g>
<g>
</g>
<g>
</g>
<g>
</g>
<g>
</g>
<g>
</g>
<g>
</g>
<g>
</g>
<g>
</g>
<g>
</g>
<g>
</g>
</svg>
