<?xml version="1.0" encoding="iso-8859-1"?>
<!-- Generator: Adobe Illustrator 19.0.0, SVG Export Plug-In . SVG Version: 6.00 Build 0)  -->
<svg version="1.1" id="Capa_1" xmlns="http://www.w3.org/2000/svg" xmlns:xlink="http://www.w3.org/1999/xlink" x="0px" y="0px"
	 viewBox="0 0 512 512" style="enable-background:new 0 0 512 512;" xml:space="preserve">
<g>
	<g>
		<path d="M272,0c-33.091,0-60,26.909-60,60s26.909,60,60,60s60-26.909,60-60S305.091,0,272,0z"/>
	</g>
</g>
<g>
	<g>
		<path d="M482,227v15c0,18.556-16.269,33.149-36.667,28.953C425.34,202.332,361.989,152,287,152H186.782
			c-4.175,0-8.101-1.743-10.767-4.775C161.851,131.199,141.445,122,120,122H75c-9.725,0-16.861,9.093-14.575,18.545l15.19,62.563
			C64.512,214.71,55.254,227.747,47.988,242C17.948,242,0,263.417,0,287v44.458c0,28.479,22.048,38.876,45.498,55.444
			c9.287,19.849,22.251,37.412,38.599,52.28c2.212,1.992,5.903,6.196,5.903,11.865v35.376C90,500.53,101.47,512,115.576,512h53.848
			c14.025,0,25.576-9.49,25.576-30h92c0,20.51,11.551,30,25.576,30h53.848C380.53,512,392,500.53,392,486.424
			c0-22.669-2.568-38.114,13.257-54.346C434.275,402.243,452,361.556,452,317c0-5.087-0.311-10.1-0.764-15.071
			c0.282,0.004,0.569,0.086,0.851,0.086C484.954,302.015,512,275.281,512,242v-15C512,207.227,482,207.146,482,227z M105,287
			c-8.284,0-15-6.716-15-15c0-8.286,6.716-15,15-15s15,6.714,15,15C120,280.284,113.284,287,105,287z M287,242h-68.218
			c-19.773,0-19.854-30,0-30H287C306.773,212,306.854,242,287,242z"/>
	</g>
</g>
<g>
</g>
<g>
</g>
<g>
</g>
<g>
</g>
<g>
</g>
<g>
</g>
<g>
</g>
<g>
</g>
<g>
</g>
<g>
</g>
<g>
</g>
<g>
</g>
<g>
</g>
<g>
</g>
<g>
</g>
</svg>
