<?xml version="1.0" encoding="iso-8859-1"?>
<!-- Generator: Adobe Illustrator 19.0.0, SVG Export Plug-In . SVG Version: 6.00 Build 0)  -->
<svg version="1.1" id="Capa_1" xmlns="http://www.w3.org/2000/svg" xmlns:xlink="http://www.w3.org/1999/xlink" x="0px" y="0px"
	 viewBox="0 0 512 512" style="enable-background:new 0 0 512 512;" xml:space="preserve">
<g>
	<g>
		<path d="M326.017,342h-69.994c-8.283,0-14.999,6.716-14.999,15v31.16c-61.369-6.922-110.229-55.786-117.149-117.16h31.157
			c8.283,0,14.999-6.716,14.999-15v-70c0-24.813-20.185-45-44.996-45H36.712c-5.871,0-11.202,3.425-13.642,8.765
			c-42.756,93.57-26.42,209.079,51.844,287.353c79.589,79.598,195.621,93.77,287.334,51.854c5.339-2.44,8.765-7.772,8.765-13.643
			V387C371.013,362.187,350.828,342,326.017,342z M341.017,465.472L341.017,465.472c-78.919,32.134-176.942,18.39-244.89-49.567
			C29.167,348.939,13.86,251.344,46.569,171h78.466c8.27,0,14.999,6.729,14.999,15v55h-31.997c-8.283,0-14.999,6.716-14.999,15
			c0,89.878,73.115,163,162.986,163c8.283,0,14.999-6.716,14.999-15v-32h54.995c8.271,0,14.999,6.729,14.999,15V465.472z"/>
	</g>
</g>
<g>
	<g>
		<path d="M507.608,4.394c-5.857-5.858-15.354-5.858-21.211,0L312.018,178.787V95c0-8.284-6.715-15-14.999-15
			s-14.999,6.716-14.999,15v119.995c-0.003,8.339,6.826,15.005,14.999,15.005h119.99c8.283,0,14.999-6.716,14.999-15
			s-6.715-15-14.999-15h-83.78L507.608,25.607C513.464,19.749,513.464,10.252,507.608,4.394z"/>
	</g>
</g>
<g>
</g>
<g>
</g>
<g>
</g>
<g>
</g>
<g>
</g>
<g>
</g>
<g>
</g>
<g>
</g>
<g>
</g>
<g>
</g>
<g>
</g>
<g>
</g>
<g>
</g>
<g>
</g>
<g>
</g>
</svg>
