<?xml version="1.0" encoding="iso-8859-1"?>
<!-- Generator: Adobe Illustrator 19.0.0, SVG Export Plug-In . SVG Version: 6.00 Build 0)  -->
<svg version="1.1" id="Capa_1" xmlns="http://www.w3.org/2000/svg" xmlns:xlink="http://www.w3.org/1999/xlink" x="0px" y="0px"
	 viewBox="0 0 489.4 489.4" style="enable-background:new 0 0 489.4 489.4;" xml:space="preserve">
<g>
	<g>
		<path d="M0,437.8c0,28.5,23.2,51.6,51.6,51.6h386.2c28.5,0,51.6-23.2,51.6-51.6V51.6c0-28.5-23.2-51.6-51.6-51.6H51.6
			C23.1,0,0,23.2,0,51.6C0,51.6,0,437.8,0,437.8z M437.8,464.9H51.6c-14.9,0-27.1-12.2-27.1-27.1v-64.5l92.8-92.8l79.3,79.3
			c4.8,4.8,12.5,4.8,17.3,0l143.2-143.2l107.8,107.8v113.4C464.9,452.7,452.7,464.9,437.8,464.9z M51.6,24.5h386.2
			c14.9,0,27.1,12.2,27.1,27.1v238.1l-99.2-99.1c-4.8-4.8-12.5-4.8-17.3,0L205.2,333.8l-79.3-79.3c-4.8-4.8-12.5-4.8-17.3,0
			l-84.1,84.1v-287C24.5,36.7,36.7,24.5,51.6,24.5z"/>
		<path d="M151.7,196.1c34.4,0,62.3-28,62.3-62.3s-28-62.3-62.3-62.3s-62.3,28-62.3,62.3S117.3,196.1,151.7,196.1z M151.7,96
			c20.9,0,37.8,17,37.8,37.8s-17,37.8-37.8,37.8s-37.8-17-37.8-37.8S130.8,96,151.7,96z"/>
	</g>
</g>
<g>
</g>
<g>
</g>
<g>
</g>
<g>
</g>
<g>
</g>
<g>
</g>
<g>
</g>
<g>
</g>
<g>
</g>
<g>
</g>
<g>
</g>
<g>
</g>
<g>
</g>
<g>
</g>
<g>
</g>
</svg>
