<svg id="Icons_24pt_ic_help_white" data-name="Icons/24pt/ic_help_white" xmlns="http://www.w3.org/2000/svg" width="24" height="24" viewBox="0 0 24 24">
  <g id="Icon">
    <g id="ic_help_white">
      <rect id="bound" width="24" height="24" opacity="0"/>
      <path id="Fill" d="M10,20A10,10,0,1,1,20,10,10.011,10.011,0,0,1,10,20ZM10,2a8,8,0,1,0,8,8A8.009,8.009,0,0,0,10,2ZM9.592,15.661H9.544a1.219,1.219,0,0,1-1.245-1.3,1.241,1.241,0,0,1,1.272-1.239h.046a1.232,1.232,0,0,1,1.257,1.315A1.209,1.209,0,0,1,9.592,15.661Zm.895-3.627H8.8a.214.214,0,0,1-.161-.053.142.142,0,0,1-.036-.106,3.5,3.5,0,0,1,.429-1.786,5.676,5.676,0,0,1,1.535-1.315,1.843,1.843,0,0,0,.413-.421,1.523,1.523,0,0,0,.347-.859,1.5,1.5,0,0,0-.317-.985,1.256,1.256,0,0,0-1.116-.5,1.22,1.22,0,0,0-1.1.643A1.815,1.815,0,0,0,8.6,7.693c0,.049,0,.1,0,.147H6.5A3.259,3.259,0,0,1,7.7,4.879,3.636,3.636,0,0,1,9.762,4.34a4.159,4.159,0,0,1,2.674.769A2.665,2.665,0,0,1,13.5,7.38a2.584,2.584,0,0,1-.526,1.556,6.1,6.1,0,0,1-1.1.982l-.566.391a1.508,1.508,0,0,0-.538.747,4.6,4.6,0,0,0-.091.809A.178.178,0,0,1,10.487,12.034Z" transform="translate(2 2)" fill="#1e1f20"/>
    </g>
  </g>
</svg>
