<?xml version="1.0" encoding="iso-8859-1"?>
<!-- Generator: Adobe Illustrator 19.0.0, SVG Export Plug-In . SVG Version: 6.00 Build 0)  -->
<svg version="1.1" id="Capa_1" xmlns="http://www.w3.org/2000/svg" xmlns:xlink="http://www.w3.org/1999/xlink" x="0px" y="0px"
	 viewBox="0 0 468.293 468.293" style="enable-background:new 0 0 468.293 468.293;" xml:space="preserve">
<path style="fill:#D15241;" d="M234.146,0C104.898,0,0,104.898,0,234.146s104.898,234.146,234.146,234.146
	s234.146-104.898,234.146-234.146S363.395,0,234.146,0z M66.185,234.146c0-93.034,75.551-168.585,167.961-168.585
	c34.966,0,68.059,10.615,94.907,29.346L95.532,329.054C76.8,302.205,66.185,269.112,66.185,234.146z M234.146,402.107
	c-34.966,0-68.059-10.615-94.907-29.346l233.522-233.522c18.732,26.849,29.346,59.941,29.346,94.907
	C402.107,327.18,327.18,402.107,234.146,402.107z"/>
<g>
</g>
<g>
</g>
<g>
</g>
<g>
</g>
<g>
</g>
<g>
</g>
<g>
</g>
<g>
</g>
<g>
</g>
<g>
</g>
<g>
</g>
<g>
</g>
<g>
</g>
<g>
</g>
<g>
</g>
</svg>
