<svg height="424pt" viewBox="0 -25 424 424" width="424pt" xmlns="http://www.w3.org/2000/svg"><path d="m377 374.085938h-330c-25.914062 0-47-21.082032-47-47v-280.085938c0-25.914062 21.085938-47 47-47h330c25.914062 0 47 21.085938 47 47v280.085938c0 25.917968-21.085938 47-47 47zm-330-360.085938c-18.195312 0-33 14.804688-33 33v280.085938c0 18.195312 14.804688 33 33 33h330c18.195312 0 33-14.804688 33-33v-280.085938c0-18.195312-14.804688-33-33-33zm0 0"/><path d="m417 112.089844h-410c-3.867188 0-7-3.132813-7-7 0-3.863282 3.132812-7 7-7h410c3.867188 0 7 3.136718 7 7 0 3.867187-3.132812 7-7 7zm0 0"/><path d="m119.601562 78.59375c-12.210937 0-22.152343-9.941406-22.152343-22.152344 0-12.214844 9.941406-22.152344 22.152343-22.152344 12.214844 0 22.152344 9.9375 22.152344 22.152344 0 12.210938-9.9375 22.152344-22.152344 22.152344zm0-30.304688c-4.492187 0-8.152343 3.65625-8.152343 8.152344s3.660156 8.152344 8.152343 8.152344c4.496094 0 8.152344-3.65625 8.152344-8.152344s-3.65625-8.152344-8.152344-8.152344zm0 0"/><path d="m51.539062 78.378906c-12.214843 0-22.152343-9.9375-22.152343-22.152344 0-12.214843 9.9375-22.152343 22.152343-22.152343 12.214844 0 22.152344 9.9375 22.152344 22.152343 0 12.214844-9.9375 22.152344-22.152344 22.152344zm0-30.304687c-4.492187 0-8.152343 3.660156-8.152343 8.152343 0 4.496094 3.660156 8.152344 8.152343 8.152344 4.496094 0 8.152344-3.65625 8.152344-8.152344 0-4.492187-3.65625-8.152343-8.152344-8.152343zm0 0"/><path d="m187.664062 78.804688c-12.210937 0-22.148437-9.9375-22.148437-22.152344 0-12.210938 9.9375-22.148438 22.148437-22.148438 12.214844 0 22.152344 9.9375 22.152344 22.148438 0 12.214844-9.9375 22.152344-22.152344 22.152344zm0-30.304688c-4.492187 0-8.148437 3.65625-8.148437 8.152344s3.65625 8.152344 8.148437 8.152344c4.496094 0 8.152344-3.65625 8.152344-8.152344s-3.65625-8.152344-8.152344-8.152344zm0 0"/><path d="m55.425781 271.433594c-13.914062 0-25.230469-10.941406-25.230469-24.390625s11.316407-24.390625 25.230469-24.390625c13.914063 0 25.234375 10.941406 25.234375 24.390625s-11.320312 24.390625-25.234375 24.390625zm0-34.78125c-6.191406 0-11.230469 4.660156-11.230469 10.390625s5.039063 10.390625 11.230469 10.390625c6.195313 0 11.234375-4.660156 11.234375-10.390625s-5.039062-10.390625-11.234375-10.390625zm0 0"/><path d="m217.195312 254.042969h-104.015624c-3.867188 0-7-3.132813-7-7 0-3.867188 3.132812-7 7-7h104.015624c3.863282 0 7 3.132812 7 7 0 3.867187-3.132812 7-7 7zm0 0"/><path d="m55.425781 209.003906c-13.914062 0-25.230469-10.941406-25.230469-24.390625s11.316407-24.390625 25.230469-24.390625c13.914063 0 25.234375 10.941406 25.234375 24.390625s-11.320312 24.390625-25.234375 24.390625zm0-34.78125c-6.191406 0-11.230469 4.664063-11.230469 10.390625 0 5.730469 5.039063 10.394531 11.230469 10.394531 6.195313 0 11.234375-4.664062 11.234375-10.394531 0-5.726562-5.039062-10.390625-11.234375-10.390625zm0 0"/><path d="m217.195312 191.613281h-104.015624c-3.867188 0-7-3.132812-7-7 0-3.863281 3.132812-7 7-7h104.015624c3.863282 0 7 3.136719 7 7 0 3.867188-3.132812 7-7 7zm0 0"/><path d="m55.425781 333.863281c-13.914062 0-25.230469-10.941406-25.230469-24.394531 0-13.449219 11.316407-24.390625 25.230469-24.390625 13.914063 0 25.234375 10.941406 25.234375 24.390625 0 13.453125-11.320312 24.394531-25.234375 24.394531zm0-34.785156c-6.191406 0-11.230469 4.664063-11.230469 10.394531 0 5.726563 5.039063 10.390625 11.230469 10.390625 6.195313 0 11.234375-4.664062 11.234375-10.390625 0-5.730468-5.039062-10.394531-11.234375-10.394531zm0 0"/><path d="m387.195312 316.46875h-274.015624c-3.867188 0-7-3.132812-7-7 0-3.863281 3.132812-7 7-7h274.015624c3.863282 0 7 3.136719 7 7 0 3.867188-3.132812 7-7 7zm0 0"/><path d="m386.804688 253.222656h-134c-3.863282 0-7-3.132812-7-7v-79c0-3.863281 3.136718-7 7-7h134c3.867187 0 7 3.136719 7 7v79c0 3.867188-3.132813 7-7 7zm-127-14h120v-65h-120zm0 0"/></svg>