<?xml version="1.0" encoding="iso-8859-1"?>
<!-- Generator: Adobe Illustrator 19.0.0, SVG Export Plug-In . SVG Version: 6.00 Build 0)  -->
<svg version="1.1" id="Capa_1" xmlns="http://www.w3.org/2000/svg" xmlns:xlink="http://www.w3.org/1999/xlink" x="0px" y="0px"
	 viewBox="0 0 512 512" style="enable-background:new 0 0 512 512;" xml:space="preserve">
<g>
	<g>
		<g>
			<path d="M501.333,341.333H10.667C4.771,341.333,0,346.104,0,352v10.688c0,16.052,4.708,31.604,13.625,44.979
				c7.927,11.896,21.198,19,35.5,19h413.75c14.292,0,27.573-7.104,35.51-19.01C507.292,394.281,512,378.74,512,362.688V352
				C512,346.104,507.229,341.333,501.333,341.333z"/>
			<path d="M46.948,320h418.104c3.198,0,6.229-1.438,8.26-3.917c2.021-2.479,2.833-5.74,2.198-8.875
				c-19.122-94.139-96.831-164.665-190.228-177.064c1.727-3.93,2.717-8.251,2.717-12.811c0-17.646-14.354-32-32-32s-32,14.354-32,32
				c0,4.56,0.991,8.882,2.717,12.811C133.32,142.543,55.612,213.069,36.49,307.208c-0.635,3.135,0.177,6.396,2.198,8.875
				C40.719,318.563,43.75,320,46.948,320z M98.938,261.323c18.188-31.448,45.042-56.479,77.646-72.375
				c5.333-2.604,11.698-0.385,14.26,4.906c2.583,5.292,0.385,11.677-4.906,14.26c-28.771,14.042-52.479,36.135-68.542,63.896
				c-1.969,3.417-5.552,5.323-9.24,5.323c-1.813,0-3.646-0.458-5.333-1.438C97.729,272.948,95.979,266.427,98.938,261.323z"/>
		</g>
	</g>
</g>
<g>
</g>
<g>
</g>
<g>
</g>
<g>
</g>
<g>
</g>
<g>
</g>
<g>
</g>
<g>
</g>
<g>
</g>
<g>
</g>
<g>
</g>
<g>
</g>
<g>
</g>
<g>
</g>
<g>
</g>
</svg>
