<?xml version="1.0" encoding="iso-8859-1"?>
<!-- Generator: Adobe Illustrator 19.0.0, SVG Export Plug-In . SVG Version: 6.00 Build 0)  -->
<svg version="1.1" id="Capa_1" xmlns="http://www.w3.org/2000/svg" xmlns:xlink="http://www.w3.org/1999/xlink" x="0px" y="0px"
	 viewBox="0 0 511.794 511.794" style="enable-background:new 0 0 511.794 511.794;" xml:space="preserve">
<path style="fill:#607D8B;" d="M405.975,238.817l-0.213-0.213"/>
<path d="M405.825,249.484c-2.775-0.002-5.434-1.116-7.381-3.093l-0.213-0.213c-4.093-4.237-3.975-10.99,0.262-15.083
	c4.134-3.993,10.687-3.993,14.821,0c4.254,4.076,4.398,10.828,0.322,15.081c-2.038,2.127-4.865,3.316-7.81,3.286V249.484z"/>
<path style="fill:#FFC107;" d="M416.428,238.39c-0.019-2.019-0.587-3.996-1.643-5.717
	c-41.847-63.713-94.017-120.007-154.368-166.571c-4.646-3.622-11.349-2.791-14.97,1.856c-2.635,3.381-2.991,8.012-0.902,11.755
	c28.056,52.253,43.177,110.469,44.096,169.771c0,3.413,0,6.656-0.192,10.069c-0.126,2.942,0.952,5.807,2.987,7.936
	c0.323,0.332,0.665,0.645,1.024,0.939c16.917,17.835,74.347,108.651,63.147,166.763c-0.984,5.148,1.919,10.249,6.848,12.032
	c1.162,0.426,2.389,0.643,3.627,0.64c3.889-0.001,7.469-2.118,9.344-5.525c27.641-60.508,41.709-126.332,41.216-192.853
	C416.641,245.644,416.641,241.825,416.428,238.39z"/>
<path style="fill:#2196F3;" d="M223.852,245.473c-12.139-29.909-69.163-90.283-127.211-134.656
	c-23.179-18.176-56.703-14.12-74.879,9.059s-14.12,56.703,9.059,74.879c0.864,0.677,1.748,1.327,2.651,1.95
	c84.693,51.861,134.187,171.307,130.133,196.075c-0.915,5.524,2.597,10.815,8.043,12.117c0.817,0.202,1.655,0.302,2.496,0.299
	c4.664-0.003,8.786-3.036,10.176-7.488c1.055-2.609,2.446-5.069,4.139-7.317c24.681-42.792,37.192-91.518,36.181-140.907
	C224.633,248.109,224.365,246.748,223.852,245.473z"/>
<path style="fill:#F44336;" d="M263.873,70.86c-11.641-27.057-43.012-39.555-70.069-27.914
	c-25.016,10.762-37.905,38.642-29.899,64.671c1.298,3.953,3.214,7.675,5.675,11.029c23.116,39.658,34.79,84.946,33.728,130.837
	c1.101,45.495-10.347,90.415-33.088,129.835c-2.602,3.499-4.665,7.368-6.123,11.477c-10.284,27.602,3.756,58.314,31.357,68.597
	c13.247,4.935,27.911,4.41,40.771-1.461c12.392-5.491,22.092-15.683,26.965-28.331c27.877-52.124,43.779-109.808,46.549-168.853
	c0.213-3.84,0.235-7.445,0.235-11.264C309.088,187.116,293.28,125.867,263.873,70.86z"/>
<path style="fill:#4CAF50;" d="M455.254,34.593c-10.358-27.574-41.108-41.53-68.682-31.172
	c-13.128,4.931-23.785,14.835-29.665,27.567c-6.078,13.392-6.356,28.7-0.768,42.304c24.628,54.146,37.706,112.829,38.4,172.309
	c0.192,3.435,0.192,6.848,0.192,10.261c0.539,63.456-12.845,126.257-39.211,183.979c-10.284,27.602,3.756,58.314,31.357,68.597
	c13.247,4.935,27.911,4.41,40.771-1.461c12.392-5.491,22.092-15.683,26.965-28.331c25.92-46.571,46.784-160,46.784-222.784
	S480.492,79.649,455.254,34.593z"/>
<g>
</g>
<g>
</g>
<g>
</g>
<g>
</g>
<g>
</g>
<g>
</g>
<g>
</g>
<g>
</g>
<g>
</g>
<g>
</g>
<g>
</g>
<g>
</g>
<g>
</g>
<g>
</g>
<g>
</g>
</svg>
