<svg id="fc473563-838c-4b37-be93-34ef803eaab9" data-name="Layer 1" xmlns="http://www.w3.org/2000/svg" width="1132" height="861.22144" viewBox="0 0 1132 861.22144"><title>location_search</title><rect x="351.6472" y="719.18961" width="780.3528" height="2.78201" fill="#3f3d56"/><rect x="83.59129" y="858.43943" width="780.3528" height="2.78201" fill="#3f3d56"/><path d="M946.77263,590.177C1053.75283,708.4854,743.6355,878.98521,493.05316,878.98521S69.107,746.878,39.33368,590.177C-32.85647,210.2299,654.411-31.26238,493.05316,301.3687,257.85547,786.217,862.52351,497.00656,946.77263,590.177Z" transform="translate(-34 -19.38928)" fill="#3f3d56"/><circle cx="331.97045" cy="193.46663" r="9.1137" fill="#d0cde1"/><circle cx="208.42918" cy="739.27603" r="9.1137" fill="#d0cde1"/><circle cx="348.17259" cy="327.13424" r="4.05053" fill="#d0cde1"/><circle cx="135.51958" cy="537.76198" r="4.05053" fill="#d0cde1"/><circle cx="668.16474" cy="689.65699" r="4.05053" fill="#d0cde1"/><circle cx="122.35534" cy="331.18477" r="4.05053" fill="#d0cde1"/><polygon points="368.425 223.846 366.4 223.846 366.4 221.82 365.387 221.82 365.387 223.846 363.362 223.846 363.362 224.858 365.387 224.858 365.387 226.884 366.4 226.884 366.4 224.858 368.425 224.858 368.425 223.846" fill="#d0cde1"/><polygon points="213.492 257.263 211.467 257.263 211.467 255.237 210.454 255.237 210.454 257.263 208.429 257.263 208.429 258.275 210.454 258.275 210.454 260.3 211.467 260.3 211.467 258.275 213.492 258.275 213.492 257.263" fill="#d0cde1"/><polygon points="112.229 447.638 110.204 447.638 110.204 445.612 109.191 445.612 109.191 447.638 107.166 447.638 107.166 448.65 109.191 448.65 109.191 450.676 110.204 450.676 110.204 448.65 112.229 448.65 112.229 447.638" fill="#d0cde1"/><circle cx="396.77899" cy="776.74347" r="4.05053" fill="#d0cde1"/><circle cx="383.61476" cy="570.16625" r="4.05053" fill="#d0cde1"/><circle cx="862.59035" cy="645.10112" r="4.05053" fill="#d0cde1"/><polygon points="373.488 686.619 371.463 686.619 371.463 684.594 370.451 684.594 370.451 686.619 368.425 686.619 368.425 687.632 370.451 687.632 370.451 689.657 371.463 689.657 371.463 687.632 373.488 687.632 373.488 686.619" fill="#d0cde1"/><polygon points="569.939 758.516 567.914 758.516 567.914 756.491 566.901 756.491 566.901 758.516 564.876 758.516 564.876 759.529 566.901 759.529 566.901 761.554 567.914 761.554 567.914 759.529 569.939 759.529 569.939 758.516" fill="#d0cde1"/><polygon points="73.749 578.267 71.724 578.267 71.724 576.242 70.711 576.242 70.711 578.267 68.686 578.267 68.686 579.28 70.711 579.28 70.711 581.305 71.724 581.305 71.724 579.28 73.749 579.28 73.749 578.267" fill="#d0cde1"/><polygon points="355.261 432.448 353.236 432.448 353.236 430.423 352.223 430.423 352.223 432.448 350.198 432.448 350.198 433.461 352.223 433.461 352.223 435.486 353.236 435.486 353.236 433.461 355.261 433.461 355.261 432.448" fill="#d0cde1"/><polygon points="230.707 312.957 228.682 312.957 228.682 310.932 227.669 310.932 227.669 312.957 225.644 312.957 225.644 313.97 227.669 313.97 227.669 315.995 228.682 315.995 228.682 313.97 230.707 313.97 230.707 312.957" fill="#d0cde1"/><polygon points="313.743 512.446 311.718 512.446 311.718 510.421 310.705 510.421 310.705 512.446 308.68 512.446 308.68 513.459 310.705 513.459 310.705 515.484 311.718 515.484 311.718 513.459 313.743 513.459 313.743 512.446" fill="#d0cde1"/><polygon points="192.227 638.013 190.202 638.013 190.202 635.987 189.189 635.987 189.189 638.013 187.164 638.013 187.164 639.025 189.189 639.025 189.189 641.051 190.202 641.051 190.202 639.025 192.227 639.025 192.227 638.013" fill="#d0cde1"/><ellipse cx="233.74502" cy="457.76395" rx="59.74537" ry="9.1137" fill="#9cc7ef"/><path d="M273.82082,480.19113c-24.42286,0-60.758-2.69673-60.758-10.12634s36.33515-10.12633,60.758-10.12633,60.758,2.69673,60.758,10.12633S298.24367,480.19113,273.82082,480.19113Zm0-18.2274c-15.90942,0-30.85862.94341-42.09351,2.65816-13.16177,2.00747-16.63923,4.43818-16.63923,5.4429s3.47746,3.43544,16.63923,5.44291c11.23489,1.71475,26.18409,2.65816,42.09351,2.65816s30.85861-.94341,42.0935-2.65816c13.16177-2.00747,16.63923-4.43818,16.63923-5.44291s-3.47746-3.43543-16.63923-5.4429C304.67943,462.90714,289.73024,461.96373,273.82082,461.96373Z" transform="translate(-34 -19.38928)" fill="#d0cde1"/><path d="M273.82082,322.22032c-21.252,0-38.48007,5.07651-38.48007,26.32847s17.22811,106.3265,38.48007,106.3265,38.48006-85.07455,38.48006-106.3265S295.07277,322.22032,273.82082,322.22032Zm0,54.6822A16.20214,16.20214,0,1,1,290.023,360.70039,16.20214,16.20214,0,0,1,273.82082,376.90252Z" transform="translate(-34 -19.38928)" fill="#9cc7ef"/><path d="M993.0325,553.93017c-84.2492-93.17037-688.91717,196.04-453.71947-288.80825C644.15272,49.00009,390.74344,75.25,220.15922,224.36707,385.34665,110.9407,584.73888,107.67164,489.694,303.602,254.49629,788.45023,859.16426,499.23987,943.41346,592.41024c39.20172,43.35281,22.39277,93.71327-26.96656,140.12487C1001.28622,676.92946,1043.41138,609.64373,993.0325,553.93017Z" transform="translate(-34 -19.38928)" fill="#d0cde1"/><path d="M497.218,877.13384l-1.30276-.48839c-.28627-.10787-28.77869-11.02427-42.12576-35.77673-13.34767-24.75364-6.81194-54.55711-6.74437-54.85465l.30762-1.35728,1.30216.48838c.28628.10787,28.7781,11.02428,42.12577,35.77673,13.34766,24.75364,6.81193,54.55711,6.74436,54.85465Zm-41.29123-37.41733c11.28446,20.92834,33.80006,31.65626,39.50483,34.10531,1.08464-6.11433,4.48616-30.83952-6.78823-51.7477-11.27321-20.90582-33.79769-31.65034-39.50483-34.10531C448.05325,794.08669,444.65291,818.80951,455.92672,839.71651Z" transform="translate(-34 -19.38928)" fill="#d0cde1"/><path d="M463.98969,833.39981c23.98647,14.43106,33.22441,43.09511,33.22441,43.09511s-29.6518,5.26669-53.63827-9.16437-33.22442-43.0951-33.22442-43.0951S440.00321,818.96876,463.98969,833.39981Z" transform="translate(-34 -19.38928)" fill="#9cc7ef"/><path d="M800.55116,309.37464s-54.96169,53.86245-31.87778,60.45786S818.1389,320.367,818.1389,320.367Z" transform="translate(-34 -19.38928)" fill="#ffb9b9"/><polygon points="821.513 471.359 814.917 502.137 864.383 504.336 856.688 471.359 821.513 471.359" fill="#ffb9b9"/><polygon points="977.604 661.526 971.009 692.305 1020.474 694.503 1012.779 661.526 977.604 661.526" fill="#ffb9b9"/><path d="M924.76456,285.1915l4.39694,17.58774S807.14656,278.5961,813.742,340.15319s35.17548,120.9157,35.17548,120.9157-2.19847,19.78621,2.19847,23.08391,0,14.29,0,14.29,40.67164,5.49617,41.77087-4.39693a68.94258,68.94258,0,0,0-1.09923-19.78621s2.19847,0,0-10.99233S880.70848,363.6246,874.11308,351.533c0,0,58.34612,44.68107,89.12466,39.1849,0,0-4.39694,43.96935,13.1908,102.22874s17.58774,64.85478,17.58774,64.85478,20.88544,111.0226,15.38927,124.21341l-1.09923,5.49616H1048.978s-3.2977-58.25938,0-65.954,3.29771-73.64865-15.38927-106.62566c-13.23339-23.353-10.76865-91.06558-3.53006-117.8298,6.07873-22.47577,7.61382-39.77427,4.05053-62.78327-3.81056-24.60564-15.1895-37.46744-29.10054-49.12677Z" transform="translate(-34 -19.38928)" fill="#2f2e41"/><circle cx="923.19195" cy="60.79514" r="39.57241" fill="#ffb9b9"/><path d="M946.74923,108.21488s12.09157,35.17548,10.99234,41.77088,35.17548-13.1908,35.17548-13.1908-14.29-35.17548-9.8931-45.06858Z" transform="translate(-34 -19.38928)" fill="#ffb9b9"/><path d="M990.71858,124.70339,952.2454,140.09266l2.19847,13.1908s-3.2977,4.39694-2.19847,6.59541-14.29,10.99233-12.09157,14.29-13.1908,16.48851-12.09157,19.78621S892.88678,217.039,912.673,255.51219c0,0,10.25858,13.33616,8.97313,29.10716q-.06777.83142-.17926,1.67139c-2.19847,16.4885,83.54176-2.19847,83.54176-2.19847v-18.687s7.69463-3.2977,6.5954-17.58774-7.69464-7.69464,0-15.38927,7.69464-6.5954,6.5954-13.19081c-.43895-2.63373-.52733-12.10371-.47513-22.53012A100.02423,100.02423,0,0,0,997.314,135.69575l0,0Z" transform="translate(-34 -19.38928)" fill="#d0cde1"/><path d="M969.83314,153.28346,898.383,228.03135l-104.4272,82.44253,23.08391,18.687,192.36589-128.61034S1025.89406,130.19956,969.83314,153.28346Z" transform="translate(-34 -19.38928)" fill="#d0cde1"/><path d="M858.81054,507.2367s-7.69463-13.1908-13.1908-8.79387l-38.47318,30.77855s-68.15249,19.7862-2.19847,35.17547c0,0,36.27471,5.49617,43.96935,0s19.7862-4.39693,23.08391-2.19846,45.06858-1.09924,45.06858-9.89311-23.038-47.22713-23.038-47.22713S880.79521,520.42751,858.81054,507.2367Z" transform="translate(-34 -19.38928)" fill="#2f2e41"/><path d="M1014.90172,697.40413s-7.69463-13.19081-13.1908-8.79387L963.23774,719.3888s-68.15249,19.78621-2.19847,35.17548c0,0,36.27471,5.49617,43.96935,0s19.7862-4.39694,23.08391-2.19847,45.06858-1.09923,45.06858-9.8931-23.038-47.22714-23.038-47.22714S1036.88639,710.59493,1014.90172,697.40413Z" transform="translate(-34 -19.38928)" fill="#2f2e41"/><path d="M909.76753,64.49072s6.691-58.81618,63.91657-42.11637c0,0,40.4838-8.23448,54.78266,42.32777l14.51336,53.01084-6.64334-3.45229-2.93649,6.75888-10.60217,2.90267-4.73284-8.96141-1.99449,11.03117L942.85286,140.7951S967.615,112.503,967.43941,71.06645L960.146,79.07624Z" transform="translate(-34 -19.38928)" fill="#2f2e41"/><ellipse cx="611.45727" cy="551.93885" rx="107.33914" ry="14.17687" fill="#2f2e41"/><path d="M703.77068,399.90733H702.5V365.09684a20.14737,20.14737,0,0,0-20.14743-20.1474h-73.7507a20.14737,20.14737,0,0,0-20.14743,20.1474v190.9731a20.14737,20.14737,0,0,0,20.14743,20.14739h73.7507A20.14737,20.14737,0,0,0,702.5,556.06994V424.686h1.27071Z" transform="translate(-34 -19.38928)" fill="#3f3d56"/><path d="M682.689,350.66761h-9.62691a7.14823,7.14823,0,0,1-6.6183,9.84794H624.19292a7.14823,7.14823,0,0,1-6.61829-9.84794h-8.99156a15.04583,15.04583,0,0,0-15.04585,15.04581V556.40636a15.04584,15.04584,0,0,0,15.04585,15.04583H682.689a15.04584,15.04584,0,0,0,15.04585-15.04583V365.71342A15.04583,15.04583,0,0,0,682.689,350.66761Z" transform="translate(-34 -19.38928)" fill="#9cc7ef"/><circle cx="595.25514" cy="399.03121" r="21.2653" fill="#d0cde1"/><path d="M684.53162,449.28221l-25.72154-25.72154a23.27132,23.27132,0,1,0-6.69368,6.69367L677.838,455.97589Zm-56.89626-26.77472a16.566,16.566,0,1,1,23.42787,0A16.566,16.566,0,0,1,627.63536,422.50749Z" transform="translate(-34 -19.38928)" fill="#3f3d56"/><rect x="569.9393" y="454.72605" width="83.03594" height="10.12633" fill="#3f3d56"/></svg>