<?xml version="1.0" encoding="iso-8859-1"?>
<!-- Generator: Adobe Illustrator 19.0.0, SVG Export Plug-In . SVG Version: 6.00 Build 0)  -->
<svg version="1.1" id="Capa_1" xmlns="http://www.w3.org/2000/svg" xmlns:xlink="http://www.w3.org/1999/xlink" x="0px" y="0px"
	 viewBox="0 0 512 512" style="enable-background:new 0 0 512 512;" xml:space="preserve">
<g>
	<g transform="translate(4 7)">
		<polygon style="fill:#C52828;" points="456.8,121 414.133,496.467 252,496.467 209.333,121 		"/>
		<polygon style="fill:#F44335;" points="431.2,121 388.533,496.467 252,496.467 209.333,121 		"/>
		<path style="fill:#2E7D32;" d="M328.8,351.4v76.8h-39.168c-2.237,0.018-4.379,0.905-5.973,2.475l-40.192,40.192l-40.192-40.192
			c-1.594-1.57-3.736-2.457-5.973-2.475H55.733v-76.8H328.8z"/>
		<path style="fill:#4CAF50;" d="M303.2,351.4v76.8h-39.168c-2.237,0.018-4.379,0.905-5.973,2.475l-40.192,40.192l-40.192-40.192
			c-1.594-1.57-3.736-2.457-5.973-2.475H55.733v-76.8H303.2z"/>
		<path style="fill:#E6E7E8;" d="M448.267,69.8v34.133h-230.4V69.8c0.028-9.414,7.653-17.039,17.067-17.067H431.2
			C440.614,52.761,448.239,60.386,448.267,69.8z"/>
		<path style="fill:#D1D4D1;" d="M473.867,103.933V121c0,4.713-3.821,8.533-8.533,8.533H200.8c-4.713,0-8.533-3.821-8.533-8.533
			v-17.067c0.028-9.414,7.653-17.039,17.067-17.067H456.8C466.214,86.895,473.839,94.519,473.867,103.933z"/>
		<g>
			<path style="fill:#F4F4F4;" d="M192.267,103.933h230.4V69.8c-0.028-9.414-7.653-17.039-17.067-17.067H234.933
				c-9.414,0.028-17.039,7.653-17.067,17.067v17.067h-8.533L192.267,103.933z"/>
			<path style="fill:#F4F4F4;" d="M192.267,103.933V121c0,4.713,3.821,8.533,8.533,8.533h238.933c4.713,0,8.533-3.821,8.533-8.533
				v-17.067c-0.028-9.414-7.653-17.039-17.067-17.067H209.333L192.267,103.933z"/>
		</g>
		<path style="fill:#4E342E;" d="M354.315,340.989c0.522,7.094-1.932,14.085-6.772,19.297c-4.84,5.212-11.63,8.176-18.743,8.18
			H57.184c-13.785,0.295-25.501-10.012-26.965-23.723c-0.522-7.094,1.932-14.085,6.772-19.297s11.63-8.176,18.743-8.18h271.616
			c0.485-0.014,0.971,0.014,1.451,0.085C342.028,317.721,352.938,327.828,354.315,340.989z"/>
		<path style="fill:#795548;" d="M328.715,340.989c0.522,7.094-1.932,14.085-6.772,19.297c-4.84,5.212-11.63,8.176-18.743,8.18
			H57.184c-13.785,0.295-25.501-10.012-26.965-23.723c-0.522-7.094,1.932-14.085,6.772-19.297s11.63-8.176,18.743-8.18h246.016
			c0.485-0.014,0.971,0.014,1.451,0.085C316.428,317.721,327.338,327.828,328.715,340.989z"/>
		<path style="fill:#FDD834;" d="M328.8,257.533v59.819c-0.48-0.071-0.966-0.099-1.451-0.085H204.299
			c-2.237,0.018-4.379,0.905-5.973,2.475L149.6,368.467l-48.725-48.725c-1.594-1.57-3.736-2.457-5.973-2.475H55.733v-59.733H328.8z"
			/>
		<path style="fill:#FFEB3A;" d="M303.2,257.533v59.819c-0.48-0.071-0.966-0.099-1.451-0.085H178.699
			c-2.237,0.018-4.379,0.905-5.973,2.475L136.8,355.667l-35.925-35.925c-1.594-1.57-3.736-2.457-5.973-2.475H55.733v-59.733H303.2z"
			/>
		<g>
			<path style="fill:#F57C00;" d="M354.4,257.533v8.533c0,4.713-3.821,8.533-8.533,8.533h-307.2c-4.713,0-8.533-3.82-8.533-8.533
				v-8.533c0-47.128,38.205-85.333,85.333-85.333h153.6C316.195,172.2,354.4,210.405,354.4,257.533z"/>
			<path style="fill:#F57C00;" d="M354.4,419.667v25.6c0,28.277-22.923,51.2-51.2,51.2h-34.133c28.277,0,51.2-22.923,51.2-51.2
				v-25.6c0-4.713-3.821-8.533-8.533-8.533h34.133C350.579,411.133,354.4,414.954,354.4,419.667z"/>
		</g>
		<g>
			<path style="fill:#FF9801;" d="M320.267,257.533v8.533c0,4.713-3.821,8.533-8.533,8.533H38.667c-4.713,0-8.533-3.82-8.533-8.533
				v-8.533c0-47.128,38.205-85.333,85.333-85.333h119.467C282.062,172.2,320.267,210.405,320.267,257.533z"/>
			<path style="fill:#FF9801;" d="M320.267,419.667v25.6c0,28.277-22.923,51.2-51.2,51.2H81.333c-28.277,0-51.2-22.923-51.2-51.2
				v-25.6c0-4.713,3.821-8.533,8.533-8.533h158.635c2.237,0.018,4.379,0.905,5.973,2.475l40.192,40.192l40.192-40.192
				c1.594-1.57,3.736-2.457,5.973-2.475h22.101C316.446,411.133,320.267,414.954,320.267,419.667z"/>
		</g>
	</g>
	<g>
		<path d="M119.467,230.4H128c4.713,0,8.533-3.821,8.533-8.533c0-4.713-3.821-8.533-8.533-8.533h-8.533
			c-4.713,0-8.533,3.821-8.533,8.533C110.933,226.579,114.754,230.4,119.467,230.4z"/>
		<path d="M170.667,247.467h8.533c4.713,0,8.533-3.821,8.533-8.533c0-4.713-3.82-8.533-8.533-8.533h-8.533
			c-4.713,0-8.533,3.821-8.533,8.533C162.133,243.646,165.954,247.467,170.667,247.467z"/>
		<path d="M273.067,247.467h8.533c4.713,0,8.533-3.821,8.533-8.533c0-4.713-3.821-8.533-8.533-8.533h-8.533
			c-4.713,0-8.533,3.821-8.533,8.533C264.533,243.646,268.354,247.467,273.067,247.467z"/>
		<path d="M221.867,230.4h8.533c4.713,0,8.533-3.821,8.533-8.533c0-4.713-3.821-8.533-8.533-8.533h-8.533
			c-4.713,0-8.533,3.821-8.533,8.533C213.333,226.579,217.154,230.4,221.867,230.4z"/>
		<path d="M503.467,494.933H486.4c-4.713,0-8.533,3.821-8.533,8.533c0,4.713,3.82,8.533,8.533,8.533h17.067
			c4.713,0,8.533-3.82,8.533-8.533C512,498.754,508.18,494.933,503.467,494.933z"/>
		<path d="M8.533,512h443.733c4.713,0,8.533-3.82,8.533-8.533c0-4.713-3.82-8.533-8.533-8.533h-24.55l40.678-349.867h9.472
			c4.713,0,8.533-3.821,8.533-8.533v-25.6c0-14.138-11.462-25.6-25.6-25.6V76.8c0-14.138-11.462-25.6-25.6-25.6h-85.333V17.067
			C349.867,7.641,342.226,0,332.8,0h-42.667c-4.713,0-8.533,3.821-8.533,8.533s3.821,8.533,8.533,8.533H332.8V51.2h-93.867
			c-14.139,0-25.6,11.462-25.6,25.6v8.533c-14.138,0-25.6,11.462-25.6,25.6v25.6c0,4.713,3.821,8.533,8.533,8.533h9.463l2.978,25.6
			h-89.242c-51.816,0.061-93.806,42.051-93.867,93.867v8.533c0,9.426,7.641,17.067,17.067,17.067H51.2v26.812
			c-5.896,1.478-11.284,4.517-15.599,8.798c-8.675,8.577-12.044,21.169-8.81,32.932c3.234,11.763,12.568,20.862,24.409,23.798V409.6
			h-8.533c-9.426,0-17.067,7.641-17.067,17.067v25.6c-0.002,16.069,6.492,31.457,18.005,42.667H8.533
			c-4.713,0-8.533,3.821-8.533,8.533C0,508.18,3.821,512,8.533,512z M230.4,76.8c0-4.713,3.821-8.533,8.533-8.533H435.2
			c4.713,0,8.533,3.821,8.533,8.533v8.533H230.4V76.8z M204.8,110.933c0-4.713,3.82-8.533,8.533-8.533H460.8
			c4.713,0,8.533,3.821,8.533,8.533V128H204.8V110.933z M222.916,145.067h228.301l-40.678,349.867h-61.611
			c11.514-11.21,18.007-26.597,18.005-42.667v-25.6c0-9.426-7.641-17.067-17.067-17.067h-8.533v-26.812
			c5.896-1.478,11.284-4.517,15.599-8.798c8.675-8.577,12.044-21.169,8.81-32.932c-3.234-11.763-12.568-20.862-24.409-23.798
			v-27.127h8.533c9.426,0,17.067-7.641,17.067-17.067v-8.533c-0.061-51.816-42.051-93.806-93.867-93.867h-47.181L222.916,145.067z
			 M331.358,332.8c9.308-0.254,17.301,6.571,18.509,15.804c0.355,4.95-1.457,9.811-4.966,13.32c-3.198,3.226-7.558,5.031-12.1,5.009
			l-158.601,0l34.133-34.134H331.358z M42.667,264.533c0.052-42.394,34.406-76.748,76.8-76.8h153.6
			c42.394,0.052,76.748,34.406,76.8,76.8v8.533h-307.2V264.533z M324.267,290.133v25.6H208.333
			c-4.529-0.012-8.874,1.788-12.066,5.001L153.6,363.401l-42.667-42.667c-3.192-3.212-7.538-5.013-12.066-5.001H68.267v-25.6
			H324.267z M42.709,351.13c-0.355-4.95,1.457-9.811,4.966-13.32c3.187-3.216,7.53-5.02,12.058-5.009h39.134l34.133,34.133H61.175
			C51.884,367.165,43.916,360.346,42.709,351.13z M68.267,384h256v25.6h-30.601c-4.529-0.012-8.874,1.788-12.066,5.001
			l-34.133,34.133l-34.133-34.133c-3.192-3.212-7.538-5.013-12.066-5.001H68.267V384z M42.667,452.267v-25.6h158.601l40.166,40.166
			c3.332,3.331,8.734,3.331,12.066,0l40.166-40.166h56.201v25.6c-0.028,23.552-19.114,42.638-42.667,42.667H85.333
			C61.781,494.905,42.695,475.819,42.667,452.267z"/>
	</g>
</g>
<g>
</g>
<g>
</g>
<g>
</g>
<g>
</g>
<g>
</g>
<g>
</g>
<g>
</g>
<g>
</g>
<g>
</g>
<g>
</g>
<g>
</g>
<g>
</g>
<g>
</g>
<g>
</g>
<g>
</g>
</svg>
