<svg height="482pt" viewBox="-1 0 482 482.2" width="482pt" xmlns="http://www.w3.org/2000/svg"><g fill="#7c440f"><path d="m111.796875 352h16v128h-16zm0 0"/><path d="m351.796875 352h16v128h-16zm0 0"/><path d="m39.699219 339.480469-7.597657 26.320312-32 112 15.390626 4.398438 32-112 5.382812-18.296875zm0 0"/><path d="m439.941406 339.480469 7.605469 26.320312 32 112-15.390625 4.398438-32-112-5.390625-18.296875zm0 0"/><path d="m223.796875 240h32v200h-32zm0 0"/></g><path d="m119.796875 224h240v32h-240zm0 0" fill="#a65a14"/><path d="m25.8125 224c8.039062-.015625 14.863281 5.890625 16 13.847656l13.984375 98.152344h64c8.835937 0 16 7.164062 16 16s-7.164063 16-16 16h-67.359375c-16.320312.019531-30.039062-12.246094-31.839844-28.464844l-10.851562-97.597656c-.511719-4.570312.945312-9.144531 4.015625-12.570312 3.066406-3.425782 7.453125-5.378907 12.050781-5.367188zm0 0" fill="#6cbbc7"/><path d="m453.78125 224c-8.039062-.015625-14.863281 5.890625-16 13.847656l-13.984375 98.152344h-64c-8.835937 0-16 7.164062-16 16s7.164063 16 16 16h67.359375c16.316406.019531 30.035156-12.246094 31.839844-28.464844l10.847656-97.597656c.515625-4.570312-.945312-9.144531-4.011719-12.570312-3.070312-3.425782-7.453125-5.378907-12.050781-5.367188zm0 0" fill="#6cbbc7"/><path d="m191.796875 440h96v32h-96zm0 0" fill="#a65a14"/><path d="m231.796875 0h16v80h-16zm0 0" fill="#b3b3b3"/><path d="m199.796875 104h80l-40-40zm0 0" fill="#ffa900"/></svg>