<?xml version="1.0" encoding="iso-8859-1"?><!-- Generator: Adobe Illustrator 16.0.0, SVG Export Plug-In . SVG Version: 6.00 Build 0)  -->
<!DOCTYPE svg PUBLIC "-//W3C//DTD SVG 1.1//EN" "http://www.w3.org/Graphics/SVG/1.1/DTD/svg11.dtd">
<svg xmlns:xlink="http://www.w3.org/1999/xlink" style="enable-background:new 0 0 27.373 27.373;" height="27.373px"
    id="Capa_1" version="1.1" viewBox="0 0 27.373 27.373" width="27.373px" x="0px"
    xmlns="http://www.w3.org/2000/svg" y="0px"
    xml:space="preserve">
<g>
	<g>
		<path
            d="M3.141,23.92c-0.46,0.458-0.46,1.202-0.003,1.66c0.461,0.459,1.204,0.459,1.663,0l7.324-7.324l-1.661-1.661L3.141,23.92z" />
        <path d="M27.187,6.869c-0.243-0.246-0.642-0.246-0.89,0.001l-5.157,5.158l-0.891-0.89l5.159-5.159
			c0.247-0.247,0.247-0.644,0.003-0.89c-0.249-0.247-0.645-0.246-0.891,0.001l-5.16,5.159l-0.892-0.892L23.628,4.2
			c0.246-0.248,0.246-0.646,0.002-0.892c-0.246-0.245-0.646-0.245-0.893,0.002L17.58,8.47l-0.892-0.89l5.158-5.159
			c0.249-0.247,0.249-0.646,0.003-0.891c-0.246-0.248-0.645-0.248-0.892,0l-5.337,5.337c-0.04,0.04-0.063,0.091-0.092,0.138
			c-1.622,1.818-1.634,3.689-0.652,5.214c-0.037,0.028-0.083,0.042-0.115,0.075l-1.227,1.226l1.661,1.661l1.227-1.226
			c0.034-0.033,0.047-0.077,0.076-0.114c1.521,0.979,3.393,0.967,5.213-0.654c0.049-0.025,0.098-0.051,0.139-0.091l5.335-5.336
			C27.436,7.514,27.436,7.114,27.187,6.869z" />
        <path d="M10.173,11.57c-0.058-0.055-0.126-0.082-0.188-0.124c0.856-1.803,0.24-4.389-1.683-6.311
			c-2.291-2.293-5.545-2.758-7.264-1.04c-1.719,1.72-1.256,4.974,1.036,7.267c1.923,1.923,4.508,2.54,6.311,1.684
			c0.042,0.062,0.071,0.13,0.126,0.185l12.453,12.454c0.46,0.458,1.201,0.459,1.662,0c0.459-0.458,0.457-1.201-0.001-1.66
			L10.173,11.57z" />
	</g>
</g>
    <g>
</g>
    <g>
</g>
    <g>
</g>
    <g>
</g>
    <g>
</g>
    <g>
</g>
    <g>
</g>
    <g>
</g>
    <g>
</g>
    <g>
</g>
    <g>
</g>
    <g>
</g>
    <g>
</g>
    <g>
</g>
    <g>
</g>
</svg>
