<?xml version="1.0" encoding="iso-8859-1"?>
<!-- Generator: Adobe Illustrator 19.0.0, SVG Export Plug-In . SVG Version: 6.00 Build 0)  -->
<svg version="1.1" id="Capa_1" xmlns="http://www.w3.org/2000/svg" xmlns:xlink="http://www.w3.org/1999/xlink" x="0px" y="0px"
	 viewBox="0 0 496 496" style="enable-background:new 0 0 496 496;" xml:space="preserve">
<path style="fill:#DB2727;" d="M496,369.6c0,27.2-21.6,46.4-48,46.4H48c-26.4,0-48-19.2-48-46.4V126.4C0,99.2,21.6,80,48,80h400
	c26.4,0,48,19.2,48,46.4V369.6z"/>
<path style="fill:#CE2420;" d="M48,80h400c26.4,0,48,19.2,48,46.4v243.2c0,27.2-25.6,46.4-52,46.4"/>
<g>
	<path style="fill:#B50808;" d="M48,80h400c26.4,0,48,19.2,48,46.4V216"/>
	<path style="fill:#B50808;" d="M496,368.8c0,29.6-21.6,47.2-48,47.2H48c-26.4,0-48-20.8-48-48"/>
</g>
<path style="fill:#F3F4F5;" d="M77.6,172c0-24.8,20-44,44-44c8,0,16,2.4,22.4,6.4c-9.6-9.6-23.2-15.2-37.6-15.2
	c-29.6,0-53.6,24-53.6,53.6s24,53.6,53.6,53.6c14.4,0,28-5.6,37.6-15.2c-6.4,4-14.4,6.4-22.4,6.4C97.6,216,77.6,196.8,77.6,172z"/>
<path style="fill:#BAC4CC;" d="M95.2,120l12,10.4c4-1.6,10.4-2.4,15.2-2.4c8,0,16,2.4,22.4,6.4c-9.6-9.6-23.2-15.2-37.6-15.2
	C103.2,118.4,98.4,119.2,95.2,120z"/>
<polygon style="fill:#F3F4F5;" points="172.8,143.2 183.2,160.8 204,156 190.4,172 201.6,190.4 181.6,182.4 168,198.4 169.6,176.8 
	150.4,168.8 171.2,164 "/>
<polygon style="fill:#BAC4CC;" points="183.2,160.8 172.8,143.2 171.2,164 152.8,168.8 156,171.2 169.6,176.8 169.6,183.2 
	176,188.8 181.6,182.4 201.6,190.4 190.4,172 204,156 "/>
<g>
</g>
<g>
</g>
<g>
</g>
<g>
</g>
<g>
</g>
<g>
</g>
<g>
</g>
<g>
</g>
<g>
</g>
<g>
</g>
<g>
</g>
<g>
</g>
<g>
</g>
<g>
</g>
<g>
</g>
</svg>
