<svg id="Layer_3" enable-background="new 0 0 64 64" height="512" viewBox="0 0 64 64" width="512" xmlns="http://www.w3.org/2000/svg"><g><path d="m55 28c0-11.318-8.219-20.745-19-22.645v-3.355c0-.553-.447-1-1-1h-6c-.553 0-1 .447-1 1v3.355c-10.781 1.9-19 11.327-19 22.645s8.219 20.745 19 22.645v12.355h2v-12.092c.66.057 1.326.092 2 .092s1.34-.035 2-.092v12.092h2v-12.355c10.781-1.9 19-11.327 19-22.645zm-25-25h4v2.092c-.66-.057-1.326-.092-2-.092s-1.34.035-2 .092zm2 46c-11.579 0-21-9.421-21-21s9.421-21 21-21 21 9.421 21 21-9.421 21-21 21z"/><path d="m32 9c-10.477 0-19 8.523-19 19s8.523 19 19 19 19-8.523 19-19-8.523-19-19-19zm0 36c-9.374 0-17-7.626-17-17s7.626-17 17-17 17 7.626 17 17-7.626 17-17 17z"/><path d="m35 17h-8c-.553 0-1 .447-1 1v20c0 .553.447 1 1 1h4c.553 0 1-.447 1-1v-7h3c3.859 0 7-3.141 7-7s-3.141-7-7-7zm0 12h-4c-.553 0-1 .447-1 1v7h-2v-18h7c2.757 0 5 2.243 5 5s-2.243 5-5 5z"/><path d="m35 21h-4c-.553 0-1 .447-1 1v4c0 .553.447 1 1 1h4c1.654 0 3-1.346 3-3s-1.346-3-3-3zm0 4h-3v-2h3c.552 0 1 .448 1 1s-.448 1-1 1z"/></g></svg>