<?xml version="1.0"?>
<svg xmlns="http://www.w3.org/2000/svg" xmlns:xlink="http://www.w3.org/1999/xlink" version="1.1" id="Capa_1" x="0px" y="0px" viewBox="0 0 426.667 426.667" style="enable-background:new 0 0 426.667 426.667;" xml:space="preserve" width="512px" height="512px"><g><g>
	<g>
		<g>
			<path d="M362.667,42.667h-21.333V0h-42.667v42.667H128V0H85.333v42.667H64c-23.573,0-42.453,19.093-42.453,42.667L21.333,384     c0,23.573,19.093,42.667,42.667,42.667h298.667c23.573,0,42.667-19.093,42.667-42.667V85.333     C405.333,61.76,386.24,42.667,362.667,42.667z M362.667,384H64V149.333h298.667V384z" class="active-path"  fill="#CC8506"/>
			<polygon points="309.973,214.613 287.36,192 183.253,296.107 138.027,250.88 115.413,273.493 183.253,341.333    "  class="active-path"  fill="#CC8506"/>
		</g>
	</g>
</g></g> </svg>
