<?xml version="1.0"?>
<svg xmlns="http://www.w3.org/2000/svg" xmlns:xlink="http://www.w3.org/1999/xlink" version="1.1" id="Layer_1" x="0px" y="0px" viewBox="0 0 512 512" style="enable-background:new 0 0 512 512;" xml:space="preserve" width="512px" height="512px" class="hovered-paths"><g><g>
	<g>
		<g>
			<path d="M53.333,202.667h53.333c-3.285,0-6.379-1.515-8.405-4.096c-2.027-2.581-2.731-5.952-1.941-9.152l6.635-26.517     c3.563-14.272,16.341-24.235,31.04-24.235h68.672c17.643,0,32,14.357,32,32V192c0,5.888-4.779,10.667-10.667,10.667h64     c-5.888,0-10.667-4.779-10.667-10.667v-21.333c0-17.643,14.357-32,32-32h68.672c14.699,0,27.477,9.963,31.04,24.235l6.635,26.517     c0.811,3.179,0.085,6.571-1.941,9.152c-2.027,2.581-5.12,4.096-8.405,4.096h53.333c5.888,0,10.667-4.779,10.667-10.667v-64     c0-29.397-23.936-53.333-53.333-53.333H96c-29.397,0-53.333,23.936-53.333,53.333v64     C42.667,197.888,47.445,202.667,53.333,202.667z"  fill="#3E6C9A"/>
			<path d="M458.667,224H53.333C23.936,224,0,247.936,0,277.333v149.333c0,5.888,4.779,10.667,10.667,10.667     s10.667-4.779,10.667-10.667v-32h469.333v32c0,5.888,4.779,10.667,10.667,10.667c5.888,0,10.667-4.779,10.667-10.667V277.333     C512,247.936,488.064,224,458.667,224z M490.667,373.333H21.333V352h469.333V373.333z"  class="hovered-path active-path"  fill="#3E6C9A"/>
		</g>
	</g>
</g></g> </svg>
